<svg xmlns="http://www.w3.org/2000/svg" xmlns:xlink="http://www.w3.org/1999/xlink" width="1000" height="600" xmlns:v="https://vecta.io/nano"><style><![CDATA[.B{fill:#6667ba}.C{fill:#d3cbea}.D{fill:#abacdd}.E{fill:#fff}.F{fill:#fabb9e}.G{fill:#ff6870}.H{fill:#dad9f0}.I{fill:#f9a924}.J{fill:#4c87ce}.K{fill:#1f2c53}]]></style><defs><clipPath id="A"><path d="M5074.39 1970.72H3037.63c-56.51 0-102.31 45.8-102.31 102.31v1301.98c0 56.5 45.8 102.31 102.31 102.31h2036.76c56.51 0 102.32-45.81 102.32-102.31V2073.03c0-56.51-45.81-102.31-102.32-102.31"/></clipPath><path id="B" d="M5717.11 1064h-20.12v155.04h20.12V1064"/><path id="C" d="M5717.11 821.73h-20.12v155.04h20.12V821.73"/><path id="D" d="M4810.79 3286.1H3393.25v44.9h1417.54v-44.9"/><path id="E" d="M3523.66 3388.1h-119.08c-6.26 0-11.33 5.08-11.33 11.33v119.08a11.33 11.33 0 0 0 11.33 11.33h119.08a11.33 11.33 0 0 0 11.33-11.33v-119.08c0-6.25-5.07-11.33-11.33-11.33"/><path id="F" d="M2389.42 3497.18h-51.57v51.57h51.57v-51.57"/></defs><g transform="matrix(.133333 0 0 -.133333 0 666.66667)"><path d="M5528.27 3602.43l-.2-1.8-1.2-8.8-1.8-9.3-.1-.4c-1.3-6-2.9-11.9-4.8-17.7-1.1-3.4-2.4-6.8-3.7-10.2-1.2-3-2.5-6-3.9-8.9-1-2.2-2.1-4.4-3.2-6.5-2.9-5.8-6.2-11.5-10-17-.9-1.4-1.9-2.9-2.9-4.3l-1.4-1.9c-1.1-1.6-2.3-3.2-3.6-4.8-1.4-2-3-3.9-4.7-5.8-3.2-3.9-6.6-7.7-10.3-11.2-1.5-1.6-3.1-3.1-4.7-4.6l-5-4.4-7.3-6c-6-4.6-12.3-8.9-18.8-12.8a190.09 190.09 0 0 0-6.1-3.5c-2.4-1.3-4.8-2.5-7.3-3.7-2.3-1.1-4.6-2.2-7-3.2-3.8-1.6-7.7-3.1-11.7-4.5-2.2-.8-4.4-1.6-6.7-2.2-4.9-1.5-9.8-2.7-14.8-3.8-2.4-.6-4.9-1.1-7.4-1.4-2.5-.5-5-.9-7.5-1.1-12.5-1.5-25.2-1.8-37.8-.8-2.5.1-5 .4-7.5.8-2.5.2-5 .6-7.5 1.1-2.5.4-5 .8-7.5 1.4-8.5 1.9-17 4.3-25.3 7.4-2.2.8-4.4 1.6-6.5 2.6l-.8.3c-2.4 1-4.8 2.1-7.1 3.2l-.8.4c-2.5 1.1-5 2.4-7.4 3.8-5.1 2.7-10 5.7-14.8 9l-.4.2c-2.3 1.5-4.5 3.1-6.7 4.8-2 1.5-4 3-5.9 4.6-2.8 2.3-5.4 4.6-8 7-2.6 2.3-5.1 4.8-7.5 7.3-2.1 2.1-4.1 4.3-6 6.5-7.1 8-13.3 16.5-18.7 25.4-1.5 2.5-3 4.9-4.3 7.5-1.6 2.8-3.1 5.7-4.4 8.7-.8 1.7-1.6 3.3-2.3 5-.5 1.1-1 2.1-1.4 3.3-.6 1.4-1.2 2.9-1.8 4.4-.7 1.9-1.4 3.8-2 5.8l-.8 2.3c-.8 2.4-1.6 4.8-2.2 7.3-1.1 3.6-2 7.3-2.8 11-.5 2.2-.9 4.5-1.3 6.7-.7 4.2-1.3 8.4-1.8 12.7-.6 6.1-.9 12.3-.9 18.4v.3c0 6 .3 12.1.9 18.1l.2 1.8a132.72 132.72 0 0 0 1.2 8.8c.5 3.1 1 6.2 1.8 9.3l.1.4c1.3 6 2.9 11.9 4.8 17.7a212.5 212.5 0 0 0 2.6 7.3c.7 1.8 1.4 3.7 2.2 5.5.5 1.2 1 2.5 1.6 3.7.7 1.6 1.4 3.2 2.2 4.8 2.2 4.6 4.5 9 7.2 13.4l3.8 6.2.4.6 4.1 5.9c1.8 2.6 3.7 5.1 5.7 7.6 2 2.4 4 4.9 6.1 7.2 2.1 2.4 4.2 4.7 6.4 7 11.1 11.2 23.6 21.1 37.2 29.2l6.6 3.7c2.2 1.2 4.5 2.3 6.8 3.4 2.1 1.1 4.3 2.1 6.5 3 4.2 1.9 8.4 3.5 12.7 4.9 2 .8 4 1.4 6.1 2l7.4 2.1c2.5.7 4.9 1.3 7.4 1.7 2.5.6 4.9 1.1 7.4 1.4 2.5.5 5 .9 7.5 1.1l7.6.8c10 .8 20.1.8 30.2 0 2.5-.1 5-.4 7.5-.8 2.5-.2 5-.6 7.5-1.1 2.5-.3 5-.8 7.5-1.4 6.2-1.3 12.3-2.9 18.4-5 1.7-.5 3.3-1 5-1.6 8.4-3 16.6-6.7 24.6-11.1 2.6-1.4 5.1-2.8 7.5-4.3 2.4-1.4 4.8-2.9 7.1-4.5s4.6-3.2 6.8-4.9l1-.7 6.6-5.2c2.1-1.7 4.2-3.5 6.2-5.4 4.6-4.1 8.8-8.4 12.7-12.8 1.7-1.8 3.2-3.5 4.7-5.4 2.6-3.1 5.1-6.2 7.3-9.5 1.2-1.6 2.3-3.2 3.4-4.8 3.9-5.6 7.3-11.4 10.3-17.4a94.51 94.51 0 0 0 3.6-7.1l.6-1.3c1.2-2.5 2.3-5.1 3.3-7.7l.5-1.2a76.09 76.09 0 0 0 2.4-6.7c.5-1.2.9-2.6 1.3-3.9 1.9-5.8 3.5-11.7 4.8-17.6.3-1.8.7-3.5 1-5.3.8-4.6 1.5-9.2 2-13.8a187.35 187.35 0 0 0 .9-18.4c0-6.1-.3-12.2-.9-18.3m157.6 54.6c-.4 3.6-1.3 6.9-2.6 10.1l-.1.1c-.9 2.1-1.9 4-3 5.8-1.2 1.9-2.6 3.6-4.2 5.2l-2.3 2.3c-.8.8-1.6 1.5-2.5 2.1h-.1c-1.1.8-2.3 1.6-3.5 2.3-2.7 1.7-5.6 2.9-8.6 3.6-1 .3-2 .5-3.1.7-3.9.7-7.9.8-12 .2l-.8-.1c-2.8-.4-5.7-.4-8.4-.2a38.15 38.15 0 0 0-18.6 6.8l-2.6 2.1c-1 .8-1.9 1.7-2.7 2.6-1.3 1.4-2.5 2.9-3.5 4.5-.9 1.5-1.8 3.1-2.6 4.7-.4.9-.8 1.8-1.1 2.7l-.9 2.3c-2.5 6.9-5.3 13.7-8.5 20.4l-.2.4c-.6 1.2-1 2.4-1.4 3.6-1.7 5-2.2 10.2-1.6 15.3v.1c.6 4.1 1.8 8.2 3.6 12s4.4 7.3 7.6 10.3c1.1 1 2.2 2 3.4 2.9l.7.5c1.1.8 2.1 1.7 3.1 2.6 2.9 2.7 5.3 5.8 7.1 9.1.9 1.6 1.6 3.3 2.3 5v.1c.6 1.7 1.1 3.5 1.5 5.2 2.3 10.3.1 21.4-7 30.3-7.5 9.5-15.7 18.6-24.4 27.4-8.8 8.8-18 17-27.5 24.5-9.1 7.3-20.6 9.4-31.1 6.9l-4-1.2a34.87 34.87 0 0 1-14.1-9.2c-1-1-2-2.2-2.9-3.4l-.7-.8c-4.4-5.9-10.3-10.2-16.9-12.6-2.4-.9-4.9-1.5-7.5-1.9l-1-.1-2-.1c-2.6-.2-5.1-.1-7.6.3-1.9.2-3.8.7-5.6 1.4-1.2.4-2.4.8-3.6 1.4-1.6.7-3.1 1.5-4.7 2.1-2.2 1.1-4.5 2.1-6.8 3-3.9 1.6-7.7 3.1-11.7 4.5l-.4.2c-15 5.6-24.1 20.8-23 36.6l.1.5.4 2.9v.3c2.7 19.1-9.7 36.8-27.9 41-1.3.4-2.7.6-4.1.8-12.1 1.3-24.3 2-36.7 2-12.5 0-24.7-.7-36.8-2-19.8-2.3-34-20.2-32.2-39.8l.3-2.7c.3-1.8.4-3.6.4-5.4 0-14.1-8-27.2-20.8-33.3l-3-1.2c-3.8-1.4-7.6-2.9-11.3-4.4l-9-3.9-2.2-1c-15.7-7.4-34.4-2.2-44.7 11.7l-.2.2c-11.6 15.6-33.3 19.5-49.5 9.2-1.1-.7-2.2-1.5-3.3-2.3-9.3-7.4-18.4-15.5-27-24.2-8.7-8.6-16.8-17.7-24.2-27-7.9-9.9-9.9-22.5-6.4-33.6.9-3.4 2.4-6.7 4.4-9.7a43.17 43.17 0 0 1 5.4-6.6c1.1-1 2.3-2 3.5-2.9l.2-.2c13.9-10.3 19.1-29 11.7-44.7a313.29 313.29 0 0 1-9.3-22.5c-1.6-4.6-4.2-8.6-7.3-12.1a52.51 52.51 0 0 0-6.2-5.3 42.23 42.23 0 0 0-7.3-3.8c-1.7-.7-3.5-1.3-5.3-1.7-4.5-1-9.1-1.2-13.8-.5-1.8.3-3.6.4-5.4.4-2.3 0-4.6-.2-6.8-.6-15.7-2.8-28.5-15.5-30.3-32.2-1.3-11.9-2.1-24-2.1-36.3 0-12.2.8-24.3 2.1-36.2 1.9-16.7 14.7-29.5 30.3-32.2 3.9-.7 8-.8 12.2-.2 1.8.3 3.6.4 5.4.4a37.67 37.67 0 0 0 21-6.4c1.5-1.1 3-2.2 4.3-3.5 4-3.7 7.2-8.4 9.2-13.9a313.29 313.29 0 0 1 9.3-22.5c6.8-14.3 3-31.2-8.3-41.9-1.1-1-2.2-1.9-3.4-2.8v-.1l-.2-.1c-1.2-.9-2.4-1.9-3.5-2.9a43.17 43.17 0 0 1-5.4-6.6c-2-3-3.5-6.3-4.4-9.7-.3-1.1-.5-2.2-.7-3.3s-.4-2.2-.5-3.3c-.2-1.2-.3-2.4-.3-3.7v-.2l.1-1.1c.1-1.7.2-3.5.5-5.2s.8-3.3 1.3-5l.1-.5.2-.5.6-1.7c.5-1.2 1.1-2.4 1.7-3.6l.4-.6.4-.7c.8-1.5 1.6-2.9 2.6-4.2 7.4-9.3 15.5-18.4 24.2-27.1 8.6-8.6 17.6-16.6 27-24.1 7.7-6.2 17.2-8.7 26.3-7.8a36.91 36.91 0 0 1 9.3 2.1c6.7 2.3 12.7 6.6 17.3 12.7l2.9 3.4c4.1 4.3 9 7.5 14.4 9.5l12.6 2.2c5.1 0 10.2-1.1 15-3.3 7.3-3.5 14.8-6.6 22.3-9.3 7.3-2.6 13.3-7.5 17.5-13.6 1.5-2.2 2.8-4.7 3.8-7.3 2.3-5.9 3.2-12.5 2.2-19.1v-.2c-2.8-19.4 9.9-37.5 28.6-41.5l.3-.1c1.1-.3 2.3-.5 3.5-.6 11.9-1.4 24-2.1 36.3-2.1 12.2 0 24.2.7 36.1 2 8.9 1.1 16.7 5.1 22.4 11.2 2.3 2.4 4.3 5.1 5.9 8 .8 1.4 1.5 2.9 2.1 4.5 2.2 5.8 3.1 12.2 2.1 18.8-.3 1.8-.4 3.6-.4 5.4 0 15.3 9.2 29.3 23.8 34.6 7.6 2.7 15 5.8 22.4 9.2l.1.1c10.3 4.8 21.8 4.2 31.5-.6 2.5-1.3 5-2.9 7.2-4.7 1.2-1 2.3-2 3.2-3.1 1.1-1 2-2.1 2.9-3.3l.1-.2c11.7-15.7 33.2-19.5 49.4-9.4 1.2.7 2.3 1.5 3.4 2.4a360.85 360.85 0 0 1 51.3 51.3 36.61 36.61 0 0 1 6.3 33.8 46.81 46.81 0 0 1-1.8 4.8c-.7 1.6-1.6 3.2-2.6 4.7a43.17 43.17 0 0 1-5.4 6.6c-1.1 1-2.3 2-3.5 2.9l-.2.1v.1c-1.2.9-2.3 1.8-3.4 2.8-11.3 10.7-15 27.6-8.3 41.9 3.5 7.4 6.6 14.9 9.3 22.5 5.9 16.3 22.8 25.9 40 23.4 9.1-1.3 17.8.7 24.9 5 1.9 1.2 3.6 2.5 5.2 3.9l2.4 2.3 1.9 2.2c4.3 5.2 7.2 11.8 8 19 1.4 11.9 2.1 24 2.1 36.2 0 12.3-.7 24.4-2.1 36.3" class="D"/><path d="M4988.08 3904.54l-.13-1.13-.75-5.51-1.12-5.82-.06-.25c-.82-3.75-1.82-7.45-3.01-11.08-.69-2.12-1.5-4.25-2.32-6.38-.75-1.88-1.56-3.76-2.44-5.57-.62-1.38-1.31-2.76-2-4.07-1.82-3.63-3.88-7.2-6.26-10.64l-1.81-2.69-.88-1.19c-.69-1-1.44-2.01-2.25-3.01-.88-1.25-1.88-2.44-2.95-3.63-2-2.44-4.13-4.82-6.44-7.01-.94-1-1.94-1.94-2.95-2.88l-3.13-2.75-4.56-3.76c-3.76-2.88-7.7-5.57-11.77-8.01-1.25-.75-2.57-1.5-3.82-2.19-1.5-.81-3-1.57-4.57-2.32-1.44-.69-2.88-1.37-4.38-2-2.38-1-4.82-1.94-7.33-2.82-1.37-.5-2.75-1-4.19-1.37-3.07-.94-6.13-1.69-9.26-2.38-1.5-.38-3.07-.69-4.63-.88-1.57-.31-3.13-.56-4.7-.69-7.82-.94-15.77-1.12-23.66-.5a41.22 41.22 0 0 0-4.69.5c-1.57.13-3.13.38-4.7.69-1.56.25-3.13.5-4.69.88-5.32 1.19-10.64 2.69-15.84 4.63-1.38.5-2.75 1-4.07 1.63l-.5.19c-1.5.62-3 1.31-4.44 2l-.5.25a46.18 46.18 0 0 0-4.64 2.38 92.54 92.54 0 0 0-9.26 5.63l-.25.13c-1.44.93-2.82 1.94-4.19 3-1.26.94-2.51 1.88-3.7 2.88-1.75 1.44-3.38 2.88-5.01 4.38-1.62 1.44-3.19 3.01-4.69 4.57-1.31 1.32-2.57 2.69-3.76 4.07-4.44 5.01-8.32 10.33-11.7 15.9-.94 1.56-1.88 3.06-2.69 4.69-1 1.76-1.94 3.57-2.75 5.45-.51 1.06-1.01 2.06-1.44 3.13l-.88 2.06c-.38.88-.75 1.82-1.13 2.76-.44 1.19-.87 2.38-1.25 3.63l-.5 1.44c-.5 1.5-1 3-1.38 4.57-.69 2.25-1.25 4.57-1.75 6.88-.31 1.38-.56 2.82-.81 4.2-.44 2.63-.82 5.25-1.13 7.95-.38 3.81-.56 7.69-.56 11.51v.19c0 3.76.18 7.58.56 11.33l.12 1.13c.19 1.81.44 3.69.75 5.51.32 1.94.63 3.88 1.13 5.82l.06.25c.82 3.75 1.82 7.45 3.01 11.08a125.42 125.42 0 0 0 1.63 4.57c.44 1.12.87 2.31 1.37 3.44l1 2.31c.44 1.01.88 2.01 1.38 3.01 1.38 2.88 2.82 5.63 4.51 8.39l2.38 3.88.25.37 2.56 3.7a89.2 89.2 0 0 0 3.57 4.75c1.25 1.51 2.51 3.07 3.82 4.51 1.32 1.5 2.63 2.94 4.01 4.38 6.94 7.01 14.77 13.21 23.28 18.28l4.13 2.32c1.38.75 2.82 1.43 4.26 2.12a45.49 45.49 0 0 0 4.07 1.88c2.63 1.19 5.26 2.19 7.95 3.07 1.25.5 2.5.88 3.81 1.25l4.64 1.31c1.56.44 3.06.82 4.63 1.07 1.56.38 3.07.69 4.63.88 1.57.31 3.13.56 4.7.68 1.56.19 3.12.38 4.75.5a117.05 117.05 0 0 0 18.91 0c1.56-.06 3.13-.25 4.69-.5 1.57-.12 3.13-.37 4.7-.68 1.56-.19 3.13-.5 4.69-.88 3.88-.82 7.7-1.82 11.52-3.13 1.06-.32 2.06-.63 3.13-1 5.25-1.88 10.39-4.19 15.39-6.95 1.63-.88 3.2-1.75 4.7-2.69 1.5-.88 3-1.82 4.44-2.82s2.88-2 4.26-3.07l.63-.43 4.13-3.26c1.31-1.06 2.63-2.19 3.88-3.38 2.88-2.57 5.51-5.26 7.95-8.01 1.06-1.13 2-2.19 2.94-3.38 1.63-1.94 3.19-3.88 4.57-5.95.75-1 1.44-2 2.13-3 2.44-3.51 4.57-7.14 6.44-10.89.82-1.44 1.57-2.94 2.26-4.45l.37-.81c.75-1.57 1.44-3.19 2.07-4.82l.31-.75c.56-1.38 1.07-2.76 1.5-4.2l.82-2.44a113.58 113.58 0 0 0 3-11.01c.19-1.13.44-2.19.63-3.32.5-2.88.94-5.76 1.25-8.64.38-3.82.56-7.64.56-11.52 0-3.82-.18-7.63-.56-11.45zm98.65 34.18c-.25 2.25-.82 4.31-1.63 6.32l-.06.06a28.13 28.13 0 0 1-1.88 3.63c-.75 1.19-1.63 2.25-2.63 3.26l-1.44 1.43-1.56 1.32h-.07l-2.19 1.44c-1.69 1.06-3.5 1.81-5.38 2.25l-1.94.44c-2.44.44-4.94.5-7.51.13l-.5-.07c-1.75-.25-3.57-.25-5.26-.12a23.88 23.88 0 0 0-11.64 4.25l-1.63 1.32-1.69 1.63c-.81.87-1.56 1.81-2.19 2.81-.56.94-1.13 1.94-1.63 2.94l-.69 1.7-.56 1.43c-1.57 4.32-3.32 8.58-5.32 12.77l-.13.25-.87 2.26c-1.07 3.13-1.38 6.38-1 9.57v.07c.37 2.57 1.12 5.13 2.25 7.51s2.75 4.57 4.76 6.45l2.12 1.81.44.31 1.94 1.63c1.82 1.69 3.32 3.63 4.45 5.7.56 1 1 2.06 1.44 3.13v.06c.37 1.06.69 2.19.94 3.25 1.44 6.45.06 13.4-4.39 18.97-4.69 5.95-9.82 11.64-15.27 17.15-5.51 5.51-11.27 10.64-17.21 15.34-5.7 4.57-12.89 5.88-19.47 4.32l-2.5-.76c-3.26-1.12-6.32-3.06-8.83-5.75l-1.81-2.13-.44-.5c-2.76-3.69-6.45-6.39-10.58-7.89-1.5-.56-3.07-.94-4.69-1.19l-.63-.06-1.25-.06a19.87 19.87 0 0 0-4.76.18c-1.19.13-2.38.44-3.5.88l-2.26.88c-1 .43-1.94.94-2.94 1.31-1.38.69-2.82 1.31-4.26 1.88-2.44 1-4.81 1.94-7.32 2.82l-.25.12c-9.39 3.51-15.08 13.02-14.4 22.91l.07.31.25 1.82v.18c1.69 11.96-6.08 23.04-17.47 25.67l-2.56.5c-7.58.82-15.21 1.25-22.98 1.25-7.82 0-15.46-.43-23.03-1.25-12.39-1.44-21.28-12.64-20.16-24.91l.19-1.69c.19-1.13.25-2.26.25-3.38 0-8.83-5.01-17.03-13.02-20.85l-1.88-.75a230.12 230.12 0 0 1-7.07-2.75l-5.63-2.44-1.38-.63c-9.83-4.63-21.53-1.37-27.98 7.32l-.12.13c-7.26 9.77-20.85 12.21-30.99 5.76l-2.06-1.44c-5.82-4.63-11.52-9.7-16.9-15.15-5.45-5.38-10.52-11.08-15.15-16.9-4.95-6.2-6.2-14.08-4.01-21.03.57-2.13 1.5-4.19 2.76-6.07a26.55 26.55 0 0 1 3.38-4.14l2.19-1.81.12-.12c8.7-6.45 11.96-18.16 7.33-27.98a195.19 195.19 0 0 1-5.82-14.09c-1.01-2.88-2.63-5.38-4.57-7.57-1.19-1.19-2.51-2.32-3.89-3.32a26.39 26.39 0 0 0-4.56-2.38c-1.07-.44-2.19-.81-3.32-1.06-2.82-.63-5.7-.75-8.64-.31-1.13.18-2.25.25-3.38.25a24.02 24.02 0 0 1-4.26-.38c-9.82-1.75-17.84-9.7-18.96-20.15-.82-7.45-1.32-15.03-1.32-22.73 0-7.63.5-15.21 1.32-22.66 1.19-10.45 9.2-18.46 18.96-20.15 2.45-.44 5.01-.5 7.64-.13 1.13.19 2.25.25 3.38.25a23.58 23.58 0 0 0 13.14-4c.94-.69 1.88-1.38 2.7-2.19 2.5-2.32 4.5-5.26 5.76-8.7a193.33 193.33 0 0 1 5.82-14.09c4.25-8.95 1.87-19.53-5.2-26.22l-2.13-1.76v-.06l-.12-.06-2.19-1.82c-1.26-1.25-2.38-2.63-3.38-4.13-1.26-1.88-2.19-3.94-2.76-6.07l-.43-2.06-.32-2.07-.19-2.32v-.12l.07-.69c.06-1.07.12-2.19.31-3.26.19-1.06.5-2.06.81-3.13l.07-.31.12-.31.38-1.06 1.06-2.26.25-.37.25-.44c.5-.94 1-1.82 1.63-2.63a199.51 199.51 0 0 1 15.15-16.96 198.7 198.7 0 0 1 16.9-15.09c4.82-3.88 10.76-5.44 16.46-4.88a23.17 23.17 0 0 1 5.82 1.31c4.2 1.44 7.95 4.13 10.83 7.95l1.81 2.13c2.57 2.69 5.64 4.69 9.02 5.95l7.88 1.37a22.41 22.41 0 0 0 9.39-2.06 150.29 150.29 0 0 1 13.96-5.82c4.57-1.63 8.33-4.7 10.96-8.52.94-1.37 1.75-2.94 2.38-4.57 1.43-3.69 2-7.82 1.37-11.95v-.13c-1.75-12.14 6.2-23.47 17.9-25.97l.19-.06 2.19-.38c7.45-.88 15.03-1.32 22.72-1.32 7.64 0 15.15.44 22.6 1.26 5.57.68 10.45 3.19 14.02 7.01a24.43 24.43 0 0 1 3.7 5c.5.88.93 1.82 1.31 2.82 1.38 3.63 1.94 7.64 1.31 11.77-.18 1.13-.25 2.25-.25 3.38 0 9.58 5.76 18.34 14.9 21.66 4.76 1.69 9.39 3.63 14.02 5.76l.06.06c6.45 3 13.65 2.63 19.72-.38 1.57-.81 3.13-1.81 4.51-2.94l2-1.94 1.82-2.06.06-.13a23.21 23.21 0 0 1 30.92-5.88l2.13 1.5c5.82 4.69 11.52 9.76 16.96 15.15 5.38 5.44 10.45 11.14 15.15 16.96 4.94 6.26 6.13 14.14 3.94 21.15a29.67 29.67 0 0 1-1.12 3.01c-.44 1-1.01 2-1.63 2.94a27.05 27.05 0 0 1-3.38 4.13l-2.19 1.82-.13.06v.06l-2.12 1.76c-7.08 6.69-9.39 17.27-5.2 26.22a151.47 151.47 0 0 1 5.82 14.09c3.69 10.2 14.27 16.21 25.04 14.64 5.7-.81 11.14.44 15.59 3.13a26.06 26.06 0 0 1 3.25 2.45l1.5 1.44 1.19 1.37c2.69 3.26 4.51 7.39 5.01 11.89.87 7.45 1.31 15.03 1.31 22.66 0 7.7-.44 15.28-1.31 22.73" class="B"/><g class="D"><path d="M5354.47 4159.49l-2.49.28-.12-1.13 2.48-.27-2.48.33-.75-5.5 2.48-.34-2.47.39-1.08-5.59-.06-.27-.01-.04-.01-.03a111.06 111.06 0 0 0-2.94-10.84h0l-2.27-6.27 2.33-.89-2.32.93-2.37-5.41-.02-.04v-.01l-1.95-3.95-.01-.01-.01-.03c-1.77-3.54-3.77-7-6.08-10.34l-.01-.02-1.79-2.64-.85-1.16-.03-.04-.01-.02c-.65-.95-1.36-1.9-2.14-2.85l-.06-.07-.05-.07c-.78-1.13-1.72-2.25-2.75-3.4l-.03-.03-.04-.05c-1.96-2.38-4.02-4.68-6.23-6.78l-.06-.05-.05-.05c-.87-.93-1.83-1.83-2.83-2.77l1.71-1.82-1.65 1.87-3.12-2.75 1.64-1.88-1.6 1.92-4.53-3.72 1.56-1.95-1.52 1.98a123.8 123.8 0 0 0-11.53-7.85c-1.22-.74-2.51-1.47-3.74-2.15l.02.01a103.19 103.19 0 0 0-4.46-2.26c-1.44-.68-2.84-1.36-4.27-1.95l-.03-.01.03.01c-2.33-.98-4.73-1.9-7.18-2.77h-.03 0c-1.38-.5-2.68-.98-3.97-1.31l-.05-.01-.05-.02c-2.98-.91-5.98-1.65-9.07-2.33h-.03l-.04-.01c-1.42-.36-2.89-.65-4.33-.82l-.09-.01-.1-.02c-1.5-.31-2.97-.54-4.4-.65h-.05l-.05-.01a118.62 118.62 0 0 0-14.11-.85 113.88 113.88 0 0 0-9.05.36h-.05-.05c-1.43.06-2.9.24-4.4.48l-.1.01-.1.01c-1.43.11-2.9.34-4.4.65l-.05.01-.04.01c-1.57.25-3.07.49-4.51.83l-.02.01h-.02c-5.23 1.17-10.44 2.64-15.51 4.54h0l-.02.01c-1.37.49-2.68.97-3.85 1.53l-.09.04-.6.23-.88-2.34.96 2.31a88.18 88.18 0 0 0-4.33 1.95l-1.07-2.26 1.11 2.24-.5.25-.05.03-.06.02c-1.46.64-2.95 1.42-4.38 2.25l-.04.03-.05.02c-3.1 1.64-6.08 3.47-9.02 5.48l-.14.1-.4.21-1.12-2.24 1.36 2.09c-1.37.9-2.69 1.86-4.03 2.89l-.01.01-.02.02c-1.25.93-2.46 1.85-3.58 2.79l-.02.01h0a113.01 113.01 0 0 0-4.9 4.29l-.02.02-.02.02c-1.55 1.37-3.07 2.88-4.55 4.43l-.01.01-.02.02c-1.26 1.26-2.47 2.59-3.64 3.94l-.02.02c-4.34 4.89-8.13 10.09-11.43 15.54v-.01c-.95 1.59-1.85 3.04-2.6 4.52l-.03.07-.03.06c-.97 1.69-1.87 3.42-2.63 5.19l-.02.04-.02.04c-.51 1.1-.99 2.06-1.39 3.01l-.01.03-.87 2.06-.01.01-1.1 2.7-2.32-.93 2.35.87c-.44 1.19-.86 2.32-1.21 3.48l-.01.05-.52 1.49-2.36-.82 2.37.8c-.5 1.5-.98 2.93-1.32 4.35l-.02.08-.02.07c-.66 2.16-1.21 4.41-1.7 6.68l-.01.03c-.29 1.29-.53 2.7-.79 4.09l-2.46-.45 2.47.41a163.87 163.87 0 0 0-1.11 7.83l-2.48-.29 2.48.25c-.36 3.73-.55 7.53-.55 11.27v.18c0 3.68.19 7.41.55 11.08l-2.48.25 2.48-.27.13 1.13v.01c.18 1.77.43 3.6.73 5.35v.02c.31 1.94.62 3.8 1.08 5.6l.07.27.01.04v.03a110.87 110.87 0 0 0 2.94 10.83v-.01a151.1 151.1 0 0 0 1.59 4.48l-2.34.88 2.33-.91c.45 1.16.88 2.31 1.34 3.34l.01.02 1 2.32.03.06-.04-.07c.44 1 .86 1.96 1.33 2.88v.02l.01.02c1.36 2.83 2.76 5.5 4.39 8.16h-.01l2.38 3.88-2.12 1.31 2.07-1.39.25.38-2.07 1.39 2.04-1.44 2.54 3.65.01.02.03.04c1.08 1.56 2.24 3.08 3.46 4.62l-1.95 1.56 1.92-1.6c1.27 1.53 2.5 3.06 3.74 4.42l.02.02.02.02a133.46 133.46 0 0 0 3.93 4.3l-1.81 1.73 1.78-1.77c6.81 6.87 14.47 12.94 22.79 17.9l-1.28 2.14 1.2-2.19 4.13 2.31c1.29.71 2.7 1.38 4.14 2.07l.04.02.04.02c1.23.65 2.53 1.24 3.85 1.78l.05.02.04.02c2.53 1.15 5.07 2.11 7.69 2.97l.08.02.07.03c1.12.45 2.28.8 3.58 1.17h-.01l4.63 1.31c1.52.43 2.93.78 4.35 1l.1.02.09.02c1.52.37 2.92.66 4.35.83l.09.01.1.02c1.5.3 2.97.53 4.4.64l.05.01.05.01c1.56.18 3.09.37 4.65.48 3.07.25 6.15.37 9.24.37a120.12 120.12 0 0 0 9.28-.36l.04-.01h.05c1.44-.05 2.9-.23 4.4-.47l.1-.02.1-.01c1.43-.11 2.9-.34 4.4-.64l.1-.02.1-.01c1.43-.17 2.9-.47 4.4-.83l.04-.01.03-.01c3.8-.79 7.52-1.77 11.22-3.04l.05-.02.06-.01c1.04-.31 1.99-.61 3-.96h-.01c5.13-1.84 10.14-4.09 15.04-6.79l.02-.01c1.6-.86 3.12-1.71 4.55-2.61l.03-.02.04-.02c1.46-.85 2.9-1.75 4.27-2.71 1.44-1 2.85-1.98 4.16-2.99l.05-.04.67-.47 1.43 2.05-1.52-1.98 4.07-3.21.01-.01c1.28-1.03 2.54-2.12 3.73-3.25l.03-.02.03-.03c2.8-2.49 5.36-5.11 7.74-7.81l.03-.03.03-.03c1.03-1.08 1.91-2.08 2.79-3.21l.03-.03.02-.02c1.61-1.92 3.11-3.79 4.41-5.73l.04-.06.04-.05c.71-.95 1.38-1.92 2.06-2.92l.03-.04-.02.02c2.37-3.4 4.44-6.92 6.27-10.58l.02-.05.04-.06c.77-1.37 1.49-2.81 2.15-4.26l.1-.2.28-.61.02-.04h0a63.77 63.77 0 0 0 1.98-4.63l.02-.04.32-.78v.02c.53-1.32 1.01-2.62 1.42-3.98l.01-.02.82-2.49v.02a113.86 113.86 0 0 0 2.94-10.78l2.44.54-2.47-.41c.21-1.23.46-2.3.63-3.32v-.02c.5-2.84.93-5.67 1.23-8.47l2.49.26-2.49-.24c.37-3.74.55-7.47.55-11.27a113.54 113.54 0 0 0-.55-11.21l2.49-.25-2.49.28 2.49-.28 2.49-.24c.38 3.89.57 7.8.57 11.7 0 3.96-.19 7.86-.57 11.76l-.01.03v-.01c-.32 2.95-.76 5.89-1.27 8.8v-.02c-.21 1.24-.46 2.3-.62 3.32l-.02.06-.01.07c-.83 3.77-1.85 7.54-3.07 11.25l-.82 2.46-2.37-.79 2.39.73a49 49 0 0 1-1.58 4.41v.02l-.32.75-2.3-.97 2.33.9c-.65 1.68-1.36 3.37-2.15 5l-2.25-1.08 2.27 1.05-.37.81-.18.38.18-.38c-.71 1.55-1.5 3.12-2.35 4.63l-2.18-1.23 2.24 1.12a90.25 90.25 0 0 1-6.63 11.2l.01-.01-2.19 3.09-2-1.5 2.08 1.38c-1.46 2.2-3.09 4.2-4.74 6.17l-1.91-1.61 1.96 1.55c-.99 1.26-1.99 2.39-3.09 3.55l-1.82-1.72 1.88 1.66c-2.5 2.82-5.2 5.58-8.16 8.22l-1.66-1.87 1.72 1.82c-1.32 1.25-2.68 2.41-4.03 3.51l.01-.01c-1.41 1.16-2.81 2.23-4.19 3.3l-.04.04-.68.46-1.43-2.04 1.53 1.97c-1.45 1.12-2.92 2.14-4.36 3.15-1.51 1.05-3.07 2.02-4.61 2.92l-1.26-2.16 1.32 2.12c-1.57.98-3.18 1.88-4.83 2.77l.02-.01a108.75 108.75 0 0 1-15.76 7.12h-.01a67.8 67.8 0 0 1-3.26 1.04l-.71-2.4.82 2.37c-3.93 1.35-7.86 2.38-11.82 3.21l-.51-2.45.58 2.43c-1.62.39-3.28.73-4.98.93l-.3-2.48.49 2.45c-1.62.33-3.29.6-4.98.73l-.2-2.49.39 2.46c-1.63.27-3.29.47-4.99.54l-.1-2.5.2 2.49a120.39 120.39 0 0 1-9.67.38 118.86 118.86 0 0 1-9.63-.38c-1.69-.13-3.29-.32-4.86-.51l.3-2.48-.2 2.49c-1.69-.13-3.35-.4-4.98-.73l.49-2.45-.3 2.48c-1.7-.2-3.31-.54-4.92-.93l.59-2.43-.4 2.47c-1.7-.27-3.3-.67-4.91-1.12l-4.63-1.32-.03-.01.02.01c-1.34-.38-2.68-.78-4.06-1.34l.92-2.32-.77 2.38c-2.77-.9-5.49-1.94-8.21-3.17l1.04-2.28-.95 2.32c-1.44-.59-2.88-1.25-4.28-1.98l1.16-2.21-1.08 2.25c-1.44-.69-2.92-1.39-4.38-2.19l-4.13-2.31-.04-.02-.04-.03c-8.7-5.19-16.69-11.51-23.78-18.67l-.03-.02v-.01a114.62 114.62 0 0 1-4.08-4.46l1.88-1.65-1.85 1.69c-1.39-1.52-2.66-3.12-3.89-4.59l-.02-.03-.01-.01c-1.28-1.6-2.5-3.21-3.67-4.9l2.05-1.42-2.01 1.48c-.93-1.27-1.76-2.53-2.6-3.74l-.01-.01-.27-.41-.03-.04-.02-.03-2.38-3.88v-.01c-1.75-2.85-3.23-5.69-4.64-8.62l2.26-1.08-2.24 1.12c-.53-1.07-.99-2.12-1.43-3.12l-.03-.06-.97-2.27.01.03c-.55-1.23-1-2.46-1.43-3.55l-.01-.03c-.57-1.53-1.14-3.12-1.65-4.66l-.02-.05.01.04c-1.22-3.71-2.24-7.49-3.07-11.33l2.44-.53-2.43.6-.06-.25 2.43-.6-2.42.63c-.54-2.09-.86-4.11-1.18-6.05l2.47-.4-2.46.42c-.32-1.88-.58-3.81-.77-5.67v.02l-.13-1.13v-.03c-.38-3.84-.58-7.74-.58-11.58v-.18a119.06 119.06 0 0 1 .58-11.77v-.01-.03a161.5 161.5 0 0 1 1.15-8.07v-.02-.02l.84-4.3 2.44.56-2.45-.53c.51-2.36 1.09-4.74 1.81-7.09l2.39.73-2.43-.58c.41-1.7.94-3.28 1.44-4.78l.51-1.47 2.36.82-2.4-.71c.41-1.35.87-2.59 1.3-3.79l.01-.01.02-.04c.37-.95.76-1.9 1.15-2.82l-.01.01.88-2.07 2.3.98-2.31-.95c.48-1.17 1.01-2.21 1.49-3.24l2.26 1.06-2.29-.99c.86-1.98 1.84-3.88 2.87-5.69l2.18 1.24-2.24-1.12c.88-1.77 1.86-3.32 2.78-4.86l.03-.05-.02.04a111.35 111.35 0 0 1 11.97-16.27l1.87 1.66-1.89-1.63a79.38 79.38 0 0 1 3.88-4.2l1.77 1.76-1.81-1.73c1.53-1.59 3.14-3.2 4.85-4.71l1.65 1.88-1.69-1.84c1.65-1.53 3.32-3 5.11-4.48l1.59 1.93-1.61-1.91c1.26-1.06 2.55-2.03 3.8-2.96l1.5 2-1.52-1.99c1.41-1.09 2.84-2.13 4.35-3.11l.12-.08.38-.19 1.12 2.24-1.42-2.07c3.08-2.11 6.23-4.04 9.51-5.78l1.17 2.21-1.26-2.16c1.58-.91 3.22-1.77 4.89-2.5l1 2.28-1.11-2.23.5-.25.02-.01.02-.01a87.08 87.08 0 0 1 4.56-2.06l.03-.01.55-.21.88 2.34-1.08-2.25c1.46-.7 2.92-1.22 4.29-1.73l-.02.01c5.33-1.99 10.76-3.52 16.17-4.73l.54 2.44-.58-2.43c1.69-.4 3.32-.66 4.88-.91l.4 2.47-.49-2.46c1.63-.32 3.29-.59 4.98-.72l.2 2.49-.39-2.47c1.63-.26 3.29-.46 4.99-.53l.1 2.49-.2-2.49a119.39 119.39 0 0 1 9.45-.37c4.92 0 9.84.3 14.71.88l-.3 2.49.2-2.49c1.69.13 3.35.4 4.98.72l-.49 2.46.3-2.49c1.7.21 3.36.54 4.94.94l-.61 2.42.54-2.44c3.17.7 6.3 1.46 9.46 2.43l-.73 2.39.63-2.42c1.59.42 3.04.95 4.42 1.45l-.86 2.35.83-2.36c2.55.89 5.04 1.85 7.47 2.87h-.01c1.58.66 3.06 1.36 4.5 2.05 1.59.76 3.13 1.54 4.68 2.38h.01c1.28.7 2.62 1.47 3.9 2.24 4.15 2.49 8.17 5.24 12 8.17l.03.02.01.02c1.6 1.27 3.11 2.53 4.61 3.78l.03.02.02.02 3.14 2.76.03.03.02.02c1 .94 2.04 1.92 3.06 2.99l-1.83 1.72 1.72-1.82c2.42 2.28 4.61 4.74 6.66 7.24l-1.93 1.58 1.87-1.66c1.09 1.23 2.16 2.49 3.12 3.86l-2.05 1.44 1.94-1.58c.86 1.05 1.65 2.1 2.38 3.16l-2.06 1.42 2.01-1.48.88 1.19.03.04 1.84 2.73-2.07 1.4 2.06-1.42c2.45 3.55 4.57 7.22 6.43 10.94l-2.23 1.12 2.21-1.16c.71 1.35 1.41 2.76 2.07 4.19l-2.28 1.04 2.25-1.09c.91 1.88 1.74 3.81 2.51 5.73l.02.04h0c.81 2.13 1.64 4.3 2.36 6.51l-.01-.01c1.22 3.71 2.24 7.49 3.07 11.33l-2.44.53 2.43-.61.06.25v-.02c.53 2.09.86 4.11 1.17 6.05v.03l.01.03.75 5.52v.02l.13 1.15v.03l.01.01zm98.65 34.18l2.48.28c-.28 2.49-.91 4.8-1.8 6.98l-.19.48-.43.43-1.75-1.79 2.29.99a29.87 29.87 0 0 1-2.04 3.95l-.01.02-.01.01c-.86 1.36-1.86 2.57-2.97 3.69l-1.44 1.43-.08.08-1.65 1.39-.69.58h-.23l-1.57 1.03-.02.01-.02.02a20.05 20.05 0 0 1-6.15 2.57l-1.95.44-.06.01-.05.02c-1.5.26-3.03.41-4.58.41-1.24 0-2.48-.09-3.74-.28l.37-2.47-.32 2.48-.5-.06-.02-.01h-.02c-.88-.13-1.82-.18-2.75-.18l-1.97.07-.18-2.49.22 2.49c-3.81.34-7.4 1.68-10.43 3.81l-1.43-2.04 1.57 1.94-1.55 1.25-1.61 1.55-1.73-1.8 1.83 1.7-1.9 2.44-2.12-1.32 2.14 1.28c-.54.9-1.07 1.85-1.53 2.78l-2.24-1.12 2.32.94-.69 1.69-2.32-.94 2.33.91-.56 1.44-2.33-.91 2.35.85c-1.59 4.39-3.37 8.72-5.42 13l-.01.02-.08.17-.83 2.14-2.33-.91 2.36.81c-.69 2.02-1.02 4.1-1.02 6.18l.14 2.3.01.14v.21h-2.5l2.48-.36c.34 2.33 1.02 4.66 2.04 6.8.98 2.07 2.42 4.02 4.2 5.69l-1.7 1.83 1.62-1.9 2.04 1.74.35.25.08.06 2.02 1.69.05.04.05.04c2.01 1.88 3.67 4.03 4.93 6.33l-2.19 1.2 2.18-1.22c.66 1.18 1.13 2.34 1.57 3.4l.19.45v.56h-2.5l2.35-.83c.42 1.18.75 2.38 1.02 3.51l.01.03a25.46 25.46 0 0 1 .6 5.5 24.86 24.86 0 0 1-5.47 15.57l.01-.01c-4.77 6.03-9.96 11.8-15.46 17.36l-.01.01c-5.58 5.58-11.41 10.77-17.43 15.53l.01-.01c-4.63 3.72-10.18 5.5-15.67 5.5-2 0-4-.23-5.94-.7l-.07-.02-2.57-.76-.05-.02-.05-.02a24.3 24.3 0 0 1-9.84-6.42l-.03-.03-1.86-2.17 1.91-1.63-1.89 1.65-.43-.51-.07-.07-.06-.07c-2.46-3.3-5.75-5.7-9.43-7.04h-.01l-.01-.01c-1.31-.49-2.7-.82-4.2-1.06l.38-2.46-.24 2.48-.57-.05-1.19-.06-.03-.01h-.04l-1.41-.06c-.93.01-1.84.08-2.75.23h-.07l-.07.01c-.93.1-1.91.35-2.86.72l-2.25.88-.91-2.33 1 2.29c-.88.38-1.86.91-3.06 1.36l-.88-2.34 1.12 2.24a55.17 55.17 0 0 1-4.47 1.97l-.91-2.33.95 2.32c-2.46 1-4.88 1.96-7.45 2.86l-.82-2.36 1.12 2.23-.25.13-.12.06-.13.04c-7.83 2.92-12.83 10.65-12.83 18.96l.05 1.44-2.49.18 2.45-.5.06.32.02.07.26 1.89.02.17v.36h-2.5l2.48-.35a26.12 26.12 0 0 1 .25 3.62c0 11.81-8.13 22.17-19.63 24.83l-.04.01-2.61.51-.1.02-.11.01c-7.65.82-15.38 1.27-23.24 1.27-7.92 0-15.64-.45-23.3-1.27h-.02 0c-12.98-1.52-22.46-12.62-22.46-25.3l.1-2.33.01-.03.19-1.7v-.08l.01-.06c.16-.95.22-1.93.22-2.97 0-7.88-4.48-15.2-11.59-18.58l1.07-2.26-.93 2.32-1.88-.75.93-2.32-.86 2.34a221.58 221.58 0 0 1-7.15-2.78h-.01l-.02-.01-5.66-2.45-.02-.02-1.4-.63-.02-.01h-.01c-2.69-1.27-5.53-1.87-8.35-1.87-6.33 0-12.57 3.04-16.55 8.42l-.11.15-.26.25-1.77-1.77 2.01 1.49c-5.03 6.77-12.8 10.36-20.64 10.36-4.72 0-9.48-1.3-13.69-3.98l-.04-.02-2.12-1.48-.06-.04-.06-.05c-5.9-4.69-11.67-9.83-17.12-15.35l1.77-1.76-1.75 1.78c-5.52-5.46-10.66-11.22-15.35-17.12h0c-3.74-4.69-5.59-10.29-5.59-15.84a24.83 24.83 0 0 1 1.16-7.5l2.38.75-2.42-.64a22.94 22.94 0 0 1 3.1-6.82c1.08-1.63 2.32-3.14 3.69-4.51l.08-.08 2.19-1.81.04-.04.13-.14.15-.11c5.38-3.98 8.42-10.22 8.42-16.55 0-2.83-.6-5.66-1.87-8.35l-.01-.03h0c-2.15-4.68-4.12-9.44-5.89-14.26l-.01-.03-.01-.01c-.87-2.51-2.3-4.74-4.08-6.74l1.87-1.66-1.76 1.77c-1.1-1.09-2.32-2.14-3.59-3.06l1.47-2.03-1.36 2.1c-1.3-.85-2.73-1.59-4.13-2.15l-.02-.01h-.01c-.95-.39-1.95-.73-2.91-.94a21.08 21.08 0 0 0-4.61-.51c-1.03 0-2.07.08-3.11.23l-.37-2.47.41 2.46c-1.31.22-2.57.29-3.79.29a27.11 27.11 0 0 1-4.7-.41c-10.87-1.94-19.75-10.75-21.01-22.35h0c-.82-7.52-1.33-15.19-1.33-22.99 0-7.75.51-15.41 1.33-22.93v-.02a25.64 25.64 0 0 1 21.03-22.33h-.02c1.5-.27 3.05-.41 4.63-.41 1.25 0 2.52.09 3.8.27l.03.01h.03c.95.16 1.93.22 2.97.22 4.25 0 8.34-1.29 11.75-3.58l1.39 2.07-1.48-2.02c.95-.68 1.78-1.3 2.41-1.94l.03-.03.04-.03c2.21-2.05 3.99-4.66 5.1-7.72l.01-.01c1.77-4.82 3.74-9.58 5.89-14.27l.02-.03c1.27-2.67 1.87-5.5 1.87-8.32 0-5.55-2.34-11.05-6.53-15.02l1.72-1.81-1.59 1.93-2.13-1.75-.91-.75v-1.25h2.5l-1.12 2.24-.13-.06-.25-.13-2.41-2-.09-.07-.08-.08c-1.37-1.38-2.61-2.88-3.7-4.52-1.4-2.1-2.45-4.41-3.09-6.82l-.01-.06-.45-2.12-.02-.07-.32-2.14-.02-.09-.19-2.4-.01-.1v-.23-.11l.07-.8 2.49.22-2.49-.14c.06-1.06.12-2.28.34-3.54v-.01c.23-1.27.58-2.36.88-3.4l2.4.71-2.45-.49.06-.32.05-.22.19-.48.36-1.02.04-.11 1.12-2.37.08-.17.3-.45.21-.37 2.17 1.24-2.21-1.18c.53-.97 1.09-1.98 1.86-2.97l.01-.02.01-.01c4.69-5.9 9.82-11.66 15.34-17.18a203.57 203.57 0 0 1 17.11-15.27l-.01.01c4.64-3.74 10.24-5.55 15.77-5.55l2.5.12c2.2.21 4.36.7 6.44 1.46l-.86 2.35.81-2.37c4.67 1.6 8.85 4.61 12.01 8.81l-1.99 1.51 1.9-1.62 1.81 2.12-1.9 1.63 1.81-1.73c2.31 2.42 5.05 4.2 8.07 5.33l-.86 2.34.43-2.46 7.88 1.38-.43 2.46v-2.5c2.84 0 5.67-.61 8.35-1.84l1.04 2.27-1.08-2.25c4.65-2.23 9.42-4.2 14.19-5.92l.01-.01c4.04-1.43 7.38-4.15 9.74-7.57l-.01.01c.82-1.21 1.55-2.61 2.11-4.06v-.01c.94-2.41 1.46-5.02 1.46-7.67a20.19 20.19 0 0 0-.22-3l-.03-.19v-.31h2.5l-2.47.35a25.83 25.83 0 0 1-.27-3.71c0-11.98 8.32-22.53 20.12-25.06l.52 2.44-.79-2.37.19-.06.18-.06 2.38-.41.06-.01.07-.01c7.55-.89 15.22-1.33 23.01-1.33 7.73 0 15.34.44 22.87 1.26l.02.01h.02c6.12.75 11.56 3.53 15.54 7.78l-1.83 1.71 1.8-1.73c1.59 1.66 2.97 3.52 4.08 5.53l-2.19 1.21 2.17-1.24a21.03 21.03 0 0 1 1.49 3.18l-.01-.01c1.1 2.89 1.74 6.02 1.74 9.28 0 1.23-.1 2.49-.29 3.75v.02.01c-.16.95-.22 1.94-.22 2.97.01 8.58 5.15 16.37 13.25 19.31l-.01-.01c4.84 1.73 9.54 3.7 14.22 5.85l.41.19.38.37-1.77 1.77 1.06-2.26c2.68 1.25 5.5 1.83 8.31 1.84 3.18 0 6.35-.76 9.24-2.19l1.11 2.23-1.15-2.21c1.42-.74 2.85-1.66 4.07-2.66l1.59 1.93-1.74-1.79 1.93-1.87 1.75-1.99 1.87 1.65-2.23-1.12.06-.12.1-.2.13-.18c5.07-6.81 12.84-10.4 20.68-10.4a25.55 25.55 0 0 1 13.57 3.89l.07.04 2.18 1.54.07.05.06.05a229.35 229.35 0 0 1 17.15 15.31l.02.02a229.35 229.35 0 0 1 15.31 17.15l.02.02h0c3.72 4.71 5.54 10.3 5.53 15.82 0 2.59-.39 5.16-1.16 7.63a30.26 30.26 0 0 1-1.23 3.27c-.5 1.16-1.14 2.28-1.83 3.32-1.09 1.64-2.33 3.14-3.7 4.52l-.08.08-2.28 1.89-.22.18-.38.19-1.12-2.24h2.5v.07 1.18l-3.04 2.5-1.59-1.93 1.72 1.81c-4.18 3.96-6.5 9.46-6.5 15.01 0 2.83.59 5.67 1.85 8.34h0c2.22 4.7 4.2 9.48 5.91 14.31l.02.05-.02-.06c2.92 8.08 10.76 13.24 19.28 13.24a22.44 22.44 0 0 0 3.05-.21 25.74 25.74 0 0 1 3.79-.28c4.9 0 9.52 1.37 13.45 3.74l.01.01.03.01c1.31.83 2.48 1.73 3.56 2.68l.04.03 1.55 1.48.08.08 1.27 1.47.01.01.03.03c3 3.63 5 8.21 5.56 13.21v-.01c.89 7.54 1.33 15.21 1.33 22.95 0 7.79-.44 15.46-1.33 23.01v-.01l-2.48-.28-2.49-.29c.87-7.35 1.3-14.83 1.3-22.43 0-7.54-.43-15.02-1.3-22.37v-.02c-.44-4.01-2.06-7.69-4.45-10.57l1.93-1.6-1.89 1.64-1.12-1.29-1.41-1.36 1.73-1.8-1.65 1.88a24.27 24.27 0 0 0-2.94-2.21l1.33-2.11-1.29 2.14c-3.16-1.92-6.89-3.02-10.86-3.02-1.01 0-2.04.08-3.08.22-1.25.18-2.51.27-3.76.27-10.52.01-20.29-6.37-23.98-16.54l-.01-.01c-1.66-4.68-3.57-9.3-5.72-13.85l-.01-.01c-1.57-3.36-2.32-6.94-2.32-10.47 0-6.94 2.88-13.72 8.06-18.64l.07-.05 2.19-1.81 1.59 1.93h-2.5v-.07-1.53l1.25-.63 1.97-1.64 1.6 1.93-1.77-1.77a24.95 24.95 0 0 0 3.07-3.75l1.41-2.56a23.63 23.63 0 0 0 1.03-2.75 20.33 20.33 0 0 0 .94-6.14c0-4.44-1.44-8.89-4.45-12.72l1.96-1.55-1.95 1.57a221.82 221.82 0 0 0-14.98-16.77l1.78-1.76-1.76 1.78c-5.38-5.33-11.02-10.34-16.77-14.98l1.57-1.95-1.45 2.04-2.12-1.5 1.44-2.04-1.32 2.12a20.62 20.62 0 0 0-10.93-3.13 20.74 20.74 0 0 0-16.67 8.39l-2-1.5 2.24 1.12-.07.12-.14.29-2.03 2.31-.07.08-2.08 2.01-.07.07-.08.07c-1.53 1.25-3.23 2.34-4.94 3.22l-.02.02-.02.01c-3.56 1.76-7.48 2.71-11.46 2.71-3.51 0-7.06-.74-10.42-2.31l-.4-.19-.38-.37 1.77-1.77-1.04 2.27c-4.59-2.1-9.15-4.01-13.82-5.67l-.02-.01h.01c-10.18-3.69-16.56-13.44-16.55-24.01 0-1.22.07-2.48.29-3.79l2.46.41-2.47-.37a20.41 20.41 0 0 0 .23-3c0-2.61-.51-5.14-1.41-7.51v-.01l-1.15-2.45-.01-.02-.01-.01c-.89-1.62-2.01-3.14-3.3-4.49l-.03-.02c-3.16-3.38-7.48-5.62-12.5-6.24l.31-2.48-.27 2.49c-7.37-.81-14.79-1.24-22.33-1.24-7.6 0-15.08.43-22.43 1.3l-.29-2.49.42 2.47-2 .34h-.01l-.13.05-.14.03c-9.43 2.01-16.17 10.52-16.16 20.17a21.83 21.83 0 0 0 .21 3l.03.18v.3h-2.5l2.47-.37a25.01 25.01 0 0 1 .28 3.75c0 3.3-.64 6.52-1.8 9.49l.01-.01c-.7 1.8-1.59 3.52-2.65 5.07l-.01.02c-2.9 4.21-7.07 7.63-12.17 9.45l.01-.01c-4.62 1.67-9.24 3.58-13.73 5.73l-.02.01h-.02c-3.32 1.53-6.88 2.3-10.43 2.3h-.21l-8.1-1.42-.23-.04-.21-.07c-3.74-1.39-7.13-3.61-9.96-6.57l-.04-.05-1.86-2.18-.05-.06-.05-.06c-2.59-3.43-5.92-5.81-9.64-7.09l-.03-.01-.02-.01a20.87 20.87 0 0 0-5.2-1.17l-2.02-.1c-4.45 0-8.91 1.44-12.64 4.44l-.01.01c-5.81 4.64-11.37 9.58-16.69 14.9-5.38 5.37-10.38 11-14.96 16.75l-1.95-1.56 1.98 1.52c-.49.64-.93 1.39-1.41 2.29l-.01.02-.27.48-.04.07-.2.3-.93 1.97-.33.94-.02.06-.06.14-.02.09-.02.11-.03.1c-.32 1.09-.6 2-.75 2.86h0c-.15.86-.22 1.9-.28 2.97v.04l-.06.62v.01h-2.5l2.49-.21.18 2.24.29 1.89.43 2.01-2.45.51 2.42-.63c.49 1.84 1.31 3.66 2.41 5.32a24.95 24.95 0 0 0 3.07 3.75l-1.77 1.77 1.6-1.93 2.19 1.82-1.59 1.92 1.12-2.23.12.06 1.38.7v.42l1.22 1 .06.06.07.05c5.18 4.91 8.09 11.7 8.09 18.65a24.32 24.32 0 0 1-2.36 10.47l-2.26-1.07 2.28 1.04c-2.11 4.57-4.02 9.21-5.75 13.9v-.01c-1.38 3.83-3.62 7.11-6.41 9.68l-1.7-1.83 1.77 1.77c-1 .99-2.04 1.75-2.98 2.44l-.04.03-.04.03a26.09 26.09 0 0 1-14.54 4.43c-1.22 0-2.49-.07-3.79-.29l.41-2.46-.35 2.47c-1.05-.15-2.09-.22-3.1-.22-1.28 0-2.53.12-3.75.33h0-.01c-8.69 1.51-15.86 8.66-16.91 17.98v-.01c-.81 7.38-1.3 14.86-1.3 22.39 0 7.59.49 15.07 1.3 22.45h0c1 9.3 8.14 16.39 16.92 17.96 1.23.23 2.52.34 3.82.34 1.03 0 2.02-.06 2.97-.22h.02.02c1.29-.19 2.57-.29 3.85-.29a26.55 26.55 0 0 1 5.7.63c1.3.29 2.55.71 3.72 1.2l-.02-.02c1.73.7 3.43 1.58 5.01 2.61l.05.03.05.04c1.49 1.09 2.9 2.29 4.18 3.57l.06.06.05.06c2.1 2.37 3.92 5.15 5.05 8.4l-2.36.83 2.35-.87c1.73 4.7 3.64 9.33 5.75 13.91l-.01-.03c1.58 3.37 2.34 6.95 2.34 10.49 0 7.92-3.78 15.63-10.44 20.57l-1.49-2.01 1.77 1.76-.12.13-.09.08-2.28 1.89-1.6-1.92 1.77 1.77c-1.13 1.13-2.15 2.38-3.06 3.75-1.11 1.65-1.93 3.47-2.42 5.32l-.02.06-.02.05c-.61 1.95-.92 3.97-.92 6 0 4.45 1.47 8.92 4.5 12.72l.14.18-.14-.17c4.58 5.74 9.58 11.37 14.95 16.68l.02.02c5.31 5.37 10.93 10.37 16.68 14.95l-1.56 1.95 1.43-2.05 2.07 1.44-1.43 2.05 1.34-2.11c3.39 2.16 7.21 3.2 11.01 3.2 6.34 0 12.58-2.89 16.63-8.34l.11-.14.25-.26 1.77 1.77-2.01-1.49c4.94-6.66 12.65-10.44 20.57-10.44 3.54 0 7.11.76 10.48 2.34l-1.06 2.26 1.03-2.27 1.38.62-1.03 2.28.99-2.29 5.61 2.43-.97 2.3.94-2.31 7 2.72.03.01 1.91.77.07.02.08.04c8.91 4.25 14.44 13.33 14.44 23.1 0 1.22-.07 2.49-.28 3.79l-2.47-.41 2.48.28-.18 1.69-2.49-.28 2.49.23-.08 1.87c-.01 10.17 7.65 19.14 18.04 20.33h-.03c7.5.8 15.04 1.24 22.77 1.24 7.67 0 15.22-.44 22.71-1.24l.26 2.48-.47-2.45 2.56-.5.48 2.45-.56-2.43c9.18-2.12 15.76-10.47 15.75-19.96a20.67 20.67 0 0 0-.2-2.92l-.03-.17v-.2l-.21-1.57-.05-.24-.03-.15-.01-.16-.07-1.79c0-10.28 6.16-19.92 16.08-23.64l.88 2.35-1.13-2.24.25-.12.15-.08.15-.05c2.45-.85 4.78-1.78 7.2-2.77h.01l.03-.01a57.02 57.02 0 0 0 4.05-1.79l.12-.06.12-.05c.8-.29 1.7-.77 2.82-1.26l.05-.02 2.3-.89c1.3-.51 2.7-.88 4.15-1.04l.26 2.49-.4-2.47c1.17-.19 2.35-.29 3.55-.29l1.8.07-.19 2.5.12-2.5 1.25.07h.06l.69.07h.07l.06.01c1.76.28 3.5.69 5.2 1.32h-.03c4.59 1.66 8.68 4.65 11.73 8.74l-2 1.49 1.88-1.64.44.5.01.02 1.82 2.13-1.9 1.62 1.83-1.7c2.22 2.38 4.94 4.1 7.81 5.1l-.81 2.36.71-2.4 2.51.76-.72 2.39.58-2.43a20.75 20.75 0 0 0 4.78.56c4.41 0 8.82-1.42 12.54-4.4l.02-.01c5.86-4.63 11.55-9.7 16.99-15.15l-.01.02c5.39-5.46 10.46-11.09 15.09-16.94l.01-.02c2.96-3.71 4.38-8.07 4.38-12.45a19.87 19.87 0 0 0-.49-4.41l2.45-.54-2.44.57a30.13 30.13 0 0 0-.86-2.99l-.14-.41v-.49h2.5l-2.32.95c-.43-1.06-.84-2.03-1.3-2.86l-.02-.01v-.01c-.99-1.83-2.33-3.56-3.95-5.07l1.7-1.83-1.6 1.92-1.87-1.57-.36-.25-.09-.06-2.21-1.89-.04-.03-.04-.05c-2.22-2.08-4.04-4.52-5.31-7.2-1.24-2.62-2.06-5.41-2.47-8.22l-.03-.18v-.24h2.5l-2.48.29a25.15 25.15 0 0 1-.17-2.88 24.1 24.1 0 0 1 1.29-7.79l.02-.06.89-2.3.04-.11.18-.35 2.24 1.12-2.26-1.08c1.97-4.11 3.69-8.29 5.23-12.54l.01-.03.57-1.47.01-.02.69-1.71.04-.08.04-.09c.54-1.08 1.13-2.13 1.72-3.11l.01-.01.02-.03c.73-1.16 1.58-2.22 2.48-3.19l.04-.05 1.74-1.68.08-.07 1.72-1.39.06-.05.07-.05c3.73-2.63 8.16-4.28 12.86-4.7h.02.01l2.34-.09c1.13 0 2.29.07 3.46.23l-.35 2.48.31-2.48.5.06h.02l.03.01a20.52 20.52 0 0 0 3.01.22c1.24 0 2.48-.12 3.7-.34l.44 2.46-.55-2.43 1.94-.44h-.02a15.13 15.13 0 0 0 4.62-1.93l1.33 2.11-1.37-2.09 2.19-1.44.62-.41h.81v2.5l-1.6-1.91 1.48-1.24 1.36-1.37c.89-.89 1.64-1.8 2.28-2.82l2.12 1.33-2.13-1.3c.63-1.04 1.19-2.11 1.71-3.31l.19-.45.41-.41 1.76 1.78-2.32-.94c.74-1.82 1.24-3.65 1.46-5.66v-.01l2.49.29"/><path d="M2840.07 3848.14l-2.48.27-.13-1.12 2.48-.28-2.47.33-.75-5.5 2.47-.34-2.47.4-1.07-5.6-.01-.02-.06-.24-.01-.04-.01-.04c-.8-3.67-1.77-7.28-2.94-10.83l-.01-.05.01.04c-.66-2.04-1.46-4.13-2.27-6.26l2.33-.9-2.32.93c-.73-1.83-1.52-3.65-2.37-5.41l-.02-.03v-.02a72.04 72.04 0 0 0-1.95-3.94v-.02l-.02-.03c-1.77-3.53-3.77-7-6.08-10.33v-.02l-1.8-2.66-.84-1.14-.03-.04-.02-.03a46.68 46.68 0 0 0-2.13-2.84l-.06-.07-.05-.08c-.79-1.12-1.73-2.24-2.76-3.39l-.04-.04-.03-.05c-1.96-2.38-4.02-4.68-6.23-6.77l-.06-.06-.05-.05c-.86-.93-1.82-1.83-2.83-2.77l1.71-1.82-1.65 1.87-3.12-2.74 1.65-1.89-1.6 1.93-4.54-3.73 1.57-1.95-1.53 1.98c-3.68-2.82-7.54-5.46-11.53-7.85-1.22-.73-2.51-1.47-3.74-2.14l.02.01a92.93 92.93 0 0 0-4.46-2.26c-1.44-.69-2.84-1.36-4.26-1.95l-.04-.02.03.01c-2.33-.98-4.73-1.9-7.18-2.76h-.01l-.02-.01c-1.38-.5-2.68-.97-3.97-1.31l-.05-.01-.05-.02c-2.98-.91-5.98-1.64-9.07-2.32l-.04-.01-.03-.01a34.22 34.22 0 0 0-4.32-.82l-.1-.01-.1-.02c-1.5-.3-2.97-.53-4.4-.65h-.05l-.05-.01a118.57 118.57 0 0 0-14.1-.84 113.94 113.94 0 0 0-9.06.35l-.05.01h-.05c-1.43.05-2.9.23-4.4.47l-.1.02h-.1c-1.43.12-2.9.35-4.4.65l-.04.01-.05.01c-1.57.25-3.07.49-4.51.84h-.02-.02c-5.23 1.17-10.44 2.65-15.51 4.54h0l-.02.01c-1.37.5-2.67.97-3.84 1.53l-.1.05-.6.22-.88-2.34.96 2.31a88.18 88.18 0 0 0-4.33 1.95l-1.07-2.26 1.12 2.24-.5.25-.06.03-.06.02c-1.46.65-2.95 1.42-4.38 2.25l-.04.03-.05.02c-3.1 1.65-6.08 3.47-9.01 5.49l-.15.1-.41.2-1.11-2.24 1.36 2.1a61.4 61.4 0 0 0-4.03 2.89l-.01.01-.02.01c-1.25.94-2.46 1.85-3.58 2.79l-.01.01-.01.01c-1.71 1.4-3.3 2.81-4.9 4.29l-.02.02-.02.01c-1.55 1.37-3.07 2.89-4.55 4.43l-.01.02-.02.02c-1.26 1.25-2.47 2.59-3.63 3.93l-.02.02-.01.01a106.19 106.19 0 0 0-11.43 15.53v-.01c-.95 1.59-1.85 3.04-2.6 4.53l-.03.06-.03.06a52.79 52.79 0 0 0-2.63 5.2l-.02.04-.01.03c-.52 1.1-1 2.06-1.39 3.02l-.02.02-.87 2.07v.01c-.36.83-.73 1.75-1.11 2.69l-2.32-.92 2.35.86c-.44 1.19-.86 2.33-1.21 3.49l-.01.05-.52 1.49-2.36-.83 2.37.8c-.5 1.5-.98 2.93-1.32 4.36l-.02.07-.02.08c-.66 2.15-1.21 4.4-1.7 6.68v.01.01c-.3 1.3-.54 2.7-.8 4.09l-2.46-.45 2.47.41c-.43 2.6-.8 5.18-1.11 7.83l-2.48-.29 2.49.25c-.37 3.73-.56 7.53-.56 11.27v.19c0 3.67.19 7.41.56 11.08l-2.49.25 2.48-.28.13 1.13v.02c.18 1.76.43 3.59.73 5.34v.01.01c.32 1.95.62 3.81 1.08 5.6l.01.02.06.25.01.03.01.04a107.54 107.54 0 0 0 2.93 10.84v-.02a127.88 127.88 0 0 0 1.6 4.49l-2.34.87 2.33-.9c.44 1.15.87 2.31 1.33 3.33l.01.03 1 2.31v-.01c.43 1 .85 1.96 1.32 2.89l.01.03.01.01c1.35 2.83 2.75 5.5 4.38 8.16l-.01-.01 2.38 3.88-2.12 1.31 2.08-1.38.25.37-2.08 1.39 2.04-1.43 2.54 3.64.02.03.02.03c1.08 1.57 2.24 3.09 3.46 4.62l-1.95 1.56 1.92-1.6c1.27 1.53 2.51 3.06 3.75 4.42l.01.02.02.02c1.29 1.48 2.58 2.89 3.93 4.3l-1.8 1.73 1.77-1.76c6.81 6.87 14.47 12.93 22.79 17.89l-1.28 2.15 1.2-2.2 4.13 2.32c1.3.71 2.7 1.38 4.14 2.06l.04.02.04.03c1.23.64 2.54 1.24 3.85 1.77l.05.02.04.02c2.54 1.15 5.08 2.12 7.69 2.97l.08.02.08.03c1.11.45 2.28.8 3.57 1.17h-.01l4.63 1.31c1.52.43 2.93.78 4.35 1.01l.1.01.09.02c1.52.37 2.92.66 4.35.83l.1.01.09.02c1.5.3 2.97.53 4.41.65h.04l.05.01c1.57.19 3.1.37 4.66.49 3.06.24 6.14.37 9.23.37s6.18-.13 9.28-.37h.05l.05-.01c1.43-.05 2.9-.23 4.4-.47l.09-.01.1-.01c1.43-.12 2.9-.35 4.4-.65l.1-.02.1-.01c1.43-.17 2.9-.46 4.41-.83h.03l.04-.01c3.8-.8 7.51-1.77 11.21-3.05l.06-.02.05-.01c1.04-.31 1.99-.61 3-.96h-.01c5.14-1.83 10.15-4.09 15.04-6.78l.01-.01h.01c1.6-.87 3.12-1.72 4.55-2.61l.04-.02.03-.02c1.46-.85 2.9-1.76 4.27-2.71 1.45-1.01 2.85-1.98 4.16-3l.05-.03.67-.48 1.44 2.05-1.53-1.98 4.07-3.21h.01c1.28-1.04 2.55-2.12 3.74-3.25l.02-.03.03-.03c2.8-2.49 5.36-5.11 7.75-7.8l.02-.03.03-.03c1.03-1.09 1.91-2.09 2.8-3.21l.02-.04.02-.02c1.61-1.92 3.12-3.79 4.41-5.73l.04-.05.04-.06c.71-.95 1.38-1.92 2.07-2.92v-.01h.01c2.36-3.4 4.43-6.93 6.26-10.58l.02-.06.04-.06a54.51 54.51 0 0 0 2.15-4.25l.01-.01.37-.81.01-.01.01-.03c.72-1.49 1.38-3.06 1.98-4.63l.02-.04.33-.78-.01.02a43.83 43.83 0 0 0 1.42-3.98l.01-.03.83-2.47-.01.01a113.86 113.86 0 0 0 2.94-10.78l2.44.54-2.46-.41c.2-1.23.45-2.29.62-3.32v-.01c.5-2.85.93-5.67 1.23-8.48l2.49.27-2.49-.25c.37-3.73.55-7.47.55-11.27a113.69 113.69 0 0 0-.55-11.21l2.49-.24-2.48.27 2.48-.27 2.49-.25a120.58 120.58 0 0 1 .57 11.7c0 3.96-.19 7.86-.57 11.76v.02.01c-.33 2.95-.77 5.88-1.28 8.79v-.01c-.2 1.23-.45 2.29-.62 3.31l-.01.07-.02.06c-.83 3.77-1.85 7.54-3.07 11.26v.01l-.81 2.44-2.38-.79 2.4.73a56.06 56.06 0 0 1-1.58 4.41l-.33.77-2.3-.96 2.33.89a68.51 68.51 0 0 1-2.14 5.01l-2.26-1.08 2.27 1.05-.37.81v-.01c-.71 1.56-1.49 3.12-2.35 4.63l-2.18-1.23 2.24 1.12a90.25 90.25 0 0 1-6.63 11.2l.01-.01-2.19 3.09-2-1.5 2.08 1.39c-1.46 2.19-3.09 4.2-4.74 6.16l-1.91-1.6 1.96 1.55c-.99 1.25-1.99 2.38-3.09 3.54l-1.81-1.71 1.87 1.65c-2.5 2.82-5.2 5.58-8.16 8.22l-1.66-1.86 1.72 1.81c-1.31 1.25-2.68 2.42-4.03 3.51l.01-.01c-1.41 1.16-2.81 2.24-4.19 3.3l-.04.04-.68.47-1.43-2.05 1.53 1.98c-1.45 1.11-2.92 2.14-4.36 3.14-1.51 1.05-3.07 2.02-4.61 2.92l-1.26-2.15 1.32 2.11c-1.57.99-3.18 1.89-4.83 2.78l.02-.01c-5.12 2.81-10.38 5.19-15.76 7.11h-.01c-1.12.4-2.17.72-3.26 1.04l-.7-2.39.81 2.36c-3.93 1.35-7.86 2.38-11.82 3.21l-.51-2.44.58 2.43c-1.62.39-3.28.72-4.98.92l-.29-2.48.49 2.45c-1.63.33-3.29.6-4.99.73l-.2-2.49.39 2.47c-1.62.26-3.29.46-4.98.53l-.1-2.5.19 2.49c-3.22.26-6.45.39-9.67.39s-6.43-.13-9.63-.39c-1.69-.13-3.29-.32-4.85-.51l.3-2.48-.21 2.49c-1.69-.13-3.35-.4-4.98-.73l.49-2.45-.3 2.48c-1.7-.2-3.3-.54-4.91-.92l.58-2.43-.4 2.46c-1.7-.27-3.3-.67-4.91-1.12l-4.63-1.32h-.01 0c-1.34-.38-2.68-.78-4.06-1.33l.93-2.33-.78 2.38c-2.77-.9-5.48-1.93-8.2-3.16l1.03-2.28-.95 2.31a48.5 48.5 0 0 1-4.28-1.98l1.16-2.21-1.08 2.26c-1.44-.69-2.92-1.4-4.38-2.19l-4.13-2.32-.04-.02-.04-.03c-8.7-5.18-16.69-11.51-23.78-18.66l-.02-.02-.01-.01a144.05 144.05 0 0 1-4.08-4.47l1.88-1.64-1.85 1.68c-1.39-1.52-2.66-3.11-3.89-4.59l-.01-.02-.02-.02c-1.28-1.59-2.5-3.21-3.67-4.89l2.05-1.43-2.01 1.49c-.93-1.27-1.76-2.54-2.6-3.75l-.02-.02-.26-.4-.03-.03-.02-.04-2.38-3.88v-.01c-1.75-2.85-3.23-5.69-4.63-8.62l2.25-1.07-2.23 1.12c-.54-1.08-1-2.13-1.44-3.13l-1-2.32 2.29-.99-2.28 1.01c-.55-1.23-1-2.45-1.42-3.55l-.01-.02v-.01c-.58-1.52-1.15-3.11-1.66-4.66l-.01-.03v.02a114.68 114.68 0 0 1-3.07-11.33l2.44-.53-2.42.61-.06-.25v.02c-.54-2.09-.86-4.11-1.17-6.05l2.47-.4-2.47.43c-.32-1.88-.58-3.81-.77-5.68v.02l-.13-1.12v-.02-.01c-.38-3.84-.58-7.74-.58-11.58v-.19c0-3.9.2-7.86.58-11.76v-.03-.02a161.5 161.5 0 0 1 1.15-8.07v-.02l.01-.01c.24-1.37.5-2.84.83-4.3l2.44.55-2.44-.53c.51-2.36 1.08-4.74 1.8-7.09l2.39.73-2.43-.58c.41-1.7.94-3.27 1.44-4.78v-.01l.51-1.45 2.36.82-2.4-.72c.41-1.35.87-2.59 1.3-3.78l.02-.03.01-.03 1.15-2.82v.01l.87-2.06 2.3.97-2.31-.95c.49-1.17 1.01-2.21 1.49-3.24l2.26 1.07-2.29-1c.86-1.98 1.84-3.88 2.88-5.69l2.17 1.24-2.24-1.12c.89-1.76 1.86-3.32 2.79-4.86v-.02.01c3.46-5.69 7.43-11.14 11.98-16.26l1.87 1.66-1.9-1.64a79.38 79.38 0 0 1 3.88-4.2l1.77 1.77-1.8-1.73c1.52-1.59 3.13-3.21 4.84-4.71l1.65 1.87-1.69-1.84c1.65-1.52 3.32-3 5.11-4.47l1.59 1.93-1.61-1.92c1.26-1.06 2.55-2.02 3.81-2.96l1.49 2-1.52-1.98c1.41-1.09 2.84-2.14 4.35-3.12l.12-.08.39-.19 1.11 2.24-1.42-2.06c3.08-2.12 6.23-4.05 9.51-5.78l1.17 2.21-1.26-2.16c1.58-.92 3.22-1.78 4.89-2.51l1.01 2.29-1.13-2.24.51-.25.01-.01.03-.01c1.46-.7 3-1.41 4.56-2.06l.04-.01.55-.21.87 2.35-1.07-2.26c1.46-.7 2.91-1.22 4.28-1.72h-.01c5.32-1.98 10.75-3.51 16.16-4.72l.55 2.43-.59-2.43c1.69-.4 3.32-.66 4.89-.91l.39 2.47-.49-2.45c1.63-.33 3.29-.6 4.99-.73l.2 2.49-.4-2.47c1.63-.26 3.29-.46 4.99-.53l.1 2.5-.2-2.49c3.15-.25 6.3-.37 9.46-.37 4.92 0 9.83.29 14.7.88l-.3 2.48.2-2.49c1.7.13 3.36.4 4.99.73l-.49 2.45.29-2.48a38.54 38.54 0 0 1 4.94.93l-.6 2.42.53-2.44c3.17.7 6.31 1.47 9.46 2.43l-.73 2.39.63-2.41c1.59.41 3.04.94 4.42 1.44l-.86 2.35.83-2.36c2.55.89 5.04 1.85 7.47 2.87h-.01c1.58.66 3.06 1.37 4.5 2.06 1.59.76 3.13 1.53 4.68 2.37l.01.01a110.72 110.72 0 0 1 3.9 2.23c4.16 2.5 8.18 5.24 12.01 8.18l.01.01.03.02 4.6 3.78.03.02.02.02 3.14 2.76.03.03.02.02c1.01.94 2.05 1.92 3.06 3l-1.82 1.71 1.71-1.82c2.42 2.29 4.62 4.75 6.67 7.24l-1.94 1.59 1.87-1.67c1.09 1.23 2.16 2.49 3.12 3.87l-2.05 1.43 1.94-1.58c.86 1.05 1.65 2.11 2.38 3.17l-2.06 1.41 2.01-1.48.88 1.19.03.04 1.84 2.74-2.07 1.39 2.06-1.42c2.45 3.55 4.57 7.22 6.44 10.95l-2.24 1.12 2.21-1.16c.71 1.34 1.42 2.76 2.07 4.19l-2.28 1.04 2.25-1.09c.91 1.87 1.75 3.8 2.51 5.73l.01.01.01.02c.81 2.13 1.64 4.3 2.36 6.51l.01.04-.01-.05c1.21 3.72 2.24 7.49 3.07 11.33l-2.45.53 2.43-.61.06.25v-.01c.53 2.08.86 4.1 1.17 6.04l.01.03v.03l.75 5.52.01.04.12 1.14.01.01v.02zm98.65 34.17l2.48.28c-.27 2.5-.91 4.8-1.79 6.98l-.19.48-.43.42-1.76-1.77 2.3.98c-.62 1.43-1.3 2.73-2.05 3.95l-.01.02-.01.01a20.97 20.97 0 0 1-2.97 3.69l-1.44 1.44-.08.08-1.65 1.38-.69.59h-.23l-1.56 1.03-.03.01-.02.01c-1.92 1.21-4 2.07-6.14 2.57l-.01.01-1.95.44-.05.01-.06.01a25.83 25.83 0 0 1-4.58.41 26.21 26.21 0 0 1-3.73-.27l.36-2.48-.31 2.48-.5-.06h-.02-.02c-.89-.13-1.83-.19-2.76-.19l-1.97.08-.18-2.5.22 2.5a21.28 21.28 0 0 0-10.42 3.81l-1.44-2.05 1.57 1.95-1.54 1.24-1.62 1.55-1.73-1.8 1.83 1.7-1.9 2.44-2.12-1.32 2.14 1.29c-.54.89-1.07 1.84-1.53 2.77l-2.24-1.12 2.32.95-.69 1.67-.55 1.42-2.33-.91 2.35.85c-1.59 4.39-3.37 8.72-5.42 13v.01l-.09.17-.83 2.15-2.33-.91 2.36.81a19.34 19.34 0 0 0-1.02 6.18l.14 2.3.02.15v.2h-2.5l2.47-.36a24.16 24.16 0 0 0 2.04 6.8c.98 2.08 2.42 4.02 4.21 5.7l-1.71 1.82 1.62-1.9 2.05 1.75.35.25.08.05 2.01 1.69.05.05.05.04a25.05 25.05 0 0 1 4.93 6.33l-2.19 1.19 2.18-1.22c.66 1.18 1.13 2.34 1.57 3.4l.19.46v.56h-2.5l2.35-.84c.42 1.18.75 2.38 1.02 3.52v.01l.01.02a25.39 25.39 0 0 1 .6 5.5c.01 5.46-1.79 10.96-5.47 15.57l.01-.01c-4.77 6.03-9.96 11.79-15.46 17.36h-.01c-5.58 5.58-11.41 10.78-17.43 15.54l.01-.02a24.87 24.87 0 0 1-15.67 5.5 25.32 25.32 0 0 1-5.94-.7l-.07-.01-2.57-.77-.05-.02-.05-.02a24.24 24.24 0 0 1-9.84-6.41l-.03-.04-1.86-2.17 1.91-1.63-1.89 1.65-.43-.5-.07-.08-.06-.07c-2.46-3.3-5.74-5.69-9.42-7.03l-.03-.01c-1.31-.49-2.7-.83-4.19-1.06l.38-2.47-.26 2.48-.56-.05-1.19-.06h-.03-.03l-1.42-.06c-.93 0-1.84.07-2.76.22l-.06.01-.07.01c-.93.09-1.91.35-2.86.72l-2.25.87-.91-2.33 1 2.29c-.88.39-1.86.91-3.06 1.37l-.88-2.34 1.12 2.23a53.09 53.09 0 0 1-4.46 1.97l-.92-2.32.95 2.31c-2.46 1.01-4.88 1.97-7.44 2.86l-.83-2.36 1.12 2.24-.25.12-.12.06-.13.05c-7.83 2.91-12.82 10.64-12.82 18.95l.05 1.44-2.5.18 2.45-.5.07.32.01.07.26 1.89.03.17v.36h-2.5l2.47-.35c.17 1.22.26 2.43.26 3.63-.01 11.8-8.14 22.16-19.64 24.82l-.04.01-2.61.51-.1.02-.11.01c-7.65.82-15.38 1.27-23.24 1.27-7.91 0-15.64-.45-23.3-1.27h-.01-.01c-12.98-1.52-22.46-12.62-22.46-25.3l.1-2.32.01-.02.19-1.72v-.07l.02-.07c.15-.94.21-1.93.21-2.96 0-7.89-4.48-15.21-11.59-18.59l1.07-2.26-.93 2.32-1.87-.75.92-2.32-.86 2.35a231.08 231.08 0 0 1-7.15-2.79l-.02-.01h0l-5.67-2.45-.02-.01-1.39-.63-.02-.02h-.01a19.53 19.53 0 0 0-8.36-1.87c-6.33 0-12.57 3.04-16.55 8.42l-.11.15-.26.26-1.76-1.77 2 1.49c-5.02 6.76-12.79 10.35-20.64 10.35a25.49 25.49 0 0 1-13.69-3.97l-.05-.03-2.1-1.47-.07-.05-.06-.05c-5.89-4.69-11.66-9.82-17.12-15.34l1.78-1.76-1.76 1.78a193.58 193.58 0 0 1-15.35-17.13v.01c-3.74-4.7-5.59-10.3-5.59-15.84 0-2.54.39-5.08 1.16-7.51l2.38.76-2.41-.64c.63-2.41 1.69-4.72 3.09-6.82a28.8 28.8 0 0 1 3.69-4.51l.08-.09 2.19-1.81.04-.04.13-.14.15-.11c5.38-3.98 8.43-10.22 8.42-16.55a19.62 19.62 0 0 0-1.86-8.35l-.01-.02h0c-2.16-4.69-4.13-9.45-5.9-14.27l-.01-.01-.01-.03c-.87-2.51-2.3-4.73-4.08-6.74l1.88-1.65-1.77 1.76c-1.1-1.09-2.32-2.14-3.59-3.06l1.48-2.02-1.37 2.09a24.59 24.59 0 0 0-4.13-2.15h-.02l-.01-.01c-.95-.39-1.95-.72-2.9-.93-1.53-.34-3.07-.52-4.62-.52-1.03 0-2.06.08-3.11.24l-.37-2.48.41 2.47c-1.3.22-2.57.28-3.79.28-1.58 0-3.17-.13-4.7-.41h.01c-10.88-1.94-19.76-10.74-21.02-22.35h0c-.82-7.52-1.33-15.18-1.33-22.99 0-7.75.51-15.41 1.33-22.93v-.01c1.33-11.59 10.19-20.46 21.03-22.34l-.02.01c1.51-.27 3.05-.42 4.63-.42 1.25 0 2.52.09 3.8.28h.03l.03.01c.95.15 1.94.21 2.97.21 4.25 0 8.34-1.29 11.75-3.58l1.4 2.08-1.48-2.02c.94-.69 1.77-1.31 2.4-1.94l.03-.04.04-.03c2.22-2.05 3.99-4.65 5.11-7.72l.02-.07-.02.06c1.77-4.82 3.74-9.57 5.9-14.26l.01-.03h0c1.27-2.68 1.87-5.51 1.87-8.33.01-5.55-2.34-11.05-6.53-15.01l1.72-1.82-1.59 1.93-2.13-1.75-.91-.75v-1.24h2.5l-1.11 2.24-.12-.06-.26-.13-2.42-2-.09-.08-.08-.08c-1.37-1.37-2.6-2.88-3.69-4.51-1.4-2.11-2.46-4.42-3.09-6.82l-.02-.06-.45-2.13-.02-.07-.32-2.14-.01-.08-.2-2.41-.01-.1v-.23-.11l.08-.8 2.49.23-2.5-.15c.06-1.06.13-2.28.35-3.54.22-1.27.57-2.37.87-3.4l2.4.7-2.45-.49.06-.31.05-.23.19-.47.36-1.02.04-.12 1.12-2.37.08-.16.3-.46.21-.37 2.17 1.24-2.2-1.17c.52-.98 1.08-1.99 1.85-2.98l.01-.01.01-.02a202.95 202.95 0 0 1 15.34-17.17 201.95 201.95 0 0 1 17.11-15.28l-.01.01c4.64-3.74 10.25-5.55 15.77-5.55l2.5.13h-.01c2.22.2 4.37.69 6.45 1.45l-.86 2.35.81-2.36c4.67 1.6 8.85 4.6 12.01 8.8l-1.99 1.51 1.9-1.62 1.82 2.13-1.91 1.62 1.81-1.73c2.31 2.42 5.05 4.21 8.08 5.33l-.87 2.34.43-2.46 7.88 1.38-.42 2.46v-2.5c2.83 0 5.66-.61 8.34-1.84l1.04 2.27-1.08-2.25c4.66-2.23 9.43-4.2 14.2-5.92h0c4.04-1.44 7.38-4.16 9.74-7.58l-.01.01c.82-1.2 1.55-2.6 2.11-4.06l.01-.01c.93-2.4 1.46-5.02 1.46-7.67-.01-.99-.08-2-.23-3l-.03-.18v-.32h2.5l-2.47.36a26.07 26.07 0 0 1-.27-3.72c0-11.98 8.32-22.53 20.12-25.06l.52 2.44-.79-2.37.19-.06.18-.06 2.38-.41.06-.01.07-.01a198.59 198.59 0 0 1 23.01-1.33c7.74 0 15.34.45 22.87 1.27h.01.03c6.12.76 11.57 3.53 15.54 7.79l-1.83 1.71 1.81-1.74c1.58 1.66 2.96 3.52 4.07 5.53l-2.19 1.21 2.17-1.24a21.03 21.03 0 0 1 1.49 3.18v-.01c1.09 2.89 1.73 6.02 1.73 9.28a25.11 25.11 0 0 1-.28 3.75l-.01.02v.02c-.16.95-.22 1.93-.22 2.97.01 8.58 5.15 16.37 13.25 19.3h-.01c4.84 1.72 9.54 3.69 14.23 5.84l.4.19.38.37-1.77 1.77 1.06-2.26c2.69 1.25 5.51 1.84 8.32 1.84 3.18 0 6.34-.76 9.23-2.19l1.11 2.24-1.15-2.22c1.42-.74 2.85-1.66 4.07-2.66l1.59 1.94-1.74-1.8 1.93-1.87 1.75-1.99 1.88 1.65-2.24-1.12.07-.13.09-.19.13-.18c5.08-6.81 12.84-10.4 20.68-10.39a25.54 25.54 0 0 1 13.57 3.88l.06.04 2.19 1.54.07.05.06.05a229.5 229.5 0 0 1 17.15 15.32h.01l.01.02a225.45 225.45 0 0 1 15.31 17.15l.02.02c3.72 4.71 5.54 10.29 5.54 15.82 0 2.58-.4 5.16-1.17 7.63-.34 1.09-.75 2.18-1.22 3.26-.51 1.16-1.14 2.28-1.84 3.33-1.09 1.63-2.32 3.14-3.69 4.51l-.09.08-2.28 1.89-.22.19-.39.19-1.11-2.24h2.5v.06 1.18l-3.04 2.5-1.59-1.93 1.72 1.82c-4.18 3.96-6.5 9.46-6.5 15 0 2.83.6 5.67 1.85 8.35v-.01c2.23 4.71 4.2 9.48 5.92 14.32l-.01-.02c2.92 8.08 10.76 13.25 19.28 13.25a20.96 20.96 0 0 0 3.05-.22c1.28-.19 2.54-.27 3.79-.27a25.98 25.98 0 0 1 13.45 3.73l.02.02.02.01c1.31.82 2.48 1.72 3.56 2.67l.05.04 1.54 1.48.09.08 1.26 1.46.02.03.02.02c3 3.63 5.01 8.21 5.56 13.21v-.02a196.13 196.13 0 0 1 1.33 22.95c0 7.8-.44 15.47-1.33 23.01v-.01l-2.48-.28-2.48-.29c.86-7.35 1.29-14.82 1.29-22.43 0-7.54-.43-15.02-1.29-22.37l-.01-.01c-.44-4.02-2.06-7.7-4.45-10.58l1.93-1.59-1.89 1.63-1.11-1.28-1.42-1.36 1.73-1.81-1.65 1.88a24.27 24.27 0 0 0-2.94-2.21l1.33-2.11-1.29 2.14a20.96 20.96 0 0 0-10.86-3.01c-1.01 0-2.04.07-3.08.22-1.25.18-2.51.27-3.76.27-10.52 0-20.29-6.38-23.98-16.55v-.01a153.1 153.1 0 0 0-5.73-13.85v-.01c-1.58-3.36-2.33-6.93-2.33-10.47 0-6.93 2.88-13.72 8.06-18.63l.07-.06 2.19-1.81 1.59 1.93h-2.5v-.06-1.55l1.26-.62 1.96-1.63 1.6 1.92-1.77-1.77a24.95 24.95 0 0 0 3.07-3.75l1.41-2.55a27.41 27.41 0 0 0 1.04-2.75c.62-1.99.94-4.07.94-6.14-.01-4.44-1.44-8.9-4.46-12.72l.01.02a219.8 219.8 0 0 0-14.98-16.78l1.78-1.76-1.76 1.78a221.82 221.82 0 0 0-16.77-14.98l1.57-1.95-1.44 2.05-2.13-1.5 1.44-2.05-1.32 2.12c-3.38-2.1-7.17-3.12-10.93-3.12a20.7 20.7 0 0 0-16.67 8.38l-2-1.49 2.23 1.12-.06.13-.15.28-2.02 2.31-.07.07-2.07 2.01-.08.08-.08.06c-1.53 1.26-3.23 2.34-4.94 3.23l-.02.01-.02.01c-3.56 1.76-7.48 2.71-11.45 2.71a24.56 24.56 0 0 1-10.43-2.31l-.4-.18-.37-.37 1.76-1.78-1.04 2.27c-4.58-2.1-9.15-4.01-13.82-5.67l-.01-.01c-10.18-3.69-16.55-13.43-16.55-24 0-1.22.07-2.49.29-3.79l2.46.41-2.47-.38a20.41 20.41 0 0 0 .23-3c0-2.6-.51-5.13-1.41-7.5v-.02l-1.15-2.45-.01-.01v-.02c-.9-1.62-2.02-3.14-3.31-4.48l-.02-.02-.01-.01c-3.16-3.38-7.48-5.61-12.5-6.23l.31-2.49-.27 2.49c-7.37-.81-14.78-1.24-22.33-1.24-7.6 0-15.08.43-22.43 1.3l-.29-2.48.42 2.46-2 .34v.01l-.14.04-.13.03c-9.44 2.01-16.17 10.52-16.17 20.17 0 .99.07 1.99.22 3l.02.18v.31h-2.5l2.47-.38c.19 1.26.29 2.51.28 3.75 0 3.31-.64 6.53-1.8 9.49l.01-.01c-.7 1.8-1.59 3.53-2.65 5.08v.01c-2.91 4.22-7.08 7.63-12.18 9.45h.01c-4.62 1.66-9.24 3.57-13.73 5.72l-.01.01-.02.01c-3.33 1.52-6.88 2.29-10.43 2.29h-.22l-8.1-1.41-.23-.04-.21-.08c-3.73-1.38-7.13-3.6-9.96-6.57l-.04-.05-1.86-2.18-.05-.06-.05-.06c-2.59-3.43-5.92-5.81-9.64-7.09h-.03l-.02-.01c-1.68-.62-3.4-1.01-5.19-1.18h-.02 0l-2.01-.1c-4.44.01-8.91 1.45-12.63 4.45h-.01a200.64 200.64 0 0 0-16.7 14.9c-5.37 5.38-10.38 11.01-14.96 16.75l-1.95-1.55 1.98 1.52c-.49.64-.92 1.38-1.4 2.28l-.02.03-.27.47-.04.08-.2.29-.93 1.97-.33.95-.02.05-.06.14-.02.09-.02.11-.03.11c-.32 1.09-.6 2-.75 2.86s-.22 1.9-.28 2.96v.04l-.06.62v.01h-2.5l2.5-.2.18 2.23.28 1.91.43 1.99-2.45.52 2.42-.64c.49 1.85 1.31 3.67 2.42 5.32.91 1.37 1.93 2.62 3.06 3.75l-1.76 1.77 1.59-1.92 2.19 1.81-1.59 1.93 1.11-2.24.12.06 1.39.69v.43l1.22 1 .07.06.06.06c5.18 4.91 8.09 11.69 8.09 18.64a24.32 24.32 0 0 1-2.36 10.47l-2.25-1.07 2.27 1.04c-2.1 4.58-4.02 9.21-5.75 13.91v-.01c-1.38 3.82-3.62 7.1-6.41 9.68l-1.69-1.84 1.76 1.77c-.99 1-2.04 1.75-2.98 2.44l-.04.03-.04.03a26.09 26.09 0 0 1-14.54 4.43c-1.22 0-2.49-.07-3.79-.28l.41-2.47-.35 2.48c-1.05-.15-2.08-.23-3.1-.23-1.28 0-2.53.12-3.74.34h-.02 0c-8.69 1.5-15.86 8.66-16.91 17.97v-.01c-.8 7.38-1.3 14.86-1.3 22.39 0 7.59.5 15.07 1.3 22.45h0c1 9.3 8.14 16.4 16.92 17.97h.01c1.22.22 2.51.33 3.81.33 1.04 0 2.02-.05 2.97-.21l.02-.01h.02a26.47 26.47 0 0 1 3.85-.29 25.94 25.94 0 0 1 5.7.64c1.3.28 2.55.71 3.73 1.19l-.03-.01c1.73.69 3.43 1.57 5.01 2.6l.05.04.06.04a35.67 35.67 0 0 1 4.17 3.57l.06.05.05.06c2.1 2.38 3.93 5.16 5.06 8.41l-2.37.82 2.35-.86a194.58 194.58 0 0 0 5.75 13.9l-.01-.02c1.59 3.37 2.34 6.95 2.34 10.48 0 7.93-3.78 15.63-10.44 20.57l-1.49-2.01 1.77 1.77-.12.12-.09.09-2.28 1.89-1.59-1.93 1.76 1.77a24.78 24.78 0 0 0-3.06 3.75 17.88 17.88 0 0 0-2.42 5.33l-.02.06-.01.05c-.62 1.94-.93 3.96-.93 6 .01 4.44 1.47 8.92 4.5 12.72h0c4.58 5.75 9.58 11.37 14.95 16.68l.01.01.01.01c5.31 5.37 10.94 10.38 16.68 14.95l-1.55 1.96 1.43-2.05 2.06 1.43-1.43 2.05 1.34-2.1c3.39 2.15 7.21 3.19 11.01 3.19 6.34 0 12.58-2.89 16.63-8.34l.11-.15.26-.25 1.76 1.77-2.01-1.49c4.94-6.66 12.65-10.44 20.57-10.44a24.54 24.54 0 0 1 10.49 2.35l-1.07 2.26 1.04-2.28 1.37.63-1.03 2.27.99-2.29 5.61 2.43-.97 2.31.94-2.32 7 2.72.03.02 1.91.76.08.03.07.03c8.91 4.25 14.44 13.34 14.44 23.11 0 1.21-.06 2.48-.28 3.78l-2.47-.41 2.49.28-.19 1.69-2.49-.27 2.49.23-.08 1.86c-.01 10.17 7.65 19.14 18.04 20.34l-.02-.01a210.87 210.87 0 0 0 22.76 1.24c7.67 0 15.22-.43 22.71-1.24l.27 2.49-.48-2.46 2.56-.5.48 2.46-.56-2.44c9.19-2.11 15.76-10.46 15.76-19.95 0-.97-.07-1.94-.21-2.93l-.02-.17v-.19l-.22-1.57-.05-.24-.03-.16-.01-.16-.06-1.79c0-10.28 6.16-19.92 16.08-23.63l.87 2.34-1.12-2.24.25-.12.14-.07.15-.06c2.45-.85 4.78-1.77 7.21-2.77l.01-.01h.02a47.73 47.73 0 0 0 4.05-1.79l.12-.06.12-.04c.8-.3 1.7-.77 2.82-1.27l.05-.02 2.3-.89c1.31-.51 2.7-.88 4.15-1.04l.26 2.49-.39-2.47c1.17-.19 2.35-.28 3.54-.28l1.8.07-.19 2.49.12-2.49 1.25.06h.07l.69.07.06.01.07.01c1.76.27 3.49.68 5.19 1.32l-.03-.01c4.59 1.66 8.69 4.65 11.73 8.74l-2 1.49 1.88-1.64.44.5.02.02 1.81 2.13-1.9 1.62 1.83-1.7c2.22 2.39 4.94 4.11 7.82 5.1l-.82 2.36.72-2.39 2.5.75-.72 2.39.58-2.43c1.57.37 3.17.56 4.78.56 4.42 0 8.83-1.41 12.54-4.39l.02-.02h0c5.87-4.63 11.55-9.7 16.99-15.14l-.01.01c5.4-5.45 10.47-11.08 15.09-16.94l.01-.01h0c2.96-3.72 4.38-8.08 4.38-12.45a20.47 20.47 0 0 0-.48-4.41l2.44-.55-2.44.57c-.23-.99-.52-2.04-.86-2.99l-.14-.4v-.5h2.5l-2.32.96c-.43-1.07-.84-2.04-1.3-2.86l-.01-.02-.01-.01c-.99-1.82-2.33-3.55-3.95-5.06l1.7-1.83-1.6 1.91-1.87-1.56-.36-.26-.09-.06-2.21-1.88-.04-.04-.04-.04c-2.22-2.08-4.04-4.52-5.31-7.21a29 29 0 0 1-2.47-8.21l-.02-.18v-.25h2.5l-2.49.29a25.02 25.02 0 0 1-.17-2.88 24.1 24.1 0 0 1 1.29-7.79l.02-.05.89-2.3.05-.11.17-.36 2.24 1.12-2.26-1.08c1.97-4.11 3.69-8.29 5.23-12.54l.01-.03.57-1.47.01-.02.7-1.7.03-.09.05-.09c.53-1.07 1.13-2.12 1.71-3.11l.02-.02.01-.01c.73-1.17 1.58-2.23 2.48-3.2l.05-.05 1.74-1.67.07-.08 1.72-1.38.06-.06.07-.04c3.73-2.63 8.16-4.29 12.86-4.71h.02.02l2.33-.09c1.13 0 2.29.07 3.46.24l-.35 2.47.31-2.48.5.06.02.01h.03a20.62 20.62 0 0 0 3.01.22 20.78 20.78 0 0 0 3.7-.33l.44 2.46-.55-2.44 1.94-.44h-.02c1.61-.37 3.17-1.01 4.62-1.93l1.33 2.12-1.37-2.09 2.19-1.44.63-.41h.81v2.5l-1.61-1.92 1.48-1.24 1.36-1.37c.9-.89 1.64-1.8 2.29-2.82l2.11 1.34-2.13-1.31c.63-1.03 1.2-2.11 1.71-3.31l.19-.44.41-.41 1.76 1.77-2.32-.94c.74-1.82 1.24-3.64 1.46-5.65l.01-.02 2.48.29"/></g><path d="M5662.98 1489.42h593.94V793.609h-593.94v695.811" class="B"/><path d="M5662.98 1489.42h593.94v-206.36h-593.94v206.36m0-244.72h593.94v-206.36h-593.94v206.36m0-244.731h593.94v-206.36h-593.94v206.36" class="D"/><path d="M5717.11 760h-54.13v33.609h54.13V760m539.81 0h-54.13v33.609h54.13V760" fill="#318784"/><path d="M5717.11 1306.26h-20.12v155.04h20.12v-155.04m40.88 0h-20.12v155.04h20.12v-155.04m40.88 0h-20.12v155.04h20.12v-155.04m40.88 0h-20.12v155.04h20.12v-155.04" class="B"/><path d="M6223.58 1306.26h-357.62v155.04h357.62v-155.04" class="C"/><g class="B"><use xlink:href="#B"/><use xlink:href="#B" x="40.88"/><use xlink:href="#B" x="81.76"/><use xlink:href="#B" x="122.64"/><use xlink:href="#B" x="163.52"/><use xlink:href="#B" x="204.4"/><path d="M5962.38 1064h-20.11v155.04h20.11V1064"/></g><path d="M6223.58 1064h-236.19v155.04h236.19V1064" class="C"/><g class="B"><use xlink:href="#C"/><use xlink:href="#C" x="40.88"/><use xlink:href="#C" x="81.76"/><use xlink:href="#C" x="122.64"/><use xlink:href="#C" x="424.71"/><use xlink:href="#C" x="465.59"/><use xlink:href="#C" x="506.47"/></g><path d="M6097.31 821.73h-231.35v155.04h231.35V821.73m-745.58 2084.14h25v10h-25zm75.97 0h50.973v10H5427.7zm101.94 0h50.969v10h-50.969zm101.94 0h50.957v10h-50.957zm101.93 0h50.969v10h-50.969zm101.94 0h50.973v10h-50.973zm101.93 0h20v-20h10v30h-30v-10m20-121.59h10v50.801h-10zm0-101.58h10v50.789h-10zm0-101.59h10v50.789h-10zm0-101.59h10v50.789h-10zm0-101.59h10v50.789h-10zm0-101.59h10v50.789h-10zm0-101.59h10v50.801h-10zm0-101.59h10v50.801h-10zm0-101.59h10v50.801h-10zm0-101.59h10v50.801h-10zm0-101.58h10v50.793h-10zm0-101.59h10v50.793h-10zm0-101.59h10v50.793h-10zm0-75.8h10v25h-10z" class="C"/><g class="B"><path d="M3960.7 868.879h-621.76v587.591h621.76V868.879"/><path d="M4646.45 761.102H2653.18v73.168c0 40.441 32.78 73.23 73.22 73.23h1846.83c40.44 0 73.22-32.789 73.22-73.23v-73.168m631.06 471.568H2022.13c-41 0-74.23 33.24-74.23 74.23v2239.6c0 41 33.23 74.23 74.22 74.23h3255.39c40.99 0 74.22-33.23 74.22-74.23V1306.9c0-40.99-33.23-74.23-74.22-74.23"/></g><path d="M5246.28 3505.12V1551.8c0-14.52-11.74-26.26-26.27-26.26H2069.23c-14.53 0-26.27 11.74-26.27 26.26v1953.32c0 14.53 11.74 26.36 26.27 26.36h3150.78c14.53 0 26.27-11.83 26.27-26.36M5131.77 1374.5c0-35.17-28.51-63.68-63.68-63.68s-63.68 28.51-63.68 63.68 28.51 63.68 63.68 63.68 63.68-28.51 63.68-63.68" class="C"/><g clip-path="url(#A)" class="D"><path d="M2935.32 1970.72h2241.39v1506.6H2935.32z"/></g><path d="M4802.06 3531.48V1772.04c0-87.65-71.1-158.66-158.65-158.66H2359.12c-87.55 0-158.66 71.01-158.66 158.66v1759.44h2601.6" class="D"/><path d="M4814.72 1711.52H2368.89c-61.55 0-111.45 49.89-111.45 111.45v1925.17c0 61.55 49.9 111.45 111.45 111.45h2445.83c61.55 0 111.45-49.9 111.45-111.45V1822.97c0-61.56-49.9-111.45-111.45-111.45" class="E"/><path d="M4814.72 3859.59H2368.89c-61.55 0-111.45-49.9-111.45-111.45v-97.54h2668.73v97.54c0 61.55-49.9 111.45-111.45 111.45" class="B"/><path d="M4599.03 3751.27c0-17.75-14.39-32.14-32.14-32.14s-32.13 14.39-32.13 32.14 14.38 32.13 32.13 32.13 32.14-14.38 32.14-32.13m130.97 0c0-17.75-14.39-32.14-32.13-32.14-17.75 0-32.14 14.39-32.14 32.14s14.39 32.13 32.14 32.13c17.74 0 32.13-14.38 32.13-32.13m130.98 0c0-17.75-14.39-32.14-32.14-32.14-17.74 0-32.13 14.39-32.13 32.14s14.39 32.13 32.13 32.13c17.75 0 32.14-14.38 32.14-32.13" class="E"/><path d="M4810.79 3484.94h-822.62v44.9h822.62v-44.9" class="H"/><g class="C"><path d="M4805.79 1859.84v-20h-20v-10h30v30h-10m-69.22-20h-49.211v-10h49.211zm-98.42 0h-49.207v-10h49.207zm-98.43 0h-49.207v-10h49.207zm-98.42 0h-49.211v-10h49.211zm-98.43 0h-49.211v-10h49.211zm-98.42 0h-49.219v-10h49.219zm-98.43 0h-49.211v-10h49.211zm-98.42 0h-49.223v-10h49.223zm-98.43 0h-49.211v-10h49.211zm-98.42 0h-49.219v-10h49.219zm-98.43 0h-49.211v-10h49.211zm-98.42 0h-49.219v-10h49.219zm-98.43 0h-49.207v-10h49.207zm-98.43 0h-49.211v-10h49.211zm-98.42 0h-49.211v-10h49.211zm-98.43 0h-49.211v-10h49.211zm-98.42 0h-49.211v-10h49.211zm-98.43 0h-49.211v-10h49.211zm-98.42 0h-49.211v-10h49.211zm-98.43 0h-49.207v-10h49.207zm-98.42 0h-49.211v-10h49.211zm-98.43 0h-49.211v-10h49.211zm-98.42 0h-49.207v-10h49.207zm-98.43 0h-49.207v-10h49.207zm-98.42 0h-20v20h-10v-30h30v10m-20 123.51h-10v-51.762h10zm0 103.5h-10v-51.75h10zm0 103.5h-10v-51.75h10zm0 103.5h-10v-51.75h10zm0 103.51h-10v-51.75h10zm0 103.5h-10v-51.75h10zm0 103.5h-10v-51.75h10z"/><path d="M2354.37 2636.11v20h20v10h-30v-30h10m69.21 20h49.207v10h-49.207zm98.42 0h49.219v10H2522zm98.43 0h49.211v10h-49.211zm98.42 0h49.219v10h-49.219zm98.43 0h49.207v10h-49.207zm98.43 0h49.211v10h-49.211zm98.42 0h49.211v10h-49.211zm98.43 0h49.211v10h-49.211zm98.42 0h49.211v10h-49.211zm98.43 0h49.211v10h-49.211zm98.42 0h49.211v10h-49.211zm98.43 0h49.207v10h-49.207zm98.42 0h49.219v10h-49.219zm98.43 0h49.211v10h-49.211zm98.42 0h49.219v10h-49.219zm98.43 0h49.211v10h-49.211zm98.42 0h49.223v10h-49.223zm98.43 0h49.211v10h-49.211zm98.42 0h49.219v10h-49.219zm98.43 0h49.211v10h-49.211zm98.42 0h49.219v10h-49.219zm98.43 0h49.207v10h-49.207zm98.42 0h49.219v10h-49.219zm98.43 0h49.211v10h-49.211zm98.43 0h20v-20h10v30h-30v-10m20-123.5h10v51.75h-10zm0-103.5h10v51.75h-10zm0-103.5h10v51.75h-10zm0-103.51h10v51.75h-10zm0-103.5h10v51.75h-10zm0-103.5h10v51.75h-10zm0-103.5h10v51.75h-10z"/></g><g class="H"><path d="M4810.79 3385.52h-822.62v44.9h822.62v-44.9"/><use xlink:href="#D"/><use xlink:href="#D" y="-99.42"/><use xlink:href="#D" y="-198.84"/><use xlink:href="#D" y="-298.26"/><use xlink:href="#D" y="-397.68"/><path d="M4336.14 2789h-942.89v44.9h942.89V2789"/></g><g class="C"><path d="M3313.6 2814v-20h-20v-10h30v30h-10m-68.04-20h-48.047v-10h48.047zm-96.09 0h-48.047v-10h48.047zm-96.09 0h-48.039v-10h48.039zm-96.09 0h-48.039v-10h48.039zm-96.09 0h-48.039v-10h48.039zm-96.09 0h-48.039v-10h48.039zm-96.09 0h-48.039v-10h48.039zm-96.09 0h-48.039v-10h48.039zm-96.09 0h-48.039v-10h48.039zm-96.09 0h-20v20h-10v-30h30v10m-20 126.29h-10v-53.141h10zm0 106.28h-10v-53.141h10zm0 106.28h-10v-53.141h10zm0 106.29h-10v-53.141h10zm0 106.28h-10v-53.141h10zm0 106.28h-10v-53.141h10z"/><path d="M2360.75 3504.84v20h20v10h-30v-30h10m68.05 20h48.039v10H2428.8zm96.09 0h48.039v10h-48.039zm96.09 0h48.039v10h-48.039zm96.09 0h48.039v10h-48.039zm96.09 0h48.039v10h-48.039zm96.08 0h48.047v10h-48.047zm96.09 0h48.051v10h-48.051zm96.09 0h48.047v10h-48.047zm96.09 0h48.047v10h-48.047zm96.09 0h20v-20h10v30h-30v-10m20-126.28h10v53.141h-10zm0-106.28h10v53.141h-10zm0-106.29h10v53.152h-10zm0-106.28h10v53.141h-10zm0-106.28h10v53.141h-10zm0-106.28h10v53.141h-10z"/></g><use xlink:href="#E" class="B"/><path d="M3485.8 3429.06l-29.92 29.91 29.92 29.92c2.92 2.93 2.92 7.68 0 10.61-2.93 2.92-7.68 2.92-10.61 0l-35.22-35.22c-2.93-2.93-2.93-7.68 0-10.61l35.22-35.22c2.93-2.93 7.68-2.93 10.61 0s2.93 7.68 0 10.61" class="E"/><use xlink:href="#E" x="392.64" class="B"/><path d="M3850.39 3418.45l35.22 35.22a7.58 7.58 0 0 1 2.19 5.3c0 1.98-.8 3.91-2.19 5.31l-35.22 35.22c-2.93 2.92-7.68 2.92-10.61 0-2.93-2.93-2.93-7.68 0-10.61l29.92-29.92-29.92-29.91c-2.93-2.93-2.93-7.68 0-10.61s7.68-2.93 10.61 0" class="E"/><use xlink:href="#E" x="193.6" class="B"/><path d="M3669.51 3497.49l-34.48-70.44a7.5 7.5 0 0 1 3.44-10.03 7.51 7.51 0 0 1 10.04 3.44l34.47 70.43c1.82 3.73.28 8.22-3.44 10.04a7.5 7.5 0 0 1-10.03-3.44" class="E"/><g class="B"><use xlink:href="#F"/><use xlink:href="#F" x="954.97"/><use xlink:href="#F" y="-373.7"/><use xlink:href="#F" x="954.97" y="-373.7"/><use xlink:href="#F" x="477.48"/><use xlink:href="#F" y="-733.96"/><use xlink:href="#F" x="954.97" y="-733.96"/><use xlink:href="#F" x="477.48" y="-733.96"/><use xlink:href="#F" x="-14.27" y="-859.77"/><path d="M4836.57 2637.41H4785v51.57h51.57v-51.57M2375.15 2263.7h-51.57v51.58h51.57v-51.58m2461.42 0H4785v51.58h51.57v-51.58"/><use xlink:href="#F" x="1256.07" y="-859.77"/><use xlink:href="#F" x="-14.27" y="-1688.12"/><path d="M4836.57 1809.06H4785v51.57h51.57v-51.57"/><use xlink:href="#F" x="1256.07" y="-1688.12"/></g><path d="M3808.47 2236.1c0-119.66-97.01-216.66-216.66-216.66-119.66 0-216.67 97-216.67 216.66s97.01 216.67 216.67 216.67c119.65 0 216.66-97.01 216.66-216.67" class="C"/><path d="M3532.67 2110.14v251.93l174.07-125.97z" class="B"/><path d="M2104.21 1418.14V793.641c0-15.801-12.8-28.7-28.6-28.7h-700v576.999c0 16.2 13.2 29.4 29.4 29.4h445c16.2 0 29.4 13.1 29.4 29.3v17.5c0 16.2 13.1 29.4 29.4 29.4h166.1c16.2 0 29.3-13.2 29.3-29.4" fill="#f79626"/><path d="M2072.52 827.539h-644.93c-8.3 0-15.03 6.731-15.03 15.031v497.92c0 8.3 6.73 15.03 15.03 15.03h644.93c8.31 0 15.04-6.73 15.04-15.03V842.57c0-8.3-6.73-15.031-15.04-15.031" fill="#fcfcfc"/><path d="M2055.02 807.539h-644.93c-8.3 0-15.03 6.731-15.03 15.031v497.92c0 8.3 6.73 15.03 15.03 15.03h644.93c8.31 0 15.04-6.73 15.04-15.03V822.57c0-8.3-6.73-15.031-15.04-15.031" fill="#dbd8c3"/><path d="M2076.9 764.969h-706.54a27.33 27.33 0 0 0-26.86 22.25l-90.74 478.801c-3.19 16.83 9.72 32.42 26.86 32.42h706.55a27.33 27.33 0 0 0 26.85-22.25l90.74-478.792c3.19-16.839-9.72-32.429-26.86-32.429" class="G"/><path d="M975.254 759.941H6530c2.76 0 5 2.239 5 5s-2.24 5-5 5H975.254c-2.762 0-5-2.242-5-5a5 5 0 0 1 5-5M935 769.969H820c-2.762 0-5-2.231-5-5 0-2.758 2.238-5 5-5h115c2.762 0 5 2.242 5 5 0 2.769-2.238 5-5 5m5639.28-10.028h258.22c2.76 0 5 2.239 5 5s-2.24 5-5 5h-258.22c-2.76 0-5-2.242-5-5s2.24-5 5-5" class="D"/><path d="M5300.18 738.48c-3.52-6.839-20.37-22.671-43.73-33.109-23.33-10.422-72.82-15.32-45.33-24.5s59.53-3.621 75.78-1.019c16.22 2.617 31.28-2.473 50.44-2.352 25.25.172 26.11 7.16 22.71 35.641-4.68 39.179-48.51 47.488-59.87 25.339m453.29 26.758c-1.41-7.906 9.81-31.859-10.27-49.449-20.05-17.547-65.66-36.078-35.44-36.777s59.2 6.308 74.59 13.886c15.36 7.602 3.1 19.543 22.16 25.551 25.12 7.942 19.93 26.391 6.88 37.821-16.72 37.621-53.4 34.539-57.92 8.968" fill="#283674"/><g class="J"><path d="M5661.45 1550.36s60.17 176.93-110.55 322.68c0 0-91.5-36.43-164.78-40.82-57.7-3.46-92.05 3.77-92.05 3.77s-13.73-158-13.93-242.72l381.31-42.91"/><path d="M5317.41 1737.06c-13.42-5.06-29.94-25.36-37.27-143.79l-16.91-294c-.67-8.82-.6-16.69-.02-23.87-.61-4.73-.87-9.83-.64-15.44 3.54-84.58 39.26-355.499 37.37-519.089 0 0 5.28-7.492 13.8-11.391 12.38-5.64 32.34-5.101 44.63-.339 11.69 131.711 99.06 407.719 38.22 532.269 24.17 77.58 78.01 244.52 88.91 309.03 17.65 104.23-101 191.94-168.09 166.62"/><path d="M5662.96 1239.22c-4.9 82.67 9.82 293.03-4.55 358.03-22.78 103.23-141.67 146.02-194.34 97.36-10.54-9.73-18.08-66.79-9.54-93.29 8.56-26.48 57.47-323.77 73.41-373.57l11.24-33.48c28.31-79.78 162.01-289.961 208.41-446.84 0 0 7.92-2.668 17.29-3.071 20.23-.867 36.82 4.661 49.52 17.411-27.68 129.468-40.86 367.83-151.44 477.45"/></g><path d="M4910.6 2296.21s-21.61 23.71-27.89 32.77c-6.27 9.07-36.26 10.6-44.63 28.31-8.36 17.72-25.8 42.12-6.97 51.19 18.83 9.06 18.13 9.76 23.01 16.73 4.88 6.98-31.38 33.47-37.65 53.7-6.28 20.22 50.2-27.2 58.57-39.05 8.37-11.86 21.62-1.4 29.99-22.32 8.36-20.92 10.46-47.42 31.38-77.4" class="F"/><g class="G"><path d="M5259.29 2368.63c-41.31-35.41-110.44-133.47-143.1-178.5-61.81 75.11-184.23 173.15-184.23 173.15s-55.55-41.62-46.88-50.09 180.53-255.99 223.63-259.28c5.17-.39 10.78 1.16 16.26 4.06-.09-.1 61.54 24.2 151.6 124.05 24.08 26.69 46.4 3.39 46.4 3.39l26.55 212.32s-57.38-4.33-90.23-29.1"/><path d="M5251.01 2348.71c23.56 19.59 75.31 56.48 154.03 54 54.24-1.71 201.96-10.66 218.46-46.95 8.44-18.55 17.5-208.49 5.15-273.99-9.29-49.24-33.06-171.24-33.06-200.68s15.82-42.06 8.44-50.61c-16.53-19.15-129.56-27.19-182.62-27.19-47.23 0-127.62 12.59-131.7 27.72-1.91 7.11 1.77 46.34-.41 97.69-4.72 110.86-16.11 278.24-24.6 301.07-9.43 25.35-35.4 100.88-13.69 118.94"/></g><path d="M5266.21 2278.34s2.71-20.68 5.89-51.77l5.04-53.14 4.95-60.97 3.71-61.11 1.89-53.33.84-52.08s-2.38 20.73-5.06 51.87l-8.85 114.13-3.96 61.04-2.75 53.29-1.7 52.07" class="I"/><path d="M5493.65 2394.13s-56.76-39-94.77-36.6c-18.5 8.72-29.7 37.43-29.7 37.43s12.2 5.81 14.68 8.3c1.42 1.41 2.24 22.32 2.58 39.91l.25 14.77.16 9.54 112.53 47.88s-12.95-26.55-15.52-47.63c-3.32-27.63-2.82-60.66-2.82-63.48 0-4.98 12.61-10.12 12.61-10.12" class="F"/><path d="M5352.12 2686.35s-13.49-35.57-14.78-51.42c-1.29-15.86 8.57-21 12-22.72 3.43-1.71 21.86 72 21.86 72" fill="#353486"/><path d="M5426.76 2705.75c-13.73-3.74-49.93 3.75-59.91-11.23-9.98-14.97-18.72-51.17-22.47-61.15-7.45-19.88-12.31-41.12-17.72-61.61-7.06-26.71-18.69-75.62 7.43-97.96 7.51-6.42 10.86-8.54 20.16-10.23l37.04-6.99c19.17-3.44 40.4-7.45 59.44-1.27 25.44 8.26 39.38 43.23 45.92 66.98l37.44 136.04-107.33 47.42" class="F"/><path d="M5481.08 2419.26s15.42-8.64 26.32-25.16c-11.19-25.59-36.48-71.05-64.33-91.77-13.01 34.91-32.17 52.99-32.17 52.99s42.26 23.86 70.18 63.94m-86.43-61.83s-22.89-10.66-39-41.02c0 0-5.21 41.07 5.88 76.33 0 0 17.82 22.79 23.98 23.26-2.55-29.05 9.14-58.57 9.14-58.57" class="I"/><path d="M5525.17 2198.06l338.5-407.96c6.63-7.99 5.61-19.77-2.39-26.41l-280.85-233.03c-8-6.64-19.77-5.47-26.4 2.52l-338.5 407.96c-6.63 8-5.6 19.77 2.39 26.41l280.85 233.04c8 6.63 19.77 5.46 26.4-2.53" class="C"/><path d="M5525.18 2198.06l18.51-22.31-309.64-256.93-18.52 22.32c-6.63 7.99-5.6 19.77 2.39 26.41l280.86 233.04c7.99 6.63 19.76 5.46 26.4-2.53" class="D"/><path d="M5439.07 2119.48c3.92-4.74 3.27-11.75-1.46-15.68s-11.75-3.27-15.68 1.46c-3.92 4.73-3.27 11.75 1.46 15.68 4.73 3.92 11.75 3.27 15.68-1.46m38.07 31.59c3.93-4.73 3.28-11.75-1.45-15.68-4.74-3.92-11.75-3.27-15.68 1.46s-3.27 11.75 1.46 15.68 11.75 3.27 15.67-1.46m38.08 31.59c3.93-4.73 3.27-11.75-1.46-15.67-4.73-3.93-11.75-3.28-15.67 1.46-3.93 4.73-3.28 11.75 1.45 15.67 4.74 3.93 11.76 3.28 15.68-1.46" class="E"/><path d="M5356.44 1805l-90.83 109.47 148.5 123.22 90.83-109.47-148.5-123.22m210.89-254.16l-198.79 239.58 276.53 229.45 198.79-239.58-276.53-229.45m-129.62 490.36l-7.9 9.52 112.33 93.2 7.9-9.51-112.33-93.21m16.59-19.99l-7.9 9.52 112.33 93.2 7.9-9.52-112.33-93.2m16.59-19.99l-7.9 9.52 112.32 93.2 7.9-9.52-112.32-93.2m16.58-19.99l-7.9 9.52 112.33 93.2 7.9-9.52-112.33-93.2m16.59-19.99l-7.9 9.52 112.33 93.2 7.9-9.52-112.33-93.2m16.59-19.99l-7.9 9.52 79.72 66.15 7.9-9.52-79.72-66.15" class="H"/><path d="M5386.99 1825.43c-26.95-4.06-46.3-17.09-61.49-32.1-1.24-1.22-2.55-2.76-2.27-4.48.35-2.15 2.87-3.11 5.02-3.45 12.52-2.01 14.56 5.98 26.26 10.87l23.6 10.14" fill="#f48d71"/><path d="M5479.09 1825.49l-34.14-21.38c-4.65-2.96-9.89-6.23-11.57-11.57-7.43-24.25-22.57-25.53-30.98-31.07-6.43-4.16-20.88-8.22-27.8-11.29l5.93-7.91c-1.18-.6-2.77-1.39-4.65-2.08l-.59-.1c-9.9-2.87-18.7 6.04-18.7 6.04h-.1c-8.51 8.51-19.99 21.67-22.46 30.18-3.27 11.77 1.58 17.51 2.57 18.5l.2.2c7.12 6.53 27.8 21.97 34.24 25.04 5.83 2.77 61.54 19.39 82.52 23.75l25.53-18.31" class="F"/><path d="M5581.97 2235.85c7.89-111.55 45.74-250.63 45.74-250.63l-211.47-146.35s3.16-12.32 7.88-25.67c3.8-10.73 13.17-23.84 13.17-23.84s271.79 97.48 291.36 154.51c-5.18 69.5 3.32 314.15-65.69 404.53-21.97 28.77-155.56 45.7-155.56 45.7" class="G"/><path d="M5558.04 2671.09c-1.55 1.62-3.43 3.08-3.96 5.28.62 33.09-16.37 39.07-36.78 48.22-29.48 13.2-144.69 15.51-156.28 58.78-8.94-4.04-17.37-9.17-14.77-41.36-2.38 3.96-4.22 8.19-5.55 12.59-6.59-11-10.99-23.59-10.82-36.34.18-12.76 5.19-25.79 14.96-34.06 5.98-5.1 13.46-8.18 21.03-10.56 17.95-5.72 36.87-7.65 55.35-11.35 18.39-3.78 37.04-9.76 51.38-21.99 3.88-3.41 7.48-7.36 9.77-12.02-3.53-11.27-9.67-32.32-9.67-42.52 0-8.46 4.22-14.93 7.68-18.85-1.54-17.35-2.54-31.51-.39-30.88 5.02 1.49 6.87 7.56 9.86 11.96 5.63 8.28 12.23 2.91 20.85-2.11l-3.69-8 13.72 6.51s82.31 79.86 37.31 126.7" fill="#353486"/><path d="M5477.66 2511.15s-1.48-6.16 2.36-11.01c3.38-4.26 10.23-3.64 14.94-2.12 13.4 4.34 22.65 17.4 25.17 30.9 2.98 15.89-5.56 31.8-20.11 27.66-8.52-2.42-13.83-12.07-13.74-20.93" class="F"/><path d="M5434.65 2452.3s-15.77-9.13-48.21-9.13l.25 14.77 47.96-5.64" fill="#f48d71"/><path d="M5583.91 2213.38l2.29-9.77 5.58-25.8c4.41-21.36 9.76-49.89 14.94-78.42l14.11-78.47 4.96-25.85 1.92-9.85s-1.46 3.34-3.79 9.3c-2.32 5.96-5.44 14.56-8.66 25.03-6.5 20.95-13.19 49.39-18.37 78.06-5.14 28.69-8.85 57.59-10.77 79.37-1.02 10.88-1.41 20.01-1.84 26.37-.34 6.37-.37 10.03-.37 10.03" class="I"/><path d="M5438.64 1662.35l3.59-14.11 8.84-37.3 11.66-52.88 12.42-60.78 11.61-60.93 9.59-53.26 9.24-52.04s-6.89 20.07-14.74 50.84l-12.72 52.69c-4.4 19.33-8.59 40.05-12.79 60.77l-11.23 61.06-8.55 53.49c-2.49 15.66-3.94 28.82-5.23 37.99l-1.69 14.46" fill="#386fad"/><path d="M5032.54 670.789h811.32c2.76 0 5 2.242 5 5a5 5 0 0 1-5 5h-811.32a5 5 0 0 1-5-5c0-2.758 2.24-5 5-5m841.46 0h116.05c2.76 0 5 2.242 5 5a5 5 0 0 1-5 5H5874a5 5 0 0 1-5-5c0-2.758 2.24-5 5-5" class="D"/><path d="M2095.01 675.789L2317.58 2201.4H2206.3L1983.73 675.789h111.28" fill="#5e6d9c"/><path d="M2114.26 675.789L2336.82 2201.4h-111.28L2002.98 675.789h111.28" fill="#314170"/><path d="M2742.02 1499.42h-577.91a10 10 0 0 1-10-10c0-5.52 4.48-10 10-10h577.91a10 10 0 0 1 10 10c0 5.53-4.47 10-10 10m41.03 294.25h-577.91a10 10 0 0 1-10-10c0-5.52 4.48-10 10-10h577.91c5.52 0 10 4.48 10 10a10 10 0 0 1-10 10m47.43 294.25H2247.8a10 10 0 0 1-10-10c0-5.52 4.48-10 10-10h582.68c5.52 0 10 4.48 10 10a10 10 0 0 1-10 10m-129.01-882.75h-577.91c-5.52 0-10-4.48-10-10s4.48-10 10-10h577.91c5.52 0 10 4.48 10 10s-4.48 10-10 10m-46.81-294.248h-577.91a10 10 0 0 1-10-10c0-5.524 4.47-10 10-10h577.91c5.52 0 10 4.476 10 10s-4.48 10-10 10" class="K"/><path d="M2791.3 2475.8l-1002.63 119 91.56 771.44 1002.63-118.99-91.56-771.45" fill="#28617c"/><g class="B"><path d="M2770.18 2496.44l-956.14 113.48 87.31 735.68 956.14-113.48-87.31-735.68"/><path d="M2537.45 2974.23l-327.32-319.27 15.96-1.9-10.77-90.76 554.86-65.86 10.77 90.77-243.5 387.02"/></g><path d="M1824.81 2700.69l442 448.57 388-639.12-840.77 99.78 10.77 90.77" class="H"/><path d="M2725.78 3108.11c-6.65-56.06-57.49-96.11-113.56-89.46-56.06 6.65-96.12 57.5-89.46 113.56 6.65 56.06 57.49 96.12 113.56 89.47 56.06-6.66 96.12-57.5 89.46-113.57" class="E"/><path d="M2228.18 1298.4l-5.73-56.18c-1.62-11.38-38.11-9.78-41.95-3.57-3.84 6.22-2.42 58.9-2.42 58.9" class="F"/><path d="M2170.2 1229.21c-.8-11.93 1.21-31.58 1.21-31.58l41.98-2.82 2.54 6.87s13.14-7.92 23.84-8.64l35.44-2.38c25.94-1.74 40.89.57 41.86 5.09 4.02 18.9-27.03 20.11-35.1 20.65-23.17 1.56-47.53 14.09-52.21 26.22-3.39 8.8-1.49 10.85-6.39 9.57 0 0-4.38-.64-7.62-5.73-4.96-7.81-13.71-12.68-22.69-10.47-5.14 1.26-10.23 3.6-13.73 7.8 0 0-8.33-2.65-9.13-14.58" class="J"/><path d="M2648.56 1607.14s-5.43-31.31-9.66-41.99c-4.24-10.69-39.34-.59-41.62 6.35s11.43 57.82 11.43 57.82" class="F"/><path d="M2584.98 1562.72c-3.11-11.54-7.09-33.68-7.09-33.68l35.05-15.53 5.8 5.38s8.64-10.62 19.39-15.68c7.99-3.74 25.2-8.64 33.96-9.64 30.66-3.5 53.27 2.12 55.12 6.36 7.73 17.72-32.95 22.75-41.01 24.92-23.16 6.26-35.93 26.03-38.32 38.89-1.73 9.32.59 10.94-4.62 10.69 0 0-4.56.27-8.82-4.07-6.53-6.65-16.33-9.65-25-5.64-4.96 2.29-9.65 5.62-12.39 10.45 0 0-8.95-.91-12.07-12.45" class="J"/><path d="M2147.91 2475.71c9.75-3.97 27.44-8.43 48.27-11.08 13.22-1.49 27.93-2.48 42.81-2.15 24.14.5 48.6 4.63 68.44 14.55 46.61 23.47 52.4 67.77 55.87 71.91-6.12 0-37.86-.17-69.43 1.15-34.05 1.33-67.94 4.3-69.09 11.08 5.95 10.91 10.91 23.8 14.87 38.35 23.81 84.14 17.36 218.36 10.91 279.85-26.94-5.62-70.75-15.54-82.15-35.54-20.42-36.22-29.8-100.62-36.27-168.85-8.83-93.07-8.07-189.73 15.77-199.27" class="G"/><g class="J"><path d="M2396.32 2346.34l-153.72 1.38s-46.53-73.92-41.38-148.54c5.29-74.5 21.09-79.81 21.33-115.85 1.49-146.09 6.3-243.31 9.5-293.69 1.7-26.7-1.75-53.41-10.28-78.77-10.32-30.66-23.62-73.56-28.29-103.5-11.77-75.34-22.37-325.36-22.37-325.36s38.52-11.37 59.86-6.74c0 0 96.09 317.29 124.5 443.27l23.98 96.6c12.56 45.94 83.46 349.22 83.46 349.22l-66.59 181.98m295.77-274.74c20.78 60.95 143.46 49.7 124.6-21.49-20.97-79.19-159.33-457.18-159.33-457.18s-30.44-.16-66.15 17c0 0 18.45 92.05 43.35 298.61 7.07 58.58 48.69 148.99 57.53 163.06"/><path d="M2391.41 2397.68c106.44-34.13 285.84-181.04 382.37-242.14 64.92-41.09 58.12-144.31-5.51-149.97-75.96-6.77-413.52 62.46-524.44 258.33"/></g><path d="M2286.52 2906.65s12.46 42.2 7.01 73.36c-5.45 31.15-24.14 87.22-17.13 129.27 7.01 42.06 118.85 109.66 164.22 76.26 79.25-58.33 22.68-245.25 13.34-250.7-9.35-5.45-44.51 1.74-50.68-4.97s-10.84-46.43-10.84-46.43" class="F"/><path d="M2266.28 2873.74s.52 21.18 7.59 28.68c18.8 19.94 120.93-5.9 125.92-9.37 4.98-3.47 9.63-23.99 9.63-23.99l-143.14 4.68" class="I"/><path d="M2277.46 2978.08c5.57-14.34 8.16-33.88 15.93-37.51 0 0 62.85-6.16 78.88-4.18 34.22 16.03 43.92 96.05 43.92 96.05h.17c-.66 10.58-2.45 24.88 2.01 31.33 10.25 14.71 27.08 2.72 28.57-11.33s1.27-30.45 4.91-32.26c4.95-2.65 9.09 18.45 7.11 45.4-1.65 23.47 14.7 61.08 28.26 82.08 15.54 24.3 8.12 85.39-41.77 79.51-.49-6.95-8.92-19.18-26.28-23.97-33.89-9.26-95.21-1.49-124.97-18.85-12.73-7.44-23.97-24.13-17.85-36.86 0 0-30.93 3.59-26.12-44.8 10.39-104.56 19.11-103.71 27.23-124.61" class="K"/><path d="M2507.14 2334.04c-7.29-2.65-13.72-6.99-21.27-9.25-17.99-5.38-36.91-2.34-55.22-.71l-56.93 4.91c-99.02 4.23-132.99-19.58-149.05 4.5-3.08 4.63-4.9 11.44-3.4 20.3 2.04 13.09-5.89 133.15-22.38 243.05-10.96 73-31.9 140.72-33.66 172.53-6.28 114.07 109.61 113.06 109.61 113.06 170.26 10.63 233.69-38.41 242.95-111.56.68-5.17 1.09-10.76 1.5-16.61 4.36-75.47-17.07-231.47-27.97-322.46-2.99-25.07 30.39-92.44 15.82-97.76" class="G"/><path d="M2854.6 3001.74l.12 6.85c-.5 6.06-6.99 3.59-8.67-1.41-.37-1.12-.91-4.26-1.51-8.38l.07 4.6c-.51 4.98-6.25 3.74-7.93-.36-.54-1.34-.85-3.79-1.78-9.65-.8-4.99-2.25-10.35-2.96-15.38-.63-4.56-6.27-26.01-16.98-28.16-16.41-3.28-5.65 25.06-17.11 31.6-3.59 2.06-7.74-19.97-8.18-32.46-.44-12.48-.59-18.73.48-26.1.92-7.37 4.83-17.83 4.21-22.28-.61-4.45-5.68-16.27-5.68-16.27l37.77-15.67s5.07 22.57 10.14 27.79c12.72 12.36 19.82 26.5 24.16 43.96 6.78 27.24-4.1 65.01-6.15 61.32" class="F"/><path d="M2830.32 2878.77s-11.31-65.52-22.48-117.96c-8.85-40.45-20.76-75.95-40.5-123.48-.11-.28-28.26-63.53-41.29-69.53-63.82-29.42-220.9 109.71-251.49 136.69-68.82-18.38-120 178.31-120 178.31s81.24-1.19 129.88-11.52c52.11-11.07 196.91-175 203.93-175.42l24.05 46.5 77.58 148.67 32.14-9.67 8.18-2.59" class="G"/><path d="M2653.3 675.789L2875.86 2201.4h-111.28L2542.02 675.789h111.28" fill="#364675"/><path d="M2672.54 675.789L2895.1 2201.4h-111.28L2561.26 675.789h111.28" class="K"/><path d="M2309.68 2280.94s-1.61-5.55-3.24-15.43c-1.71-9.85-3.04-24.17-1.87-41.05 1.13-16.83 5.95-36.34 16.87-53.94 10.9-17.59 28.11-32.46 48.1-42.24 20.42-10.26 41.21-19.88 60.7-28.94l53.57-24.18 52.73-22.82s-5.58 1.42-15.22 4.38c-9.58 3.07-23.41 7.18-39.61 13.17s-35.16 12.89-55.04 21.35c-19.93 8.33-40.91 17.9-61.64 28.14-21.19 10.55-39.98 27.03-51.09 46.65-11.27 19.6-14.66 40.76-14.93 58.19-.25 17.62 3.04 31.94 5.55 41.7 2.69 9.77 5.12 15.02 5.12 15.02" fill="#386fad"/><path d="M2452.65 2742.36l5.24-6.88c3.27-4.4 8.55-10.21 14.74-17.18 6.26-6.93 13.87-14.72 22.12-22.92 8.4-8.06 17.37-16.64 26.79-24.74 4.7-4.06 9.23-8.33 14.03-12.13 4.81-3.79 9.19-7.96 13.84-11.49l13.11-10.62 11.94-9.3 17.92-14.03c4.33-3.4 6.74-5.47 6.74-5.47s-2.87 1.31-7.79 3.83c-4.8 2.67-12.1 5.89-20.11 10.93-8.22 4.74-17.52 10.73-27.15 17.66-9.67 6.88-19.57 14.8-29.14 23.12-9.47 8.43-18.55 17.32-26.53 26.16-7.92 8.89-14.88 17.57-20.25 25.45-5.43 7.83-9.31 14.78-11.89 19.68-2.54 4.94-3.61 7.93-3.61 7.93m-278.27-25.09s1.55-4.48 3.89-12.45c2.19-7.99 5.66-19.34 8.88-33.19 3.19-13.84 7.11-29.97 10.42-47.42 3.5-17.43 6.5-36.14 9.39-54.87 2.64-18.76 5.05-37.56 6.77-55.24 1.76-17.68 2.77-34.24 3.63-48.42 1.01-14.17.94-26.05 1.21-34.32l.09-13.04-2.03 12.88-4.87 33.94-6.77 47.91-7.92 54.84-15.42 102.65-7.27 46.73m490.38.68s4.25-2.55 9.99-7.16c5.75-4.6 13.09-11.16 19.66-18.46 3.28-3.65 6.48-7.38 9.25-11.07 2.84-3.62 5.15-7.27 7.19-10.34 3.98-6.21 5.98-10.74 5.98-10.74l-2.32 2.47-5.91 6.57-17.88 19.75-17.89 19.78-8.07 9.2" class="I"/><path d="M1873.59 670.789h909.46c2.76 0 5 2.242 5 5a5 5 0 0 1-5 5h-909.46a5 5 0 0 1-5-5c0-2.758 2.24-5 5-5m-276.7 0h230.12c2.76 0 5 2.242 5 5a5 5 0 0 1-5 5h-230.12a5 5 0 0 1-5-5c0-2.758 2.24-5 5-5" class="D"/><path d="M4476.52 675.789h-646.88c-15.11 0-27.35 12.242-27.35 27.34V1737.66c0 15.1 12.24 27.34 27.35 27.34h646.88c15.11 0 27.35-12.24 27.35-27.34V703.129c0-15.098-12.24-27.34-27.35-27.34" class="K"/><path d="M4431.51 834.301h-556.86c-15.1 0-27.34 12.238-27.34 27.34v820.679c0 15.1 12.24 27.34 27.34 27.34h556.86c15.1 0 27.34-12.24 27.34-27.34V861.641c0-15.102-12.24-27.34-27.34-27.34" class="C"/><path d="M3657.9 670.789h863.35c2.76 0 5 2.242 5 5a5 5 0 0 1-5 5H3657.9a5 5 0 0 1-5-5c0-2.758 2.24-5 5-5m885.85 0H4605c2.76 0 5 2.242 5 5a5 5 0 0 1-5 5h-61.25a5 5 0 0 1-5-5c0-2.758 2.24-5 5-5" class="D"/><path d="M4220.65 1645.16V1333.8c0-5.27-4.26-9.52-9.52-9.52h-308c-5.15 0-9.41 4.25-9.41 9.52v311.36c0 5.15 4.26 9.41 9.41 9.41h308c5.26 0 9.52-4.26 9.52-9.41" class="E"/><path d="M4220.65 1392.15v-58.35c0-5.27-4.26-9.52-9.52-9.52h-152.77l6.5 67.87 71.9 79.52 83.89-79.52" class="D"/><path d="M4177.87 1324.28h-274.74c-5.15 0-9.41 4.25-9.41 9.52v58.35l107.52 112.84 176.63-180.71" class="B"/><path d="M4177.41 1565.22c0-20.94-16.97-37.91-37.9-37.91-20.94 0-37.91 16.97-37.91 37.91 0 20.93 16.97 37.9 37.91 37.9 20.93 0 37.9-16.97 37.9-37.9" class="D"/><path d="M4409.55 1276.97V965.609c0-5.257-6.67-9.519-14.94-9.519h-483.24c-8.08 0-14.76 4.262-14.76 9.519v311.361c0 5.15 6.68 9.41 14.76 9.41h483.24c8.27 0 14.94-4.26 14.94-9.41" class="E"/><path d="M4243.51 1121.24c0-49.95-40.49-90.44-90.43-90.44s-90.43 40.49-90.43 90.44c0 49.94 40.49 90.43 90.43 90.43s90.43-40.49 90.43-90.43" class="C"/><path d="M4128.4 1068.66v105.15l72.65-52.57z" class="B"/><path d="M4409.55 1630h-166.04v24.57h166.04V1630m0-722.5h-512.94v24.559h512.94V907.5M4330 861.66h-433.39v24.57H4330v-24.57m79.55 724.66h-166.04v24.57h166.04v-24.57m0-43.67h-166.04v24.57h166.04v-24.57m0-43.67h-166.04v24.56h166.04v-24.56m0-43.68h-166.04v24.57h166.04v-24.57m0-43.67h-166.04v24.56h166.04v-24.56m0-43.68h-166.04v24.57h166.04v-24.57m-52.67-43.67h-113.37v24.56h113.37v-24.56" class="H"/><path d="M4201.05 754.461c0-24.231-19.64-43.879-43.87-43.879s-43.88 19.648-43.88 43.879 19.65 43.871 43.88 43.871 43.87-19.641 43.87-43.871" class="E"/><path d="M2144.24 3695.82h-202.55c-34.52 0-62.5 27.98-62.5 62.5v202.55c0 34.52 27.98 62.51 62.5 62.51h202.55c34.52 0 62.5-27.99 62.5-62.51v-202.55c0-34.52-27.98-62.5-62.5-62.5" class="C"/><path d="M2094.57 3843.08l-68.13 68.12c4.96 17.31.64 36.71-13 50.34-13.76 13.76-33.39 18.07-50.85 12.89l32.03-32.03-7.14-27.32-27.32-7.14-32.03 32.03c-5.18-17.46-.87-37.09 12.89-50.85 13.63-13.64 33.03-17.96 50.34-13l68.12-68.13c-4.95-17.31-.63-36.7 13.01-50.34 13.76-13.76 33.39-18.06 50.85-12.88l-32.03 32.02 7.14 27.32 27.32 7.14 32.02-32.03c5.19 17.46.88 37.09-12.88 50.85-13.64 13.64-33.03 17.96-50.34 13.01" class="E"/><path d="M1697.91 2168.37l-.1-.89-.6-4.37-.89-4.61-.05-.2c-.64-2.97-1.44-5.9-2.38-8.77l-1.83-5.06-1.94-4.42-1.58-3.22c-1.44-2.87-3.08-5.7-4.96-8.43l-1.44-2.13-.7-.94-1.78-2.39c-.7-.99-1.49-1.93-2.33-2.87-1.59-1.93-3.28-3.82-5.11-5.55l-2.33-2.29-2.48-2.18-3.62-2.97a98.07 98.07 0 0 0-9.32-6.35l-3.03-1.74a81.65 81.65 0 0 0-3.62-1.83l-3.47-1.59-5.8-2.23-3.33-1.09-7.34-1.89c-1.19-.29-2.42-.54-3.66-.69-1.24-.25-2.48-.45-3.72-.55-6.2-.74-12.5-.89-18.75-.39-1.24.05-2.48.19-3.72.39-1.24.1-2.48.3-3.72.55-1.24.2-2.48.4-3.72.69-4.21.94-8.43 2.14-12.54 3.67-1.1.4-2.19.8-3.23 1.29l-.39.15c-1.2.5-2.39 1.04-3.53 1.59l-.39.2c-1.24.54-2.48 1.19-3.67 1.88a75.55 75.55 0 0 0-7.34 4.46l-.2.1c-1.14.75-2.23 1.54-3.32 2.38-1 .75-1.99 1.49-2.93 2.28a96.79 96.79 0 0 0-3.97 3.48c-1.29 1.14-2.53 2.38-3.72 3.62-1.04 1.04-2.03 2.13-2.97 3.22-3.52 3.97-6.6 8.18-9.28 12.6-.74 1.24-1.48 2.43-2.13 3.72-.79 1.38-1.54 2.82-2.18 4.31l-1.14 2.48-.69 1.64-.9 2.18c-.35.94-.69 1.88-.99 2.87l-.4 1.15c-.39 1.19-.79 2.38-1.09 3.62-.54 1.78-.99 3.62-1.39 5.45-.24 1.09-.44 2.23-.64 3.32-.35 2.09-.65 4.17-.89 6.3-.3 3.03-.45 6.1-.45 9.13v.15c0 2.97.15 6 .45 8.97l.1.89a59.48 59.48 0 0 0 .59 4.37c.25 1.54.5 3.07.89 4.61l.05.2a90.96 90.96 0 0 0 2.38 8.78c.4 1.19.85 2.43 1.29 3.62l1.09 2.72.8 1.84 1.09 2.38c1.09 2.28 2.23 4.46 3.57 6.64l1.88 3.08.2.3 2.03 2.92c.9 1.29 1.84 2.53 2.83 3.77.99 1.19 1.99 2.43 3.03 3.57a104.25 104.25 0 0 0 3.17 3.47c5.51 5.56 11.7 10.47 18.45 14.49l3.27 1.83c1.09.6 2.23 1.14 3.38 1.69 1.04.54 2.13 1.04 3.22 1.48a57.58 57.58 0 0 0 6.3 2.43c.99.4 1.98.7 3.02 1l3.67 1.04c1.24.35 2.43.64 3.67.84 1.24.3 2.43.55 3.67.69 1.24.25 2.48.45 3.72.55l3.77.4c4.96.39 9.97.39 14.98 0 1.24-.05 2.48-.2 3.72-.4 1.24-.1 2.48-.3 3.72-.55 1.24-.14 2.47-.39 3.71-.69 3.08-.64 6.1-1.44 9.13-2.48l2.48-.79c4.16-1.49 8.23-3.33 12.2-5.51 1.29-.69 2.53-1.39 3.72-2.13 1.19-.69 2.38-1.44 3.52-2.23s2.28-1.59 3.37-2.43l.5-.35 3.27-2.58c1.04-.84 2.08-1.73 3.07-2.68 2.29-2.03 4.37-4.16 6.3-6.34.85-.9 1.59-1.74 2.33-2.68 1.29-1.54 2.53-3.08 3.62-4.71l1.69-2.38c1.94-2.78 3.62-5.66 5.11-8.63a46.41 46.41 0 0 0 1.78-3.52l.3-.65c.6-1.24 1.14-2.53 1.64-3.82l.25-.59a40.83 40.83 0 0 0 1.19-3.32l.64-1.94c.94-2.87 1.74-5.8 2.38-8.73l.5-2.62c.39-2.29.74-4.57.99-6.85.3-3.02.45-6.05.45-9.12a92 92 0 0 0-.45-9.08zm78.16 27.08c-.2 1.78-.65 3.42-1.29 5.01l-.05.05a22.1 22.1 0 0 1-1.49 2.87c-.6.95-1.29 1.79-2.08 2.58l-1.14 1.14-1.24 1.04h-.05l-1.74 1.14a13.91 13.91 0 0 1-4.26 1.79l-1.54.35c-1.93.34-3.92.39-5.95.1l-.4-.05c-1.39-.2-2.83-.2-4.16-.1-3.38.3-6.55 1.49-9.23 3.37l-1.29 1.04-1.34 1.29-1.73 2.23-1.29 2.33-.55 1.34-.44 1.14c-1.24 3.43-2.63 6.8-4.22 10.12l-.1.2-.69 1.78c-.85 2.48-1.09 5.06-.8 7.59v.05c.3 2.03.9 4.07 1.79 5.95.89 1.89 2.18 3.62 3.77 5.11l1.68 1.44.35.25 1.54 1.28c1.44 1.34 2.63 2.88 3.52 4.52l1.14 2.48v.05l.74 2.58c1.14 5.1.05 10.61-3.47 15.02-3.72 4.71-7.78 9.23-12.1 13.59-4.36 4.36-8.92 8.43-13.64 12.15-4.51 3.62-10.21 4.66-15.42 3.42l-1.98-.59c-2.58-.89-5.01-2.43-7-4.56l-1.43-1.69-.35-.4a18.25 18.25 0 0 0-8.38-6.25c-1.19-.44-2.43-.74-3.72-.94l-.5-.05-.99-.05a15.78 15.78 0 0 0-3.77.15c-.94.1-1.88.35-2.77.7l-1.79.69-2.33 1.04c-1.09.55-2.23 1.04-3.37 1.49-1.94.79-3.82 1.54-5.81 2.23l-.19.1c-7.44 2.78-11.96 10.31-11.41 18.15l.05.25.2 1.44v.15c1.34 9.47-4.81 18.25-13.84 20.33l-2.03.39a168.62 168.62 0 0 1-18.2 1c-6.2 0-12.25-.35-18.25-1-9.82-1.14-16.86-10.01-15.97-19.73l.15-1.34.2-2.68c0-6.99-3.97-13.49-10.32-16.51l-1.49-.6c-1.88-.69-3.77-1.44-5.6-2.18l-4.46-1.93-1.1-.5c-7.78-3.67-17.06-1.09-22.16 5.8l-.1.1c-5.75 7.74-16.52 9.67-24.55 4.56l-1.64-1.14a153.3 153.3 0 0 1-13.39-12c-4.31-4.26-8.33-8.78-12-13.39-3.92-4.91-4.91-11.16-3.17-16.66a16.29 16.29 0 0 1 2.18-4.81 21.79 21.79 0 0 1 2.68-3.28l1.73-1.43.1-.1c6.9-5.11 9.48-14.39 5.81-22.17-1.69-3.67-3.23-7.39-4.62-11.16-.79-2.28-2.08-4.26-3.62-6a26.75 26.75 0 0 0-3.07-2.63c-1.14-.74-2.38-1.39-3.62-1.88l-2.63-.85a18.68 18.68 0 0 0-6.84-.24l-2.68.2c-1.14 0-2.28-.1-3.37-.3-7.79-1.39-14.14-7.69-15.03-15.97-.65-5.9-1.04-11.9-1.04-18 0-6.05.39-12.05 1.04-17.96.94-8.28 7.29-14.63 15.03-15.96 1.93-.35 3.96-.4 6.05-.1l2.67.19c3.77 0 7.39-1.13 10.42-3.17l2.13-1.73a17.56 17.56 0 0 0 4.56-6.9c1.39-3.77 2.93-7.49 4.62-11.16 3.37-7.09 1.48-15.47-4.12-20.78l-1.69-1.38v-.05l-.1-.05-1.73-1.44a21.22 21.22 0 0 1-2.68-3.27c-.99-1.49-1.73-3.13-2.18-4.82l-.35-1.63-.25-1.64-.15-1.83v-.1l.05-.55.25-2.58.65-2.48.05-.24.1-.25.29-.85.85-1.78.19-.3.2-.34 1.29-2.09c3.67-4.61 7.69-9.12 12-13.44 4.27-4.26 8.73-8.23 13.39-11.95 3.82-3.07 8.53-4.31 13.05-3.87 1.58.15 3.12.5 4.61 1.04 3.32 1.14 6.3 3.28 8.58 6.3l1.44 1.69c2.03 2.13 4.46 3.72 7.14 4.71l6.25 1.09a17.68 17.68 0 0 0 7.43-1.64c3.62-1.73 7.34-3.27 11.06-4.61 3.62-1.29 6.6-3.72 8.68-6.74a17.75 17.75 0 0 0 1.89-3.62c1.14-2.93 1.58-6.2 1.09-9.47v-.1c-1.39-9.62 4.91-18.6 14.18-20.58l.15-.05 1.74-.3c5.9-.7 11.9-1.04 18-1.04 6.05 0 12 .34 17.9.99 4.41.54 8.28 2.53 11.11 5.55 1.14 1.19 2.13 2.53 2.92 3.97l1.05 2.23c1.09 2.88 1.53 6.05 1.04 9.33l-.2 2.67c0 7.59 4.56 14.53 11.8 17.16 3.77 1.34 7.44 2.88 11.11 4.56l.05.05c5.11 2.38 10.81 2.09 15.62-.29 1.24-.65 2.48-1.44 3.57-2.33l1.59-1.54 1.44-1.64.05-.1c5.8-7.78 16.46-9.67 24.5-4.66l1.68 1.19c4.61 3.72 9.13 7.74 13.44 12a179.44 179.44 0 0 1 12 13.44c3.92 4.96 4.86 11.21 3.13 16.76l-.9 2.38-1.29 2.34c-.79 1.19-1.68 2.28-2.67 3.27l-1.74 1.44-.1.05v.05l-1.68 1.38c-5.61 5.31-7.44 13.69-4.12 20.78 1.74 3.67 3.27 7.39 4.61 11.16 2.93 8.09 11.31 12.85 19.84 11.61 4.51-.65 8.83.34 12.35 2.48.94.59 1.78 1.24 2.58 1.93l1.19 1.14.94 1.09a17.97 17.97 0 0 1 3.97 9.42 154.92 154.92 0 0 1 1.04 17.96 154.84 154.84 0 0 1-1.04 18" class="B"/><path d="M1780.42 1943.79v5h-342.31c-15.89.01-30.24 6.43-40.66 16.84-10.41 10.43-16.84 24.77-16.84 40.66v342.31c0 15.89 6.43 30.24 16.84 40.66 10.42 10.41 24.77 16.84 40.66 16.84h342.31c15.89 0 30.23-6.43 40.66-16.84 10.41-10.42 16.83-24.77 16.84-40.66v-342.31c-.01-15.89-6.43-30.23-16.84-40.66-10.43-10.41-24.77-16.83-40.66-16.84v-5-5c37.28.01 67.49 30.22 67.5 67.5v342.31c-.01 37.28-30.22 67.5-67.5 67.5h-342.31c-37.28 0-67.5-30.22-67.5-67.5v-342.31c0-37.28 30.22-67.49 67.5-67.5h342.31v5m4731.36-135.73v5h-342.31c-15.89.01-30.23 6.43-40.66 16.84-10.41 10.43-16.83 24.77-16.84 40.66v342.31c.01 15.9 6.43 30.24 16.84 40.66 10.43 10.41 24.77 16.84 40.66 16.84h342.31c15.9 0 30.24-6.43 40.66-16.84 10.41-10.42 16.84-24.76 16.84-40.66v-342.31c0-15.89-6.43-30.23-16.84-40.66-10.42-10.41-24.76-16.83-40.66-16.84v-5-5c37.28.01 67.5 30.22 67.5 67.5v342.31c0 37.28-30.22 67.5-67.5 67.5h-342.31c-37.28 0-67.49-30.22-67.5-67.5v-342.31c.01-37.28 30.22-67.49 67.5-67.5h342.31v5" class="C"/><g class="B"><path d="M6496.34 1905.46v10h-311.42c-3.4.03-5.91 1.28-7.91 3.33-1.96 2.05-3.13 4.93-3.12 7.72.02 2.04.54 4.03 1.92 6.09l155.71 230.54c2.25 3.29 5.55 4.8 9.11 4.84 3.55-.04 6.86-1.55 9.1-4.84l155.71-230.54c1.38-2.06 1.91-4.05 1.92-6.09.01-2.79-1.16-5.67-3.12-7.72-2-2.05-4.5-3.3-7.9-3.33v-10-10c8.95-.03 16.96 3.79 22.38 9.54 5.46 5.75 8.63 13.4 8.64 21.51.01 5.85-1.72 11.94-5.34 17.28l-155.71 230.54c-6.08 9.03-16.01 13.69-25.68 13.65-9.68.04-19.61-4.62-25.68-13.65l-155.71-230.54c-3.63-5.34-5.36-11.43-5.35-17.28.02-8.11 3.18-15.76 8.64-21.51 5.43-5.75 13.43-9.57 22.39-9.54h311.42v10m-151.82 67.66h-7.79c-5.33 0-9.71 4.21-9.93 9.54l-5.43 131.99c-.24 5.64 4.28 10.35 9.93 10.35h18.65a9.95 9.95 0 0 0 9.94-10.35l-5.43-131.99c-.22-5.33-4.61-9.54-9.94-9.54"/><path d="M6353.75 1946.56a13.29 13.29 0 0 0-13.28-13.28 13.29 13.29 0 0 0-13.28 13.28c0 7.34 5.95 13.28 13.28 13.28s13.28-5.94 13.28-13.28"/></g><path d="M3669.83 4028.35h-202.56c-34.51 0-62.5 27.98-62.5 62.5v202.55c0 34.52 27.99 62.5 62.5 62.5h202.56c34.52 0 62.5-27.98 62.5-62.5v-202.55c0-34.52-27.98-62.5-62.5-62.5" class="C"/><path d="M3599.22 4120.91c0-16.9-13.7-30.6-30.61-30.6-16.9 0-30.6 13.7-30.6 30.6s13.7 30.6 30.6 30.6c16.91 0 30.61-13.7 30.61-30.6m-30.67 104.3c-29.34 0-55.86-12.24-74.85-31.85l20.87-20.25c13.65 14.28 32.8 23.07 53.98 23.07 21.19 0 40.49-8.79 53.98-23.07l20.88 20.25a103.68 103.68 0 0 1-74.86 31.85m0 68.74c-48.65 0-92.9-20.25-124.28-52.73l20.87-20.24c26.21 27.15 62.92 43.94 103.41 43.94 40.64 0 77.36-16.79 103.41-43.94l20.88 20.24c-31.39 32.48-75.49 52.73-124.29 52.73" class="B"/></g></svg>