<svg xmlns="http://www.w3.org/2000/svg" width="4000" height="2666.667" xmlns:v="https://vecta.io/nano"><style><![CDATA[.B{fill:#102048}.C{fill:#f9b384}.D{fill:#fff}.E{fill:#86a7ff}.F{fill:#d3dfff}.G{fill:#e28b6d}.H{fill:#adc3ff}.I{fill:#fbc343}.J{fill:#1f3c88}.K{fill:#3a6bea}]]></style><path d="M0 2666.667h3999.99V.007H0z" class="D"/><g fill="#f6f5f5"><path d="M3464.511 1338.15c-147.026-105.933-323.213-157.186-485.412-233.906-156-73.8-266.999-192.36-406.572-290.053-228.053-159.653-491.652-279.346-759.905-352.399-271.266-73.88-602.633-114.786-849.899 48.96-121.616 80.533-220.594 205.44-260.923 346.493-47.988 167.84-1.028 339.319 21.991 507.052 18.703 136.293-68.801 211.479-171.9 288.933-241.399 181.333-234.694 509.465-85.532 744.651h3106.806c184.48-334.226 265.613-790.065-108.653-1059.731m-2867.491 17.053c0 63.6-51.556 115.16-115.153 115.16s-115.153-51.56-115.153-115.16c0-63.587 51.556-115.146 115.153-115.146s115.153 51.56 115.153 115.146"/><path d="M3378.818 783.698c0 94.013-76.213 170.226-170.213 170.226-94.013 0-170.226-76.213-170.226-170.226 0-94 76.213-170.213 170.226-170.213 94 0 170.213 76.213 170.213 170.213M553.587 1051.671c0 28.173-22.839 51.013-51.011 51.013s-51.012-22.84-51.012-51.013 22.839-51.013 51.012-51.013 51.011 22.84 51.011 51.013m2837.925 28.28c0 28.173-22.84 51.013-51.013 51.013s-51-22.84-51-51.013 22.827-51.013 51-51.013 51.013 22.84 51.013 51.013"/></g><path d="M362.854 2389.961c-147.745-126.053-149.104-346.599-84.909-509.252 71.476-181.12 239.019-330.213 459.67-409.039l16.084-5.653 1.989 5.733-16.037 5.627c-219.002 78.24-385.234 226.066-456.068 405.546-63.404 160.653-62.264 378.319 83.208 502.425l-3.936 4.613m3109.63 7.053l-5.387-2.773c109.12-212.093 173.746-425.986 186.906-618.558 12.96-189.84-24.693-346.426-108.906-452.812-76.426-96.56-228.506-196.493-519.025-124.32l-1.453-5.88c293.626-72.946 447.692 28.493 525.225 126.44 85.173 107.586 123.28 265.613 110.2 456.999-13.213 193.373-78.066 408.079-187.56 620.905M1043.399 701.405l-5.871-1.507c.408-1.587 10.369-39.573 43.673-89.8 30.683-46.267 87.804-111.773 185.705-161.106 112.117-56.507 253.237-80.48 419.436-71.266 207.973 11.547 455.972 75.4 737.105 189.813l-2.28 5.613c-280.519-114.16-527.865-177.866-735.158-189.373-165.16-9.173-305.226 14.6-416.375 70.626-96.714 48.733-153.104 113.386-183.381 159.04-32.745 49.373-42.756 87.573-42.855 87.96" fill="#dadada"/><path d="M3183.232 744.405v1524.876c0 21.28-17.28 38.547-38.547 38.547H977.495c-21.273 0-38.547-17.267-38.547-38.547V744.405c0-21.267 17.273-38.547 38.547-38.547h2167.191c21.267 0 38.547 17.28 38.547 38.547" class="F"/><path d="M1007.112 833.311v1277.877h2107.933V833.311H1007.112" class="D"/><path d="M1010.141 2108.161h2101.877V836.338H1010.141zm2107.944 6.067H1004.081V830.285h2114.004v1283.943" class="E"/><path d="M3115.046 753.845H1007.112v79.466h2107.933v-79.466" class="D"/><g class="E"><path d="M1010.141 830.285h2101.877v-73.4H1010.141zm2107.944 6.053H1004.081v-85.52h2114.004v85.52m-2011.886-55.053c-6.78 0-12.296 5.52-12.296 12.293 0 6.787 5.516 12.307 12.296 12.307a12.32 12.32 0 0 0 12.299-12.307c0-6.773-5.515-12.293-12.299-12.293zm0 30.653c-10.12 0-18.356-8.24-18.356-18.36s8.236-18.36 18.356-18.36a18.39 18.39 0 0 1 18.36 18.36c0 10.12-8.236 18.36-18.36 18.36"/><path d="M1167.508 781.285c-6.78 0-12.296 5.52-12.296 12.293 0 6.787 5.516 12.307 12.296 12.307s12.296-5.52 12.296-12.307c0-6.773-5.516-12.293-12.296-12.293zm0 30.653c-10.121 0-18.357-8.24-18.357-18.36s8.236-18.36 18.357-18.36 18.356 8.24 18.356 18.36-8.235 18.36-18.356 18.36m61.308-30.653c-6.78 0-12.295 5.52-12.295 12.293 0 6.787 5.515 12.307 12.295 12.307s12.296-5.52 12.296-12.307c0-6.773-5.516-12.293-12.296-12.293zm0 30.653c-10.121 0-18.356-8.24-18.356-18.36s8.235-18.36 18.356-18.36 18.357 8.24 18.357 18.36-8.236 18.36-18.357 18.36"/></g><path d="M828.289 2398.121h2465.581v-114.347H828.289z" class="F"/><path d="M831.693 2394.707h2458.779v-107.533H831.693v107.533m2465.593 6.813h-2472.4v-121.146h2472.4v121.146" class="E"/><path d="M2169.635 2229.468h-217.106c-13.547 0-24.627-11.08-24.627-24.627v-14.72c0-13.547 11.08-24.627 24.627-24.627h217.106c13.547 0 24.627 11.08 24.627 24.627v14.72c0 13.547-11.08 24.627-24.627 24.627" class="D"/><path d="M1955.888 2168.521c-13.76 0-24.96 11.2-24.96 24.96v8c0 13.76 11.2 24.96 24.96 24.96h210.386c13.76 0 24.96-11.2 24.96-24.96v-8c0-13.76-11.2-24.96-24.96-24.96zm210.386 63.973h-210.386c-17.107 0-31.027-13.907-31.027-31.013v-8c0-17.093 13.92-31.013 31.027-31.013h210.386c17.107 0 31.027 13.92 31.027 31.013v8c0 17.107-13.92 31.013-31.027 31.013m-860.34-1034.29c-51.239 0-92.924 41.68-92.924 92.92v6.613c0 51.24 41.685 92.92 92.924 92.92h1510.299c51.227 0 92.92-41.68 92.92-92.92v-6.613c0-51.24-41.693-92.92-92.92-92.92zm1510.299 198.52H1305.934c-54.58 0-98.985-44.4-98.985-98.986v-6.613c0-54.573 44.405-98.986 98.985-98.986h1510.299c54.573 0 98.973 44.413 98.973 98.986v6.613c0 54.587-44.4 98.986-98.973 98.986" class="E"/><path d="M1485.223 1331.417h-182.625c-16.757 0-30.468-13.72-30.468-30.467v-13.027c0-16.76 13.711-30.48 30.468-30.48h182.625c16.76 0 30.467 13.72 30.467 30.48v13.027c0 16.747-13.707 30.467-30.467 30.467m295.906 0h-159.64c-16.987 0-30.88-13.893-30.88-30.88v-12.213c0-16.987 13.893-30.88 30.88-30.88h159.64c16.973 0 30.867 13.893 30.867 30.88v12.213c0 16.987-13.893 30.88-30.867 30.88m340.226 0h-215.106c-17.893 0-32.547-14.653-32.547-32.547v-8.88c0-17.893 14.653-32.547 32.547-32.547h215.106c17.893 0 32.547 14.653 32.547 32.547v8.88c0 17.893-14.653 32.547-32.547 32.547m472.052-.4h-319.626c-17.907 0-32.547-14.653-32.547-32.547v-8.88c0-17.893 14.64-32.547 32.547-32.547h319.626c17.907 0 32.547 14.653 32.547 32.547v8.88c0 17.893-14.64 32.547-32.547 32.547" class="F"/><path d="M2315.621 1091.844h-509.079v-53.307h509.079v53.307" class="E"/><path d="M1980.768 1893.962h-90.2v-172.733h90.2v172.733" class="H"/><path d="M2166.821 1893.962h-90.213v-275.479h90.213v275.479" class="F"/><path d="M2352.874 1893.962h-90.213v-335.959h90.213v335.959" class="H"/><path d="M2538.914 1893.962h-90.2v-189.773h90.2v189.773" class="F"/><path d="M2724.967 1893.962h-90.2v-299.399h90.2v299.399" class="H"/><path d="M2911.019 1893.962h-90.213V1480.83h90.213v413.132" class="F"/><path d="M1692.209 1502.83h-509.084v-32.507h509.084v32.507m0 391.132h-509.084v-332.373h509.084v332.373" fill="#e5ecff"/><path d="M1460.73 1685.136c-19.173-7.573-38.88-1.627-52.96 12.133-12.813 12.533-14.627 30.24-20.653 46.053 12.467 3.413 23.68 10.787 37.267 8.68 17.653-2.76 18.12-19.227 28.12-30.44 8.573-9.613 18.84-15.813 31.107-17.467-5.267-7.76-11.693-14.547-22.88-18.96m144.185-17.239c-17.36 3.773-35.6 9.947-47.987 22.6-10.64 10.88-10.267 29.827-18 41.267 8.733 5.813 18.56 8.533 28.147 3.36 9.373-5.067 15.053-16.467 25.16-21.44 8.133-3.987 19.8-6.52 28.64-8.093 2.027-.373 4.107-.6 6.173-.88v-40.4c-7.413.84-14.8 1.987-22.133 3.587" class="E"/><path d="M1620.876 1705.589c-8.84 1.573-20.507 4.107-28.64 8.093-10.107 4.973-15.787 16.373-25.16 21.44-9.587 5.173-19.413 2.453-28.147-3.36-3.44-2.293-6.72-5.053-9.733-8.027-11.947-11.773-15.68-18.427-34.573-19.96-3.853-.307-7.507-.147-11.013.32-12.267 1.653-22.533 7.853-31.107 17.467-10 11.213-10.467 27.68-28.12 30.44-13.587 2.107-24.8-5.267-37.267-8.68-4.973-1.347-10.147-2.093-15.747-1.32-13.147 1.8-21.467 9.693-30.64 15.68-6.387 4.173-13.171 7.427-22.303 7.027-20.383-.907-46.668-12.653-70.144-13.4v90.773h378.766v-137.373c-2.067.28-4.147.507-6.173.88" class="H"/><path d="M1340.73 1757.682c-1.493-1.293-2.907-2.707-4.173-4.28-9.377-11.64-10.129-26.413-20.508-37.32-20.201-21.24-47.793-12.84-67.765 5.227v30c23.476.747 49.761 12.493 70.144 13.4 9.132.4 15.916-2.853 22.303-7.027" class="E"/><path d="M793.815 1541.563l-96.789 18.973 22.091-142.333 59.516 1.213-.988 7.44c-2.201 19.133-1.063 38.333 1.367 55.493 4.859 33.707 14.804 59.213 14.804 59.213" class="C"/><path d="M779.011 1482.35c-37.197-17.533-51.013-54.36-51.013-54.36l49.647-1.133c-2.201 19.133-1.063 38.333 1.367 55.493" class="B"/><path d="M799.483 1337.203c3.795 13.28 25.304 97.413-13.917 106.906s-79.708-26.573-79.708-26.573l13.284-80.973 56.935-17.08 23.407 17.72" class="C"/><path d="M747.531 1382.99s10.199-67.293 51.951-45.787c-1.491-.773-3.656-7.493-4.587-9.013-4.215-6.893-9.628-13.173-16.168-17.96-23.763-17.413-63.821-11.093-82.992 8.947-18.872 19.72-19.449 54.76-9.728 80.24 1.572 4.12 3.563 8.067 5.947 11.787 2.167 3.36 4.735 6.173 7.624 8.947 2.481 2.387 21.109 17.053 21.304 5.773.475-27.52 26.649-42.933 26.649-42.933" fill="#eb5d60"/><path d="M756.553 1371.937c7.196 8.8 7.271 20.64.169 26.453-7.103 5.8-18.692 3.387-25.888-5.413s-7.272-20.64-.169-26.453c7.101-5.8 18.692-3.387 25.888 5.413m59.666 13.066c0 5.307-3.957 9.6-8.839 9.6s-8.839-4.293-8.839-9.6c0-5.293 3.957-9.587 8.839-9.587s8.839 4.293 8.839 9.587" class="C"/><path d="M680.553 2090.628l-115.134 49.347s94.89 241.653 122.726 256.839 13.917-118.933 32.895-159.413l24.04-94.893-64.527-51.88" class="B"/><path d="M720.62 2243.441l-49.975-3.467.84-12.107 49.975 3.48-.84 12.093" class="D"/><path d="M651.453 2072.922l69.586 164.48s270.755-141.706 337.812-270.759l-106.278-139.173-301.121 245.453" fill="#7d69ed"/><path d="M1014.569 2205.775s126.521 5.053 184.721-94.893l-129.052-18.987-55.669 113.88" class="B"/><path d="M1212.469 2223.041l-142.73 50.427-11.516-40.733-20.909-73.76 118.972-56.293 56.184 120.36" class="C"/><path d="M1392.863 2398.081l-156.25-123.36-24.119-51.653-142.744 50.373 35.281 124.64h287.831" class="B"/><path d="M1209.118 2319.588l-9.535-7.48 32.263-41.12 9.536 7.48-32.264 41.12" class="D"/><path d="M1164.649 2120.615l-106.426 112.12-20.909-73.76 118.972-56.293 8.364 17.933" class="G"/><path d="M1199.317 2110.855c-67.274 16.973-128.79 48.667-184.732 94.92l-96.182-253.039s-194.065 184.973-309.945 154.36c-110.124-29.093-62.063-211.333-62.063-211.333 151.214-105.88 391.764-248.066 497.16-135.453a15.24 15.24 0 0 1 1.395 1.387c21.576 23.707 45.94 70.546 68.849 122.426 45.697 103.333 85.517 226.733 85.517 226.733" fill="#7d69ed"/><path d="M1113.8 1884.122c-104.85 24.667-212.73-91.813-212.73-91.813l108.365-35.573 34.121 3.573a15.24 15.24 0 0 1 1.395 1.387c21.576 23.707 45.94 70.546 68.849 122.426m-102.045 322.719l-94.553-248.746c-20.503 19.493-132.076 121.573-249.709 152.586l-1.545-5.867c128.04-33.747 249.111-153.026 250.319-154.226l3.311-3.293 97.841 257.399-5.664 2.147" fill="#5b4dad"/><path d="M702.338 1488.723l-42.485 137.333-57.153 184.733s-41.697 14.973-78.485 10.307c-32.487-4.12-61.153-23.64-53.396-82.613 17.092-130 231.519-249.759 231.519-249.759" class="I"/><path d="M659.853 1626.056L602.7 1810.789s-41.697 14.973-78.485 10.307c30.848-189.64 132.91-270.426 132.91-270.426l2.728 75.386" fill="#e49b31"/><path d="M1117.981 1624.669l-31.636 120.48-106.79-100.72 42.364-71.04 96.062 51.28" class="I"/><path d="M1022.16 1573.523l40.528-64.773 81.881-34.907-26.829 151.066-95.58-51.387" class="C"/><g class="J"><path d="M1419.983 1449.576c-21.507-5.16-40.907-4.307-58.427 2.12-11.573 4.24-22.36 10.973-32.299 20.053l-39.576-91.746c13.757-2.427 26.304-6.547 37.637-12.547 16.424-8.68 30.117-21.213 40.784-38.253l51.88 120.373"/><path d="M1329.351 1471.683l-39.544-91.746-582.648 276.586 21.056 48.84 601.136-233.679-39.544-91.746 39.544 91.746"/></g><path d="M1419.983 1449.576c-21.507-5.16-40.907-4.307-58.427 2.12l-34.237-84.24c16.424-8.68 30.117-21.213 40.784-38.253l51.88 120.373" class="B"/><path d="M1776.889 1563.323c-157.866 68.04-340.999-4.76-409.039-162.626-68.052-157.866 4.76-340.999 162.626-409.052 157.853-68.04 340.986 4.773 409.039 162.626 68.04 157.866-4.76 340.999-162.626 409.052" class="J"/><path d="M1756.329 1515.616c-131.52 56.693-284.093-3.96-340.786-135.48s3.973-284.093 135.493-340.786 284.093 3.96 340.786 135.48-3.973 284.106-135.493 340.786" class="D"/><path d="M1417.29 1170.924h472.719l-3.12-6.773h-466.372l-3.227 6.773m471.945 214.946h-471.039l3.147 6.773h464.626l3.267-6.773" class="E"/><path d="M1460.023 1281.03v-5.267c0-21.267-17.4-38.667-38.667-38.667h-23.787c-4.293 27.013-4.36 54.867.24 82.6h23.547c21.267 0 38.667-17.4 38.667-38.667m122.853-43.932c-21.547 0-39.173 17.627-39.173 39.187v4.24c0 21.547 17.627 39.173 39.173 39.173h168.906c21.547 0 39.173-17.627 39.173-39.173v-4.24c0-21.56-17.627-39.187-39.173-39.187h-168.906m327.013 0h-8.707c-22.72 0-41.307 18.587-41.307 41.307 0 22.707 18.587 41.293 41.307 41.293h8.32c4.48-26.987 4.773-54.853.387-82.6" class="F"/><path d="M1117.981 1624.669l-38.788-20.733 23.637-51.333s32.909-59.453 49.333-56.907c16.425 2.48-34.183 128.973-34.183 128.973" class="C"/><path d="M979.58 1644.416l-8.053 13.52c-16.019-22.013-51.317-68.933-95.726-106.2-39.931-33.48-94.108-85.56-141.401-78.346-126.622 19.213-187.984 422.372-187.984 422.372l327.637-118.586 73.394 57.173c15.965 12.44 36.04 18.387 56.201 16.653a80.25 80.25 0 0 0 70.768-59.773l11.952-46.053-106.788-100.76" class="I"/><path d="M872.042 1779.442l-88.892-78.773 4.019-4.547 88.892 78.786-4.019 4.533m141.707-54.799l-53.537-75.76 4.948-3.493 53.537 75.76-4.948 3.493" fill="#e49b31"/><path d="M2638.807 861.951s-15.333 47.987-53.973 69.306c-38.653 21.32-89.96 43.973-72.64 51.307 17.333 7.333 63.64 2.667 63.64 2.667s-89.626 69.293-64.307 76.626 86.626-42.64 86.626-42.64-8.333 18.653 4.333 22.653c12.653 4 36.987-.667 36.987-.667s-3.333 13.32 21.987 9.987c25.32-3.32 91.28-83.293 91.28-83.293l4.667-73.293-118.6-32.653" class="G"/><g class="K"><path d="M2560.834 450.152s99.96-25.987 249.879 67.973c134.92 84.546 143.933 167.92 79.96 271.866-63.96 103.946-137.933 177.906-137.933 177.906l-113.933-105.946 99.946-155.92-177.92-255.879"/><path d="M2525.527 466.152s-141.266 75.96-213.239 239.879h493.105l-135.946-215.893-143.92-23.987"/></g><path d="M2386.421 705.365s48.48 8.493 65.467 0c17-8.493-36.973-32.987-83.453-44.48s-100.946-31.987-145.933 31.987c-44.973 63.973-40.48 68.466-25.987 67.466s48.973-43.973 48.973-43.973-36.973 46.467-19.493 51.467c17.493 5 59.48-58.467 59.48-58.467s-35.987 51.467-17.493 57.467 58.467-56.973 58.467-56.973-40.48 63.48-15.987 61.973c15.933-.973 34.2-28.813 45.013-48.16 6.28-11.24 18.067-18.307 30.947-18.307" class="G"/><path d="M2560.02 535.939c-19.2 0-34.36-8.24-34.653-8.4l2.96-5.293c2 1.107 49.453 26.747 80.066-20.96l5.107 3.267c-15.92 24.8-36.32 31.387-53.48 31.387m81.32 327.665l-5.08-3.307 128.906-198.04-49.44-77.146 5.093-3.267 51.573 80.44-131.053 201.319" class="B"/><path d="M2589.087 472.446c-8.147 28.987-46.92 35.08-64.787 10.853l-4.773-6.413-30.773-41.693 31.707-41.227 3.04-3.973 7.213 5.36 5.227 3.907 55.4 41.427c1.12 12.84.133 23.293-2.253 31.76" class="G"/><path d="M2519.527 476.886l-30.773-41.693 31.707-41.227 10.253 1.387 4.893.667.333 3.24c.8 10.72 1.853 46.187-16.413 77.626" class="B"/><path d="M2401.074 369.566s68.626 123.253 118.013 71.693c37.507-39.16 11.04-93.2 11.04-93.2l-36.4-35.307-81.08 24.267-11.573 32.547" class="G"/><path d="M2506.954 375.632s-23.16-36.813-48.387-19.44c-25.24 17.373-54.88 64.107-89.48 37.08-24.093-18.8-7.72-72.24 24.12-67.693 0 0 35.16-67.426 95.546-49.627 60.4 17.773 37.227 53.76 69.493 59.147 32.267 5.373 136.746 12.88 119.373 123.32 0 0-44.707-11.933-82.013-7.773-46.64 5.213-78.173-71.706-78.173-71.706-3.027.827-10.48-3.307-10.48-3.307" class="I"/><path d="M2530.954 372.739c0 13.013-8.16 23.573-18.2 23.573-10.053 0-18.2-10.56-18.2-23.573 0-13.027 8.147-23.587 18.2-23.587 10.04 0 18.2 10.56 18.2 23.587" class="G"/><path d="M3819.297 2402.427H164.692v-9.093h3654.606v9.093" class="B"/><path d="M2970.806 2211.281h249.999v-145.453h-249.999z" class="J"/><path d="M3249.899 2397.601l133.213 66.906-45.32-173.24-58.587-11.267-61.347 21.92 32.04 95.68" class="B"/><path d="M3279.232 2280.014l-29.333 117.573s-126.493-16.667-250.426-44.187c-57.16-12.6-113.76-27.573-157.16-44.293-22.853-8.787-42.053-18.067-55.76-27.707-96.306-67.88-61.933-224.186 101.4-197.453 63.267 10.36 131.52 38.547 193.093 70.48 28.067 14.493 54.667 29.827 78.786 44.547 70.426 42.92 119.4 81.04 119.4 81.04" class="K"/><path d="M2999.473 2353.401h0c-57.16-12.6-113.76-27.573-157.16-44.293l238.733-154.68c28.067 14.493 54.667 29.827 78.786 44.547l-160.36 154.426" fill="#2d54b9"/><path d="M2830.046 2301.254l-161.266 93.626 237.319-.987 15.227-89.973-91.28-2.667" class="B"/><path d="M2971.313 2280.601l-49.987 23.32-15.227 89.973 3.24-.013 99.28 1.333 34.653-43.32-71.96-71.293" class="C"/><path d="M2971.313 2280.601s189.24-185.24 353.159-229.226c151.973-40.773 197.24 111.946 111.946 187.92-85.293 75.96-427.799 155.92-427.799 155.92l-37.307-114.613" class="K"/><g class="B"><path d="M3009.366 2398.147l-1.48-5.867c117.533-29.68 238.293-61.907 325.439-96.44l2.24 5.64c-87.466 34.653-208.466 66.933-326.199 96.666m76.293-846.223c-17.027 1.387-33.08 5.587-47.253 15.667-11.827 8.413-20.893 20.067-26.72 33.32-9.027 20.573-6.933 43.547-13.853 64.627-6.667 20.293-23 30.76-38.2 44.32-14.64 13.053-25.173 34.653-19.96 54.493 1.453 5.493 4.133 10.6 7.68 15.04 2.707 3.4 11.013 13.2 15.68 13.227l257.399 1.133s47.827-44.8-7.213-97.186c-15.28-14.533-32.387-29.48-40.16-49.907-4.8-12.613-7.213-25.92-10.827-38.867-4.613-16.52-14.773-33.373-28.48-43.853-13.8-10.56-31.107-13.4-48.093-12.013"/><path d="M3064.019 1567.496s-42.893-32.653-.387-47.453c32.533-11.333 63.027 1.507 43.667 43.653l-43.28 3.8"/></g><path d="M3075.259 1731.202s-241.879 40.973-289.866 207.893c-47.973 166.92 243.999 177.746 243.999 177.746s286.746-9.827 337.719-55.8 76.96-278.866-263.866-327.839l-27.987-2" fill="#eb5d60"/><path d="M3090.846 1822.495a60.74 60.74 0 0 1-4.68-.187c-17.387-1.413-31.16-10.4-38.773-25.307l5.4-2.76c6.627 12.96 18.653 20.787 33.853 22.013 18.64 1.573 38.72-7.08 48.893-20.907l4.88 3.587c-10.493 14.267-30.36 23.56-49.573 23.56m-96.947 208.561l-126.52-102.266 3.813-4.72 126.52 102.28-3.813 4.707m199.853-.054l-3.973-4.587 115.413-99.746 3.96 4.573-115.4 99.76" fill="#ab4446"/><path d="M3214.472 2128.015h-251.759a15.34 15.34 0 0 1-15.333-15.333v-175.573a15.34 15.34 0 0 1 15.333-15.333h251.759c8.467 0 15.32 6.867 15.32 15.333v175.573c0 8.467-6.853 15.333-15.32 15.333" class="D"/><path d="M3061.979 1679.509l-6.573 62.627c-1.253 12 3.507 23.853 12.64 31.427 12.493 10.373 30.28 10.493 42.907.28l.573-.467c9.6-7.76 14.493-20.173 12.867-32.613l-8.133-62.373-54.28 1.12" class="C"/><path d="M3060.792 1692.389c19.173 37.587 40.813 38.347 57.32.947l-33.973-4.36-23.347 3.413" class="B"/><path d="M3135.792 1646.069c0 33.133-20.52 59.987-45.84 59.987s-45.84-26.853-45.84-59.987c0-33.12 20.52-59.973 45.84-59.973s45.84 26.853 45.84 59.973" class="C"/><path d="M3143.365 1636.203s-45.933-.76-61.12-37.96c0 0-24.68 8.733-31.133 40.613l-17.467 6.08-.373-50.107 38.72-24.68 34.547.76 30.373 25.427 6.453 39.867" class="B"/><path d="M3057.539 1641.243c5.12 9.867 2.48 21.387-5.893 25.733s-19.32-.133-24.427-10c-5.12-9.867-2.48-21.387 5.893-25.72 8.387-4.347 19.32.12 24.427 9.987m66.48 0c-5.12 9.867-2.467 21.387 5.907 25.733s19.307-.133 24.427-10 2.467-21.387-5.907-25.72c-8.373-4.347-19.307.12-24.427 9.987" class="C"/></svg>