<svg xmlns="http://www.w3.org/2000/svg" xmlns:xlink="http://www.w3.org/1999/xlink" width="666.667" height="666.667" xmlns:v="https://vecta.io/nano"><style><![CDATA[.Y{fill:none}.Z{stroke-miterlimit:10}.a{stroke-width:1.333}.b{stroke-linecap:round}.c{fill:#a9caed}.d{stroke:#6e86c5}.e{fill:#fff}.f{fill:#4497d8}.g{fill:#e1534d}.h{fill:#f7906c}.i{fill:#1a2c4c}.j{stroke-width:2.667}]]></style><g fill="#e4f6fd"><path d="M574.039 546.096c63.32-48.146 91.52-181.653-11.293-247.119-68.066-43.333-110.4-18.613-186.973-47.28-93.48-34.987-107.413-140.693-221.119-88.68-60.24 27.547-101.999 105.186-109.346 193.426-7.2 86.413 23.426 145.706 86.013 186.279 146.973 6.254 294.239 5.12 442.719 3.373"/><path d="M313.909 166.348c-9.564 38.4 25.952 76.413 63.368 92.173 37.417 15.773 80.324 13.893 120.409 6.373 17.296-3.24 35.075-7.8 48.512-18.827s21.227-30.173 13.863-45.64c-6.499-13.64-22.319-20.627-37.403-24.213s-31.103-5.053-44.54-12.6c-12.741-7.16-21.78-19.013-32.861-28.4-20.475-17.32-49.236-25.907-75.854-20.427-26.633 5.48-47.364 18.92-55.493 51.56"/></g><path d="M534.1 353.613c-13.904 0-25.177-11.272-25.177-25.176 0-13.889 11.273-25.161 25.177-25.161 13.889 0 25.161 11.272 25.161 25.161 0 13.904-11.272 25.176-25.161 25.176zm66.292-10.644V313.92h-11.016c-1.323-5.08-3.339-9.869-5.923-14.28l7.788-7.801-20.543-20.544-7.801 7.789c-4.412-2.584-9.2-4.6-14.28-5.924v-11.015h-29.051v11.015a56.37 56.37 0 0 0-14.279 5.924l-7.801-7.789-20.544 20.544 7.789 7.801a56.8 56.8 0 0 0-5.924 14.28h-11.015v29.049h11.015a56.8 56.8 0 0 0 5.924 14.28l-7.789 7.801 20.544 20.544 7.801-7.789a56.81 56.81 0 0 0 14.279 5.924v11.015h29.051v-11.015c5.08-1.336 9.868-3.34 14.28-5.924l7.801 7.789 20.543-20.544-7.788-7.801c2.584-4.411 4.6-9.2 5.923-14.28h11.016" class="c"/><path d="M481.755 433.647c-6.896 2.645-14.631-.8-17.276-7.695-2.643-6.888.803-14.624 7.699-17.269 6.888-2.641 14.623.804 17.265 7.692 2.645 6.895-.8 14.631-7.688 17.272zm30.851-17.891l-5.527-14.407-5.464 2.096c-1.621-2.268-3.533-4.259-5.653-5.955l2.379-5.351-14.097-6.28-2.387 5.347a29.95 29.95 0 0 0-8.209-.22l-2.095-5.463-14.408 5.527 2.096 5.463a29.93 29.93 0 0 0-5.955 5.655l-5.351-2.379-6.279 14.096 5.347 2.388c-.443 2.679-.525 5.435-.221 8.208l-5.463 2.096 5.527 14.407 5.463-2.096a30.2 30.2 0 0 0 5.655 5.955l-2.379 5.351 14.097 6.28 2.387-5.347a30.2 30.2 0 0 0 8.208.22l2.096 5.463 14.407-5.527-2.095-5.463a30.17 30.17 0 0 0 5.955-5.655l5.351 2.379 6.279-14.096-5.347-2.388a29.9 29.9 0 0 0 .221-8.208zm-68.048-38.445a9.04 9.04 0 0 1-11.673-5.2c-1.785-4.655.543-9.88 5.203-11.668 4.653-1.785 9.88.543 11.665 5.197a9.04 9.04 0 0 1-5.195 11.671zm20.845-12.089l-3.735-9.733-3.691 1.416a20.26 20.26 0 0 0-3.821-4.024l1.608-3.616-9.525-4.243-1.613 3.613c-1.809-.299-3.673-.359-5.545-.149l-1.416-3.691-9.735 3.733 1.416 3.692c-1.532 1.096-2.877 2.388-4.024 3.82l-3.616-1.607-4.243 9.525 3.613 1.612a20.36 20.36 0 0 0-.149 5.547l-3.691 1.416 3.733 9.735 3.692-1.416c1.1 1.531 2.388 2.877 3.82 4.023l-1.607 3.616 9.525 4.243 1.612-3.612a20.36 20.36 0 0 0 5.547.149l1.416 3.691 9.735-3.735-1.416-3.691a20.41 20.41 0 0 0 4.024-3.821l3.615 1.608 4.243-9.525-3.612-1.613c.299-1.809.359-3.673.149-5.547z" stroke="#a9caed" class="Y Z a"/><path d="M462.014 194.785c0 14.597-6.823 27.609-17.437 36.017-7.815 6.203-17.699 9.883-28.464 9.883a45.71 45.71 0 0 1-28.464-9.883c-10.627-8.408-17.436-21.42-17.436-36.017 0-25.349 20.552-45.901 45.9-45.901s45.901 20.552 45.901 45.901" class="f"/><path d="M462.014 194.785c0 14.597-6.823 27.609-17.437 36.017-7.815 6.203-17.699 9.883-28.464 9.883a45.71 45.71 0 0 1-28.464-9.883c-10.627-8.408-17.436-21.42-17.436-36.017 0-25.349 20.552-45.901 45.9-45.901s45.901 20.552 45.901 45.901z" stroke="#4497d8" class="Y Z a"/><g class="e"><path d="M416.112 164.653c8.299 0 15.025 6.727 15.025 15.024a15.03 15.03 0 0 1-15.025 15.025 15.03 15.03 0 0 1-15.024-15.025c0-8.297 6.727-15.024 15.024-15.024"/><path d="M444.576 225.013c-7.815 6.203-17.699 9.883-28.464 9.883a45.71 45.71 0 0 1-28.464-9.883c2.936-12.916 5.637-24.067 8.449-26.893 3.971-3.969 14.515-6.285 20.001-6.285s16.527 2.812 18.567 4.852c4.163 4.149 7.747 15.604 9.911 28.327"/></g><g class="f"><path d="M350.146 307.937V285.27a11.2 11.2 0 0 1 11.2-11.2h71.413a11.2 11.2 0 0 1 11.2 11.2v22.667a11.2 11.2 0 0 1-11.2 11.2h-71.4c-6.187.013-11.213-5.013-11.213-11.2"/><path d="M380.306 306.75l-34.56 33.667 56.013-28.307"/></g><path d="M358.812 284.71v-.12a1.67 1.67 0 0 1 1.667-1.667h35.307a1.67 1.67 0 0 1 1.667 1.667v.12a1.67 1.67 0 0 1-1.667 1.667h-35.307a1.67 1.67 0 0 1-1.667-1.667m40.227 0v-.12a1.67 1.67 0 0 1 1.667-1.667h30.813a1.67 1.67 0 0 1 1.667 1.667v.12a1.67 1.67 0 0 1-1.667 1.667h-30.813a1.67 1.67 0 0 1-1.667-1.667m-13.453 7.587v-.12a1.67 1.67 0 0 1 1.667-1.667h44.267a1.67 1.67 0 0 1 1.667 1.667v.12a1.67 1.67 0 0 1-1.667 1.667h-44.267a1.67 1.67 0 0 1-1.667-1.667m-26.774 0v-.12a1.67 1.67 0 0 1 1.667-1.667h19.773a1.67 1.67 0 0 1 1.667 1.667v.12a1.67 1.67 0 0 1-1.667 1.667h-19.773a1.67 1.67 0 0 1-1.667-1.667m32.92 7.587v-.12a1.67 1.67 0 0 1 1.667-1.667h38.12a1.67 1.67 0 0 1 1.667 1.667v.12a1.67 1.67 0 0 1-1.667 1.667h-38.12a1.67 1.67 0 0 1-1.667-1.667m-32.92 0v-.12a1.67 1.67 0 0 1 1.667-1.667h26.333a1.67 1.67 0 0 1 1.667 1.667v.12a1.67 1.67 0 0 1-1.667 1.667h-26.333a1.67 1.67 0 0 1-1.667-1.667m0 7.586v-.12a1.67 1.67 0 0 1 1.667-1.667h9.773a1.67 1.67 0 0 1 1.667 1.667v.12a1.67 1.67 0 0 1-1.667 1.667h-9.773a1.67 1.67 0 0 1-1.667-1.667m16.56 0v-.12a1.67 1.67 0 0 1 1.667-1.667h54.48a1.67 1.67 0 0 1 1.667 1.667v.12a1.67 1.67 0 0 1-1.667 1.667h-54.48a1.67 1.67 0 0 1-1.667-1.667" class="e"/><path d="M118.154 215.934c22.803-8.653 48.303 2.816 56.956 25.617s-2.816 48.301-25.617 56.956-48.302-2.816-56.956-25.617 2.815-48.303 25.617-56.956" class="f"/><path d="M133.064 283.526c-2.558 5.328-8.951 7.573-14.278 5.016s-7.573-8.951-5.015-14.279 8.951-7.573 14.279-5.016 7.573 8.951 5.015 14.279" class="e"/><path d="M117.798 282.736l-.517-6.787 5.619-3.84 6.136 2.945.517 6.787-5.619 3.841-6.136-2.947" class="f"/><path d="M153.877 240.178c-2.559 5.328-8.951 7.573-14.279 5.015s-7.573-8.951-5.016-14.277 8.952-7.573 14.279-5.016 7.573 8.951 5.016 14.279" class="e"/><path d="M138.922 238.74l.368-8.629 6.503-5.684 6.136 2.947-.368 8.629-6.504 5.683-6.135-2.945" class="f"/><path d="M130.829 273.949l-8.187-3.931 6.049-13.956 1.253-2.608 7.107-13.448 8.187 3.931-5.835 13.743-1.499 3.121-7.076 13.148" class="e"/><path d="M164.498 280.98c1.579-.731 26.915.424 26.915.424l-18.263-16.768-8.652 16.344m71.725-159.064c23.971-.143 43.519 19.172 43.663 43.143s-19.172 43.52-43.143 43.663-43.519-19.171-43.663-43.141 19.172-43.52 43.143-43.664" class="f"/><g class="e"><path d="M237.933 164.781h-2.899V128.33h2.899v36.451m-3.1 0l1.651 2.384-30.379 21.028-1.651-2.384 30.379-21.028"/><path d="M240.478 165.319c0 2.207-1.788 3.996-3.995 3.996s-3.995-1.789-3.995-3.996 1.788-3.995 3.995-3.995 3.995 1.789 3.995 3.995"/></g><path d="M354.319 459.217c-2.573-39.68 14.787-80.746 44.027-104.24.907 39.88-16.28 80.24-44.027 104.24" class="c"/><path d="M393.572 365.657c-12.32 22.96-22.973 46.987-31.827 71.773-10.76 30.093-19.227 62.067-37.653 87.293" class="Y Z a b d"/><path d="M345.092 484.176c14.8-33.107 44.173-58.12 76.56-65.2-13.787 35.48-44.8 62.547-76.56 65.2" class="c"/><path d="M413.706 426.27c-22.12 19.467-44.613 38.387-67.48 56.747" class="Y Z a b d"/><path d="M336.359 513.016c19.773-29.533 56.253-44.947 86.44-36.52-22.2 29.16-58.76 44.613-86.44 36.52" class="c"/><path d="M415.559 478.63c-25.92 16.213-53.88 28.187-82.706 35.387" class="Y Z a b d"/><path d="M347.039 474.136c6.32-33.253-3.16-70.32-24.267-94.84-8.653 32.68-.4 70.973 24.267 94.84" class="c"/><path d="M324.946 387.777c4.16 30.933 11.56 59.907 23.027 88.226" class="Y Z a b d"/><path d="M336.186 502.456c-2.693-34.187-20.213-66.293-45.84-84.013 1.48 18.107 6.293 35.56 13.933 51.427 8.787 18.227 21.693 29.787 31.907 32.587" class="c"/><path d="M294.146 425.363c10.08 28.507 24.587 54.933 42.68 77.813" class="Y Z a b d"/><path d="M534.092 494.256c13.987-36.387 46.16-65.907 81.64-74.893-15.547 35.893-47.28 64.827-81.64 74.893" class="c"/><path d="M607.132 426.923a516.98 516.98 0 0 0-57.547 50.947c-21.84 22.427-42.44 47.44-69.066 62.4" class="Y Z a b d"/><path d="M515.705 512.723c26.653-23.453 62.867-33.747 94.386-26.84-26.72 25.987-65.227 37.44-94.386 26.84" class="c"/><path d="M600.078 489.15c-27.533 8.32-55.173 15.987-82.906 23.013" class="Y Z a b d"/><path d="M496.159 534.856c29.587-18.24 68.146-17.08 91.373 2.747-31.573 16.907-70.226 15.747-91.373-2.747" class="c"/><path d="M580.265 536.536c-29.547 3.867-59.187 3.12-87.6-2.227" class="Y Z a b d"/><path d="M521.545 504.576c19.213-27.04 26.027-63.933 17.427-94.386-21.053 25.573-29.453 63.053-17.427 94.386" class="c"/><path d="M537.412 418.617c-9.013 29.253-14.333 58.08-15.8 88" class="Y Z a b d"/><path d="M500.345 525.376c11.627-31.547 9.307-67.306-6.08-93.546-6.107 16.733-9.013 34.24-8.76 51.493.28 19.813 6.947 35.387 14.84 42.053" class="c"/><path d="M494.772 439.537c-2.773 29.507-.787 58.973 5.827 86.733" class="Y Z a b d"/><path d="M137.689 430.638c-14.259-43.612-54.049-78.85-100.338-88.852 19.46 37.731 54.759 67.758 100.338 88.852m2.415 6.765c-31.233-17.663-70.366-21.556-104.291-10.392 31.465 15.717 68.748 20.096 104.291 10.392m8.638 9.458c-33.756-4.677-69.105 3.643-96.519 22.716 31.085 11.3 68.38 3.972 96.519-22.716m10.526 20.66c-33.428-.14-66.295 15.748-85.943 41.543 14.877 2.981 30.675 1.2 44.323-4.981s25.084-16.728 41.62-36.561m23.566 34.565c-32.961-5.651-68.081 4.564-91.848 26.716 14.186 5.388 30.07 6.249 44.585 2.423s27.583-12.328 47.264-29.139m-35.586-69.382c-21.765-29.337-27.673-68.87-15.307-102.502 9.443 15.991 17.59 32.897 21.394 50.868s3.064 37.131-6.087 51.635m13.297 28.303c-5.155-31.168 5.503-64.204 28.013-86.777 2.591 32.247-7.276 65.097-28.013 86.777" class="c"/><g class="Y Z a b d"><path d="M47.484 349.602c66.246 42.385 118.053 105.562 145.401 177.341"/><path d="M134 345.667c8.057 32.719 12.96 66.123 14.619 99.625m34.991-58.405c-2.639 26.397-10.797 52.197-23.829 75.436m-110.023-34.55c30.371 5.776 61.239 8.907 92.114 9.365m-73.813 29.845c28.004-2.033 55.555-8.819 81.021-19.961m-64.244 57.333l77.523-38.684m-60.717 61.445c33.737-6.509 43.761-14.277 81.206-25.027"/></g><path d="M315.226 465.323s2.92 26.76 6.187 28.907c5.84 3.853 73.44 12.76 73.44 12.76l-2.213 17.587s-92.586 8.32-96.52 3.693c-6.827-8.027-18.827-46.747-18.827-46.747l37.933-16.2" class="g"/><path d="M270.586 396.43l7.48-17.96s20.293 9.533 26.987 21.307c7.16 12.587 15.92 79.506 15.92 79.506s-35.827 8.253-42.413 4.747-7.973-87.6-7.973-87.6" fill="#f0a71c"/><path d="M213.613 313.07c-5.24-1.92-10.787-3.6-16.4-3.173s-11.347 3.4-13.253 8.333c-1.36 3.493-.733 7.613-2.88 10.76-2.053 3.013-6.133 4.267-9.947 4.52-3.827.267-7.68-.24-11.48.253-11.733 1.56-20.107 14.307-16.253 24.747 1.533 4.16 4.68 8.133 3.96 12.467-.76 4.64-5.627 7.693-7.627 12-2.653 5.733.52 12.68 5.76 16.587 5.24 3.893 12.053 5.373 18.667 6.36 9.107 1.36 18.507 2 27.507.08s17.6-6.667 22.253-14.08c2.067-3.28 3.32-6.987 5.72-10.067 4.96-6.36 13.747-8.827 20.667-13.333 7.56-4.947 13.107-14.573 8.653-22.107-4.293-7.24-15.467-8.853-19.947-15.987-1.853-2.947-2.293-6.453-3.493-9.667-1.227-3.227-4.16-4.853-11.907-7.693" fill="#16233a"/><path d="M244.146 401.883c1.32 1.52 2.88 3.187 5.04 3.333 2.28.16 4.187-1.453 5.653-3.013 7.573-8.013 12.573-17.853 14.6-28l-5.333-3.053c-1.52-.907-2.667-2.173-3.32-3.653a7.02 7.02 0 0 1-.493-3.44c1.067-10.027 2.013-15.613 5.533-25.787-16.72-3.773-32.493-8.253-41.56-15.827-1.107 4.667-2.413 13.8-5.2 22.853-2.973 9.587-7.613 19.067-15.48 23.147 15.44 9.12 29.213 20.453 40.56 33.44" class="h"/><path d="M260.293 364.07c-.12 1.2.04 2.36.493 3.44-9.893 12-32.013-3.68-41.72-22.2 2.787-9.053 4.093-18.187 5.2-22.853 9.053 7.573 24.84 12.067 41.56 15.827-3.52 10.173-4.467 15.747-5.533 25.787" class="g"/><path d="M287.839 509.136c-2.187 14.48 13.44 30.067 13.827 37.8-33.187 0-102.706 2.027-138.106-2.787-1.613-8.933 15.867-29.027 15.867-48.867 0-2.627-.107-5.507-.32-8.6-.56-8.853-1.867-19.387-3.32-30.187-3.947-28.973-9.2-59.96-5.32-66.387 7.6-12.52 25.373-21.027 34.187-24.68 3.027-1.253 5-1.933 5.147-2.013 11.053 18.853 33.547 34.933 42.04 34.213 2.36-.187 9.36-2.627 13.987-25.92 1.8 1.027 3.6 1.973 5.387 2.893 8.787 4.573 17.027 8.347 19.4 14.227 6.267 15.48 12.413 54.507 11.053 68.388-1.373 14-7 24.692-10.947 38.745-.92 3.293-1.76 6.787-2.44 10.548-.173.839-.307 1.719-.44 2.625" fill="#fbc326"/><path d="M301.666 546.936c-33.187 0-102.706 2.027-138.106-2.787-1.613-8.933 15.867-29.027 15.867-48.867 0-2.627-.107-5.507-.32-8.6-.56-8.853-1.867-19.387-3.32-30.187 6.28 6.627 15.44-21.373 19.493-13.173 21.933 44.267 39.227 55.907 69.28 55.907 8.96 0 17.227-1.24 26.16-3.267-.92 3.293-1.76 6.787-2.44 10.547-.16.853-.307 1.733-.44 2.64-2.187 14.453 13.44 30.04 13.827 37.787" fill="#fab31f"/><path d="M271.213 374.603c-1.427 10.36-5.653 24.32-17.947 28-16.613 4.973-40.653-26.067-48.613-37.173 3.027-1.253 5-1.933 5.147-2.013 11.053 18.853 33.547 34.933 42.04 34.213 2.36-.187 9.36-2.627 13.987-25.92 1.8 1.013 3.6 1.96 5.387 2.893" fill="#f8e354"/><g fill="#345a73"><path d="M278.039 531.35l-.12 11.56 206.666 1.227.427-13.107-206.973.32"/><path d="M574.159 428.217l-4.6-4.667-150.533-.987-75.52 109.213 3.947 3.173 226.706-106.733"/></g><path d="M421.932 426.603l-74.48 108.347 142.266.706 84.44-107.439-152.226-1.613" class="i"/><path d="M457.879 479.203c9.147 0 16.56 3.708 16.56 8.28s-7.413 8.28-16.56 8.28-16.56-3.707-16.56-8.28 7.415-8.28 16.56-8.28" fill="#40718f"/><path d="M281.095 319.648c2.347-12.589 10.98-21.541 19.283-19.993s13.133 13.007 10.788 25.596-10.98 21.541-19.283 19.993-13.133-13.007-10.788-25.596" fill="#73c9f1"/><path d="M311.186 285.737c-1.547 10.96-6.44 23.04-13.573 36.387-2.507-10.933-4.107-24.253-6.32-37.573-2.253-13.347-5.12-26.693-10.093-37.6-1.12-2.413-2.333-4.72-3.653-6.853a24.33 24.33 0 0 1 8.773.787c4.44 1.187 8.6 3.48 12 6.547 5.653 5.027 9.44 11.88 11.693 19.107 1.853 6 2.187 12.373 1.173 19.2" class="i"/><path d="M302.813 297.07l-.427 6.547c-3.04 35.467-17.933 59.8-40.72 59.8-32.173 0-53.027-36.08-53.027-71.426 0-34.867 21.36-60.107 46.36-57.187 14.413 1.653 24.947 6.44 32.427 13.453 4.947 4.667 8.52 10.307 10.96 16.72 2.787 7.187 4.133 15.32 4.413 24.08 0 .027.027.053.027.08.107 2.587.08 5.227-.013 7.933" class="h"/><path d="M302.813 297.07c-.96-3.427-2.387-6.773-4.333-9.773-18.973 9.92-41.587 13.747-63.027 10.12l-12.08 10.093c.08-16.133.307-27.053 6.6-34.867 5.907-7.333 15.76-10.093 25.093-11.293a116.07 116.07 0 0 1 31.667.2c4.013.56 8.173 1.427 11.667 3.453 2.787 7.187 4.133 15.32 4.413 24.08 0 .027.027.053.027.08.093 2.56.067 5.2-.027 7.907" class="g"/><path d="M307.453 275.23c-4.413 3.733-9.947 6.827-16.16 9.333-17.68 7.133-40.653 9.493-58.56 8.627-8.8 19.333-12.36 26.267-14.613 43.133-8.6-8.067-15.6-22.84-17.68-34.453-2.053-11.573-1.853-23.72 1.373-35.093 5.08-17.933 17.893-27.533 26.773-32.2 2.213-1.213 4.213-2.053 5.76-2.667 11.347-4.387 24.133-3.987 35.773-.427 6.347 1.973 11.693 5.307 16.187 9.413 9.08 8.2 14.693 19.307 18.32 27.627 1.147 2.547 2.067 4.853 2.827 6.707" class="i"/><path d="M311.186 285.737c-.733-3.88-1.827-7.64-3.373-11.267-.867-2.053-1.933-4.04-3.173-5.96-4.04-6.347-9.92-11.573-17.027-13.88-2.027-2.84-4.16-5.4-6.4-7.667-8.067-8.2-17.533-12.893-27.56-14.533-8.347-1.347-17.027-.587-25.04 2.133 2.213-1.213 4.213-2.053 5.76-2.667 11.347-4.387 24.133-3.987 35.773-.427 6.347 1.973 11.693 5.307 16.187 9.413 4.44 1.187 8.6 3.48 12 6.547 5.653 5.027 9.44 11.88 11.693 19.107 1.84 6 2.173 12.373 1.16 19.2" fill="#2a5070"/><g class="Y Z b j"><path d="M242.986 307.484c5.947-3.4 12.12-4.933 20.773-1.773m19.947 1.533c5.093-3.8 12.64-4.187 16.573 0" stroke="#1a2c4c"/><path d="M277.559 326.63c.52 2.693.24 8.653-1.04 11.333" stroke="#cd3249"/></g><g fill="#25293b"><use xlink:href="#A"/><use xlink:href="#A" x="32.067" y="-1.8"/></g><path d="M274.519 343.23s-.48.933-1.4 2.2c-1.44 1.933-3.893 4.6-7.24 5.64h-.013c-1.413.453-2.947.613-4.653.307-5.013-.893-6.333-5.52-6.573-9.08-.053-.693-.053-1.333-.04-1.92.027-1.44.187-2.4.187-2.4 7.987 4.4 19.733 5.253 19.733 5.253" fill="#cd3249"/><path d="M274.519 343.23s-.48.933-1.4 2.2c-4.08-.053-12.427-2.147-18.52-5.053.027-1.44.187-2.4.187-2.4 7.987 4.4 19.733 5.253 19.733 5.253" class="e"/><path d="M265.866 351.057c-1.413.453-2.947.613-4.653.307-5.013-.893-6.333-5.52-6.573-9.08 2.427.293 4.773 1.227 6.72 2.707 2.04 1.56 3.6 3.68 4.507 6.067" fill="#ea509c"/><path d="M218.199 301.364s-.28-16.627 6.64-33.147c8.68-20.733 26.373-29.6 43.533-30.2 20.68-.733 33.627 13.147 33.627 13.147s-6.733-11.88-20.013-15.293c-8.72-2.24-21.88-2.6-32.44 1.693-10.88 4.413-24.44 16.667-29.347 29.613-4.893 12.947-7.28 33.107-7.28 33.107l5.28 1.08" fill="#537ec8"/><path d="M212.805 296.066c8.855-.921 17.163 9.209 18.559 22.628s-4.653 25.04-13.508 25.961-17.164-9.211-18.559-22.628 4.652-25.041 13.508-25.961" fill="#73c9f1"/><path d="M208.307 303.924c5.717-.859 11.576 6.597 13.087 16.653s-1.897 18.905-7.613 19.765-11.576-6.597-13.087-16.655 1.897-18.905 7.613-19.764" fill="#537ec8"/><path d="M268.506 353.217c4.743 0 8.587 2.395 8.587 5.347s-3.844 5.347-8.587 5.347-8.587-2.393-8.587-5.347 3.845-5.347 8.587-5.347" fill="#4d92cf"/><path d="M225.373 340.683s12.613 16.213 34.547 17.88" stroke="#4d92cf" class="Y Z b j"/><path d="M277.919 500.483l-.827 21.32s-77.106 23.107-89.84 15.8c-6.213-3.573-12.013-23.227-16.347-42.413-4.533-20.16-7.44-39.787-7.44-39.787l45.2-8.853s.027 27.56 1.56 43.493c.547 5.933 1.333 10.253 2.387 10.96 3.987 2.627 65.307-.52 65.307-.52" class="h"/><path d="M210.226 490.016c-8.213 2.667-24.067 6.787-39.32 5.16-4.533-20.16-7.44-39.787-7.44-39.787l45.2-8.853c0-.013.027 27.547 1.56 43.48" class="g"/><path d="M275.719 500.696c11.467-2.453 30.88-8.347 38.933-10.373 5.72-1.44 20.613 6.267 24.547 13.533 1.72 3.173 3.347 21.147-2.613 19.293-2.987-.933-2.493-8.64-3.427-11.787-.76-2.56-3.187-5.04-6.88-7.173 2.467 6.147 2.373 11.507 2.107 18.147-.053 1.467-.147 3-.853 4.267-.72 1.267-2.267 2.173-3.6 1.613-1.36-.56-1.827-2.253-2.133-3.733-1.053-5.12-2.12-10.24-2.547-16.027.107 5.693-.013 11.4-.373 17.08-.267 4.347-2.427 6.733-5.08 5.973-1.187-.333-1.667-1.427-2.173-2.867-.8 2.787-2.8 5.867-5.387 4.693-1.573-.707-2.547-6.387-2.267-12.227-4.96 3.08-10.56 4.387-17.013 4.68-5.787.267-11.707-.813-15.187-4.747.347-6.147 2.373-15.24 3.947-20.347" class="h"/><path d="M311.746 527.763c.387-4.613-.013-9.293-1.187-13.747" stroke="#cd3249" class="Y Z a b"/><path d="M203.586 401.83c-3.28-9.24-15.293-28.147-15.293-28.147s-18.333 7.627-24.84 20.573c-11.013 21.92-5.413 84.853-5.413 84.853 14.84 6.213 44.627 6.307 57.307 4.52 0 0-5.187-63.333-11.76-81.8" fill="#fbc326"/><path d="M205.919 405.697c5 23.933 7.68 46.253 8.533 68.12" stroke="#f0a71c" class="Y Z a b"/><path d="M72.613 540.336h525.705v13.186H72.613v-13.186" class="i"/><defs><path id="A" d="M257.466 320.71c1.355 0 2.453 1.732 2.453 3.867s-1.099 3.867-2.453 3.867-2.453-1.731-2.453-3.867 1.099-3.867 2.453-3.867"/></defs></svg>