<svg xmlns="http://www.w3.org/2000/svg" xmlns:xlink="http://www.w3.org/1999/xlink" width="866.667" height="666.667" xmlns:v="https://vecta.io/nano"><path d="M787.731 575.293h-23.387c-4.924-.974-92.717-1.286-202.746-1.286l-432.704.882H98.119c-.083-.127-.166-.256-.253-.409-18.64-32.973-36.387-67.2-45.307-104.719-8.92-37.533-8.227-79.133 8.72-113.173 23.04-46.24 71.746-71.72 95.213-117.693 4.799-9.404 8.637-19.163 12.305-28.987h44.263l18.876 23.788.763-23.788h.172a22.32 22.32 0 0 0 22-18.576l11.06-65.052c2.316-13.624-8.181-26.057-22-26.057h-2.489l3.011-2.315c29.967-22.557 66.832-35.487 103.664-35.487 9.955 0 19.909.945 29.721 2.9 26.189 5.216 50.501 17.211 72.466 32.145 4.479 3.044 9.029 6.192 13.5 9.481l-4.723 27.773c-1.692 9.953 5.977 19.036 16.072 19.036h.475l-9.365 13.623 23.712-13.623h78.713c6.841 0 12.824-4.248 15.209-10.427 8.316.136 16.415 1.405 24.108 4.855 16.661 7.471 35.744 25.972 46.048 43.816h-11.564c-12.069 0-22.379 8.704-24.401 20.603l-12.265 72.15c-2.569 15.111 9.075 28.9 24.401 28.9h.719l-5.529 29.577 27.312-29.577h70.128l3.399 2.72c26.813 21.493 52.64 45.373 71.493 75.346 18.84 29.973 30.24 66.866 25.707 102.92-3.107 24.773-18.667 65.8-35.72 80.653" fill="#fef9f9"/><path d="M552.239 354.181c-4.268 6.692-15.412 14.496-23.323 14.383-26.935-.496-35.793-18.843-38.703-25.527.548-.133 1.468-.243 2.12-.323 4.967-.715 10.028-5.623 11.513-11.161 1.911-7.197 4.252-21.275 3.976-30.227l34.064 18.855c-.053 2.584-.224 5.412-.472 8.264l-.548 5.093-.595 4.487c-.627 4.668 1.459 9.297 5.391 11.868l6.576 4.288" fill="#f5745d"/><path d="M555.176 280.848c-1.837 4.824-1.06 10.303.805 15.116 1.321 3.404 4.253.4 7.904.46 5.647.095 10.063-5.784 13.483-21.375 2.169-11.439 2.72-17.244 2.287-18.343-1.559-3.955-6.7-6.08-10.943-6.451" fill="#392621"/><path d="M563.775 246.568c8.903 10.732 12.147 40.936 4.623 61.968-5.349 14.956-11.556 24.612-18.819 24.301-11.011-.469-32.356-9.513-39.313-17.081-12.516-13.617-8.873-40.301-6.289-57.112 2.349-15.272 9.492-35.089 28.681-31.317 12.619 2.48 23.124 9.607 31.117 19.241" fill="#f5745d"/><g fill="#392621"><path d="M513.189 256.229c1.979 2.361 5.456 2.885 8.324 3.349 3.849.623 5.765 1.937 7.753 5.437 1.272 2.239 2.537 4.689 4.807 5.905 1.068.573 2.689.652 3.217-.439-1.017-.675-1.357-2.069-1.101-3.261s.992-2.22 1.764-3.164c.653.887.723 2.059 1.081 3.1a5.74 5.74 0 0 0 2.811 3.217c.207.104.433.197.664.167.311-.044.543-.301.745-.543 1.405-1.679 2.775-4.884 4.724-5.904.387 1.832 1.089 3.273 2.219 4.788.984 1.316 2.163 2.675 3.776 2.989.521.101 1.168.024 1.416-.445.3-.572-.169-1.152-.097-1.732.068-.548.325-.788.607-1.251.717-1.187 1.365-2.336 2.304-3.373 1.907 2.167 3.988 4.179 6.216 6.011.493.404 1.219.805 1.711.4.261-.215.332-.579.385-.913l.821-5.081c.153-.951.712-2.191 1.644-1.948.452.117.725.561.971.959.312.509 5.78 6.284 5.897 5.837.851-3.279 2.603-6.268 3.453-9.547 5.481-21.123-19.003-38.1-37.713-38.189-4.164-.02-8.059.852-12.092 1.747-4.303.955-8.756 1.664-12.671 3.809-5.473 3.001-9.632 8.451-8.563 14.96"/><path d="M522.204 250.637c2.713 3.079 3.44 7.408 3.691 11.504.376 6.168-.129 12.584-2.985 18.064-.813 1.559-1.409 9.28-2.664 8.853-.399-.135-.332-6.116-1.383-9.344-1.624-5.001-9.123-6.901-12.493-3.749-5.383 5.033-2.224 11.139-.445 14.936 1.073 2.291 2.764 4.868 3.049 7.297.367 3.109.468 14.421-1.559 17.073-1.693 2.215-3.497-8.484-5.021-10.592-11.348-15.693-22.232-55.659-2.849-64.315 2.945-1.315 12.047-2.001 14.801-.323"/></g><path d="M593.927 568.292c1.127.191 2.26.345 3.421.382 6.236.204 12.261-1.17 18.363-2.219 5.364-.924 6.817-1.432 6.701-7.898-.929-51.216-8.467-102.286-22.011-151.689-2.069-7.545-4.316-15.141-8.276-21.888-6.755-11.503-22.285-21.444-34.184-27.019-1.683-.789-8.644 3.637-10.337 2.873-1.485-.673-2.791-1.703-4.285-2.357-4.369-1.912-7.3 2.085-10.959 3.745-1.888.856-4 1.396-6.084 1.307-1.693-.071-3.227-1.091-4.779-.288-6.961 3.596-24.247-23.127-24.247-23.127l-7.481 7.821-21.901 22.944-54.751 75.425-16.764 102.333c-1.181 6.992-5.883 22.09-6.812 27.39.2-1.14 46.728-1.459 49.244-1.459h94.838c5.319 0 19.625 2.259 23.361-1.651 4.596-4.805 9.924-26.83 10.197-33.002.917-20.758-.503-41.358-.781-62.246.113 8.491 2.556 16.175 3.597 24.495 1.341 10.705 3.267 21.405 4.995 32.057 1.389 8.566 2.72 17.142 3.785 25.754.48 3.876-.139 6.184 3.145 7.701 2.763 1.275 8.78.066 12.003.615" fill="#d2653a"/><path d="M576.359 550.556c-2.537-1.045-18.175-4.924-25.227-6.384-3.7-.765-20.439-5.107-24.317-5.107s-9.159 5.545-9.159 5.545l1.399 19.078c3.731-.375 8.731 1.565 11.416 1.94s11.789.419 17.385-2.388c.32-.16.608-.34.911-.511 2.255 1.995 5.084 3.945 8.207 4.1 0 0 2.448-.245 2.216-1.237-.113-.482-1.729-2.961-3.36-5.383 2.395 2.441 6.317 6.396 10.839 6.62 0 0 2.448-.245 2.215-1.237-.137-.583-2.475-4.094-4.376-6.884l.083.066c1.983 1.749 6.703 7.779 12.297 8.056 0 0 2.448-.245 2.213-1.237-.084-.359-1.008-1.835-2.147-3.564 1.428 1.088 3.179 2.253 5.297 3.3 6.044 2.984 9.477.719 9.477 0s-12.833-13.728-15.369-14.772" fill="#f5745d"/><path d="M521.971 528.4s9.739 5.52 8.873 17.252-4.391 25.338-19.087 23.913 10.213-41.165 10.213-41.165" fill="#953e23"/><path d="M508.592 568.4c-35.223 12.228-82.36.548-112.238-19.761-18.719-12.698-30.66-28.81-28.653-44.557 5.216-40.907 37.361-134.662 65.18-148.349 18.903-9.308 41.845-13.167 54.621-14.704 5.996-.731 9.749-.913 9.749-.913l-4.64 13.088-23.229 65.492c-.86 38.875-28.68 61.947-23.152 70.994 5.527 9.02 49.224 18.772 72.166 34.232 6.361 4.301 14.417 35.353-9.804 44.479" fill="#d2653a"/><path d="M367.704 505.087l-.073 2.728c.004.453-.06.907-.001 1.357l.156 1.352c.131.893.128 1.808.359 2.684l.647 2.631c1.072 3.44 2.552 6.761 4.569 9.751 3.871 6.083 8.993 11.304 14.64 15.785 11.32 8.985 24.355 15.702 37.953 20.59 13.572 4.996 27.805 8.29 42.236 9.487 7.209.62 14.476.691 21.696.074 7.225-.556 14.403-1.885 21.359-4.048-6.815 2.595-14.011 4.133-21.26 5.023-7.265.822-14.607.924-21.909.485-7.309-.415-14.571-1.513-21.719-3.073a168.02 168.02 0 0 1-21.089-6.072c-6.864-2.543-13.58-5.515-20.008-9.034-6.415-3.53-12.621-7.505-18.231-12.247-5.62-4.7-10.72-10.141-14.5-16.461-1.928-3.129-3.305-6.588-4.247-10.124-.933-3.564-1.005-7.28-.577-10.888m101.68-86.384c.028 7.372-1 14.759-2.915 21.911-1.937 7.151-4.756 14.045-8.041 20.673-1.633 3.32-3.388 6.575-5.185 9.792-1.779 3.223-3.603 6.423-5.095 9.712-.733 1.64-1.369 3.329-1.625 4.995-.071.817-.137 1.651.097 2.363.051.384.28.681.412 1.025.255.305.429.641.744.929 2.38 2.387 5.797 4.005 9.045 5.556 13.308 6.06 27.436 10.553 40.911 16.615 6.733 3.029 13.403 6.292 19.596 10.375l1.151.779c.383.267.748.615 1.117.92.688.673 1.296 1.423 1.777 2.237.988 1.615 1.656 3.376 2.171 5.16.981 3.585 1.4 7.284 1.431 10.966-.245-3.672-.847-7.328-1.937-10.813-1.141-3.449-2.915-6.808-6.24-8.425-6.223-3.865-12.909-6.947-19.676-9.785-6.789-2.803-13.649-5.449-20.549-8.023-6.889-2.609-13.827-5.109-20.596-8.193-3.332-1.653-6.756-3.209-9.604-6.075-.361-.343-.648-.823-.96-1.239-.227-.501-.528-.987-.615-1.525-.315-1.064-.22-2.115-.117-3.116.324-1.98 1.036-3.763 1.811-5.472 1.583-3.408 3.44-6.6 5.245-9.809l5.328-9.644c6.86-12.919 11.628-27.119 12.32-41.888" fill="#953e23"/><path d="M560.677 359.238c-3.364 3.337-18.32 13.989-32.583 13.989a41.02 41.02 0 0 1-7.535-.704c-11.968-2.191-22.056-10.168-27.949-19.32a39.78 39.78 0 0 1-2.841-5.267 30.11 30.11 0 0 1-2.268-6.908c5.996-.731 11.732-2.243 12.671-3.312 1.017 6.987 9.647 19.605 22.708 21.979 1.644.313 3.181.444 4.667.469h.027c6.127.104 10.845-1.852 14.053-3.832l6.284-4.937 12.767 7.843" fill="#d2653a"/><path d="M542.852 289.812c0 2.635-1.084 4.772-2.42 4.772s-2.419-2.137-2.419-4.772 1.083-4.772 2.419-4.772 2.42 2.136 2.42 4.772" fill="#5d1a19"/><path d="M542.513 291.696c0 .805-.469 1.46-1.047 1.46s-1.049-.655-1.049-1.46.469-1.459 1.049-1.459 1.047.653 1.047 1.459" fill="#fff"/><path d="M568.871 292.001c0 2.635-1.083 4.772-2.419 4.772s-2.419-2.137-2.419-4.772 1.083-4.773 2.419-4.773 2.419 2.136 2.419 4.773" fill="#5d1a19"/><path d="M558.169 312.505c-.031 1.007-4.243 7.136-8.339 6.649-3.433-.408-6.445-6.849-4.637-9.783.969-1.024 13.005 2.127 12.976 3.133" fill="#fff"/><path d="M533.239 278.089c2.995-2.641 10.2-1.616 13.264.344.599.383 1.248-.483.752-.976-2.072-2.061-5.535-2.184-8.287-2.084-2.092.077-5.52-.013-6.235 2.423-.089.304.289.484.505.293m29.263 1.789c1.831-.14 3.529-.476 5.359-.021s3.175 1.572 4.804 2.428c.351.185.667-.177.515-.513-1.599-3.531-7.807-4.823-10.896-2.701-.323.223-.245.843.219.808" fill="#392621"/><path d="M555.155 289.938c-.121 2.744-.017 5.557.436 8.273.163.979 1.419 3.58 1.215 4.419-.221.913-1.815 2.044-2.356 2.943-.275.456.259.925.697.699 1.625-.843 3.491-2.092 3.153-4.053-.313-1.821-1.148-3.572-1.429-5.447-.34-2.272-.365-4.551-.567-6.833-.064-.729-1.116-.749-1.149 0" fill="#e94b37"/><path d="M568.229 293.885c0 .856-.469 1.551-1.047 1.551s-1.048-.695-1.048-1.551.468-1.551 1.048-1.551 1.047.695 1.047 1.551" fill="#fff"/><path d="M526.428 324c3.755 4.409 10.185 7.379 15.961 7.541.576.016.725-.916.137-1.025-6.112-1.135-10.637-3.233-15.527-7.088-.405-.32-.916.168-.572.572" fill="#e94b37"/><g fill="#953e23"><path d="M497.233 337.937c-8.669-4.108-13.308 8.92-14.184 15.305-1.684 12.273 3.765 23.709 8.716 34.571 5.201 11.408 11.147 22.436 16.464 33.783 2.751 5.876 5.181 11.893 7.016 18.12 1.919 6.511 2.137 13.767 4.493 20.04.321.856 1.424.667 1.535-.208 1.148-9.092-2.879-20.277-6.016-28.785-3.003-8.144-6.881-15.929-10.751-23.687-5.051-10.124-10.175-20.343-14.327-30.877-2.081-5.281-3.799-10.805-4.167-16.505-.295-4.556 1.379-23.104 10.244-19.441 1.317.544 2.269-1.701.976-2.315"/><path d="M547.884 351.957c10.907 4.148 7.093 24.081 5.603 32.725-1.815 10.519-5.215 20.719-9.475 30.487-8.312 19.055-19.508 36.728-29.531 54.895-.827 1.497 1.445 2.831 2.295 1.341 12.463-21.876 26.668-43.105 34.899-67.074 3.817-11.121 6.253-22.824 6.423-34.609.112-7.836-1.041-17.373-9.532-20.236-1.583-.533-2.199 1.895-.681 2.472"/><path d="M533.329 460.795l-25.273-.751c-1.361-.04-2.157 1.1-2.309 2.311-1.588 12.651-2.139 25.551-4.04 38.148-.224 1.481.589 2.888 2.227 2.923l24.931.512c.437.005.8-.099 1.108-.264l.04-.024.237-.147c.383-.267.691-.675.841-1.26 3.208-12.443 3.213-26.373 4.548-39.14.132-1.268-1.167-2.275-2.309-2.308m33.435 51.323c.368-6.865-.315-13.812-.363-20.692-.051-7.124.163-14.241.541-21.356.365-6.897.923-13.781 1.712-20.645.813-7.067 2.291-14.067 3.039-21.131.101-.947-1.413-1.119-1.643-.221-1.659 6.5-2.3 13.408-3.084 20.067-.859 7.284-1.488 14.603-1.839 21.931-.341 7.109-.384 14.24-.224 21.356.155 6.876.159 13.984 1.568 20.731.037.171.284.121.292-.039m-70.075-161.37c2.252 9.24 12.596 17.076 21.695 18.44.768.116 1.105-.944.328-1.191-4.693-1.487-9.125-3.428-12.912-6.637-3.663-3.104-5.901-6.928-8.483-10.877-.211-.324-.723-.121-.628.265m30.302 18.485l4.724-1.177c1.397-.396 2.865-.668 4.085-1.484.363-.243.229-.819-.225-.829-2.873-.075-6.199 1.504-8.871 2.452-.649.229-.397 1.193.287 1.039"/></g><g fill="#e94b37"><path d="M511.535 282.657c.88-1.351 2.235 2.839 2.291 3.189.256 1.627-.079 3.081-.496 4.637-.156.585 1.651.124 1.865-.291 1.175-2.271 1.263-6.22-.779-8.083-1.276-1.164-3.755-.844-4.687.615-.415.649 1.513.381 1.805-.068"/><path d="M514.411 285.862c-.012-.175.005-.348.052-.52l-.036-.131c-.725-.884-1.848-1.295-2.941-.877l-.199.233c.26.277.771.267 1.105.433.277.136.485.324.713.525.241.213.528.301.779.507.109.089.527-.004.527-.171m30.497 34.235c1.008 1.405 3.193 2.137 4.759 1.193.117-.071.109-.16-.041-.152-1.397.067-2.673-.332-3.516-1.505-.203-.284-1.443.128-1.201.464"/><path d="M535.015 292.168c-.155 1.081-.123 1.951.493 2.893.525.807 1.203 1.403 2.161 1.585.107.021.667-.093.532-.281-.516-.72-1.303-1.128-1.757-1.936-.405-.721-.773-1.564-.828-2.389-.011-.152-.581-.017-.601.128m31.98 6.594c.099 0 .343-.151.132-.151-.1 0-.343.151-.132.151m1.478-.281c.876-.449 2.127-1.776 1.292-2.775l-.349.093c-.417.944-.5 1.956-1.525 2.484-.581.299.312.337.583.197"/></g><g fill="#953e23"><path d="M567.153 458.802c.379-5.663 2.969-10.092 6.441-14.476 2.693-3.4 6.053-5.6 9.143-8.529.336-.32-.009-.924-.456-.784-4.505 1.407-8.155 5.989-10.852 9.645-2.827 3.831-6.747 9.231-5.013 14.244.14.404.709.328.737-.1"/><path d="M566.48 462.169c1.429-1.74 2.332-3.868 3.588-5.74 1.485-2.217 3.215-4.277 5.121-6.144.369-.363 3.903-3.972 4.247-1.076.216 1.832-3.443 2.52-4.519 3.173-1.209.735-2.024 1.312-2.028 2.8-.001.483.716.719.947.256 1.437-2.891 6.624-2.793 7.171-6.668.22-1.556-1.033-2.549-2.551-2.391-2.731.288-5.577 4.269-7.105 6.177-2.14 2.668-4.66 5.983-5.171 9.437-.023.155.172.331.3.175m-52.928 70.311c.011 4.612-.071 9.074-1.688 13.465-1.608 4.369-4.527 7.704-7.231 11.4-.207.28.181.596.448.449 7.895-4.373 11.889-17.046 9.192-25.412-.125-.385-.723-.329-.721.097m35.157-42.432c-1.131 7.111-2.445 13.58-6.117 19.904a46.8 46.8 0 0 1-14.953 15.684c-.487.316-.052 1.073.459.784 12.221-6.967 22.515-21.621 21.672-36.228-.032-.569-.959-.777-1.06-.144m40.042-180.901c1.537-.628 3.509-1.225 4.484-2.652.149-.22-.051-.5-.291-.507-1.676-.047-3.308 1.181-4.669 2.031-.564.351-.197 1.404.476 1.128m.219 3.987c.927.637 2.443 1.224 3.503.573a.49.49 0 0 0 0-.837c-.436-.252-.96-.316-1.445-.435a10.84 10.84 0 0 1-1.552-.501c-.727-.299-1.079.805-.505 1.2m-1.413 7.573c.904.539 2.108 1.401 3.212 1.327.267-.017.472-.301.317-.552-.583-.948-1.937-1.416-2.905-1.841-.711-.312-1.324.649-.624 1.067"/></g><path d="M108.666 576.752h698.892a1.46 1.46 0 0 0 1.459-1.459 1.46 1.46 0 0 0-1.459-1.46h-19.827-23.387-469.559-63.88-25.32H144.8h-36.133a1.46 1.46 0 0 0-1.459 1.46 1.46 1.46 0 0 0 1.459 1.459m-8.834-2.913H60.667a1.46 1.46 0 0 0-1.459 1.46 1.46 1.46 0 0 0 1.459 1.459h39.166a1.46 1.46 0 0 0 1.459-1.459 1.46 1.46 0 0 0-1.459-1.46m719.942 0h-6.565a1.46 1.46 0 0 0-1.459 1.46 1.46 1.46 0 0 0 1.459 1.459h6.565a1.46 1.46 0 0 0 1.459-1.459 1.46 1.46 0 0 0-1.459-1.46" fill="#100f0d"/><g fill="#281f3b"><path d="M729.004 567.238H507.676a3.88 3.88 0 0 0-3.879 3.877v.283c0 2.139 1.739 3.879 3.879 3.879h221.327c2.139 0 3.879-1.74 3.879-3.879v-.283c0-2.139-1.74-3.877-3.879-3.877"/><path d="M772.217 468.639l-138.16-1.396-19.62-.199c-1.016-.011-2.327.592-2.753 1.58l-37.963 87.647-5.417 12.508c-.06.139-.092.276-.133.413l-.001.006-.101.403c-.363 1.691.497 3.678 2.577 3.932.484.141.98.172 1.447.052l142.004 1.109 20.271.16c1.511.01 2.575-1.02 3.076-2.343l37.852-99.836c.753-1.988-1.168-4.019-3.077-4.037"/><path d="M772.217 466.451l-127.532-1.289-15.533-.157c-4.683-.047-10.096-.867-14.715-.148-6.861 1.067-8.624 11.852-10.971 17.271l-25.308 58.431-10.841 25.031c-1.36 3.151-2.685 6.961.892 9.351 1.808 1.207 4.551.829 6.513.857l15.779.121 31.556.248 63.112.492 31.461.247 12.669.099c3.259.025 6.485.649 9.005-1.745 2.731-2.595 3.655-8.508 4.941-11.903l5.539-14.611 12.924-34.09 12.001-31.655c2.004-5.284 7.58-14.279-.911-16.471-2.729-.704-3.893 3.516-1.163 4.221 2.792.721-6.735 23.187-7.685 25.696l-9.232 24.349-9.232 24.349-4.155 10.959c-1.509 3.981-2.599 9.876-5.077 13.392-3.192 4.531-9.84 3.108-14.559 3.072l-12.86-.1-26.297-.207-52.593-.41-52.593-.411c-1.815-.015-4.884.763-6.167-.849-1.635-2.056-.713.913-.091-2.791.519-3.082 2.823-6.516 4.064-9.381l10.996-25.389 21.091-48.692c1.559-3.601 2.817-9.245 5.272-12.173 3.281-3.915 8.477-2.863 12.953-2.819l27.183.275 119.562 1.208c2.817.029 2.82-4.348 0-4.376"/></g><path d="M676.854 524.232c0 4.297-4.78 7.781-10.677 7.781s-10.676-3.484-10.676-7.781 4.78-7.781 10.676-7.781 10.677 3.483 10.677 7.781m15.418.791c0 2.241-2.493 4.06-5.569 4.06s-5.569-1.819-5.569-4.06 2.493-4.06 5.569-4.06 5.569 1.817 5.569 4.06" fill="#554473"/><path d="M425.682 546.819c6.815-.817 18.879-2.647 19.183-6.842-4.408-2.849-9.272-5.73-14.515-5.988-4.184-.204-8.243 1.337-12.069 3.039a129.28 129.28 0 0 0-9.576 4.739c-1.284.703-4.64 3.209-4.693 4.959-.067 2.172 3.924.888 5.505 1 5.401.384 10.811-.264 16.165-.907" fill="#c8a89e"/><path d="M409.583 543.264s9.061 29.669 13.859 30.38 51.699 1.067 52.943.533 1.421-1.421 1.421-1.421 29.848 1.955 30.381 1.244 0-4.264-1.423-4.797-46.547-10.66-50.456-12.081-16.168-1.066-16.168-1.066l-2.487-17.234-28.071 4.443" fill="#f5745d"/><path d="M420.53 170.992a16.32 16.32 0 0 1 4.316 11.813c-.129 2.564-.869 5.055-1.64 7.504-1.484 4.715-3.243 9.6-6.909 12.915-.595.536-1.341 1.055-2.131.913l-4.411-13.585c-.707-2.177-1.416-4.361-1.813-6.615-.673-3.809-.431-7.797.859-11.444.584-1.656 1.425-3.295 2.823-4.357 3.408-2.595 6.592.377 8.907 2.856" fill="#3f2d2c"/><g fill="#a07e7b"><path d="M333.623 421.977c-.476 4.64.239 9.539.499 14.177.147 2.636.293 5.28.287 7.921-.004 1.531-.459 3.396.067 4.837.056.151.276.256.4.105 2.051-2.497.888-8.456.793-11.467l-.609-15.575c-.036-.94-1.343-.905-1.436 0"/><path d="M346.842 412.825c-4.931 11.203-7.672 22.603-14.432 33.072-.383.593.567 1.145.945.552 5.977-9.389 12.48-22.277 14.051-33.387.043-.309-.408-.589-.564-.237"/></g><path d="M238.414 575.299l3.035-102.498 22.28 102.498h63.892c-4.247-34.098-23.083-176.618-42.765-188.699l-77.329-48.148s-44.749 11.672-43.772 76.353c3.575 62.3 11.191 135.617 13.876 160.494h60.784" fill="#281f3b"/><g fill="#f7d6cc"><path d="M444.694 540.082c-1.66 2.514-10.104.624-12.601.867-2.233.217-4.351 1.063-6.521 1.629-6.912 1.803-14.632.856-20.847 4.379-.193.109-.413.227-.625.161-.236-.072-.349-.329-.433-.561-3.968-10.991-7.069-22.458-10.544-33.658l-15.667-50.492-8.092-26.081-18.967-87.908 8.433-61.967 1.999-14.619.145-1.109 1.167.408c2.641.935 9.427 3.473 16.941 7.135 12.036 5.88 25.956 14.693 27.852 24.673l.015.104 3.228 20.953 5.904 37.14 7.415 46.2 7.763 48.137 6.945 42.951 4.964 30.64 1.375 8.476c.081.497.504 1.655.347 2.139-.047.145-.112.28-.195.404"/><path d="M360.974 270.722l-.145 1.109-1.999 14.619-8.433 61.967-41.277 25.432c-2.156 1.328-4.012 10.457-4.889 12.744-2.849 7.429-5.337 15.145-8.593 22.404-.668 1.488-1.268 5.539-2.748 6.444-2.975 1.82-15.075-.676-18.811-.916-13.833-.889-27.815-2.92-40.467-8.884-10.001-4.713-18.861-11.383-28.276-17.105-5.753-3.497-12.168-5.68-18.257-8.492-4.068-1.877-12.856-5.477-14.423-10.261-.453-1.381.247-2.848.913-4.14 2.907-5.629 4.84-12.413 8.273-17.64 3.165-4.82 7.064-9.167 10.152-14.105 6.211-9.935 11.695-20.428 19.453-29.293 13.207-15.089 24.304-32.331 37.909-47.377 6.04-6.683 24.863-13.044 33.865-13.409 8.185-.336 16.121 1.007 23.067 2.948 5.588 1.575 10.549 3.531 14.46 5.296 5.733 2.597 9.221 4.8 9.221 4.8l31.004 13.861"/></g><g fill="#f5745d"><path d="M376.228 353.158c4.347-2.673 24.656-15.635 26.475-20.32.844-2.173 5.453-8.867 9.433-15.145 2.355-3.717 8.321-11.009 9.828-12.571 2.583-2.679 6.313-9.315 8.564-7.131 2.807 2.72-1.575 9.524-4.045 13.696-.905 1.532-1.88 3.069-2.272 4.804s-.304 3.031.713 4.491c.555.795 4.352 1.173 5.624 1.119 9.591-.421 13.753.141 20.908-2.521s13.839-6.427 20.587-9.995c1.157-.613 1.859-1.868 4.469-2.109 1.303-.12 4.06.057 3.912 1.357-.115 1.012-8.173 7.307-9.004 7.896l-8.431 5.991c-.693.493-1.441 1.065-1.612 1.899-.143.7.161 1.411.176 2.124.025 1.277-.86 2.375-1.731 3.312-1.527 1.643-3.152 3.179-4.851 4.632-2.375 2.033-.436 3.769-3.021 5.555-2.852 1.968-10.247 3.968-13.168 5.819-2.337 1.48-4.692 2.969-7.26 3.997-3.077 1.231-6.377 1.767-9.624 2.437-8.897 1.835-24.465 17.955-31.992 23.28"/><path d="M427.31 351.315s11.181-1.413 20.077-5.551 30.88-17.701 30.88-17.701.305-.772.072-1.309-3.573-1.281-6.264-.115l-19.916 8.647"/><path d="M425.092 347.562s14.167-2.955 23.064-7.091 30.879-17.703 30.879-17.703.305-.771.072-1.309-3.573-1.283-6.264-.115l-19.916 8.647"/><path d="M429.568 339.414s14.168-2.956 23.065-7.093 22.709-11.205 30.535-16.545c.517-.352.648-1.927.415-2.465s-3.572-1.281-6.263-.113l-19.915 8.647m-80.386-67.293s34.287 20.912 42.312-21.4c1.945-17.509 4.377-45.96-10.213-57.085s-48.148-12.401-48.877 20.609c1.276 9.484.911 10.213.911 10.213s-12.584-3.465-9.848 12.22c1.459 7.112 3.344 9.665 3.344 9.665l-25.777 20.184c-2.369 1.855-4.355 4.947-7.639 3.456-.36-.163-.707-.368-1.096-.433s-.844.053-1.033.4c-.12.219-.111.483-.119.732-.035 1.26-.529 2.455-.868 3.668-1.297 4.659.049 9.019 2.5 13.035 2.085 3.416 5.035 6.315 8.533 8.269 3.347 1.868 7.104 2.884 10.876 3.565 4.743.859 9.777 1.189 14.472-.116 2.877-.8 4.836-1.696 6.847-4.031.376-.437.732-.897.987-1.415.576-1.169.596-2.524.585-3.828-.001-.18-.011-.379-.129-.515-.125-.141-.331-.171-.517-.203-2.092-.353-.713-1.448.164-2.363l2.623-2.704 5.569-5.609 6.395-6.316"/></g><path d="M404.971 214.853c0 2.636-1.083 4.772-2.419 4.772s-2.419-2.136-2.419-4.772 1.083-4.772 2.419-4.772 2.419 2.136 2.419 4.772" fill="#5d1a19"/><path d="M407.784 198.432c-5.232-1.923-14.249.141-17.56 4.805-.225.319.155.835.528.687 2.628-1.04 4.831-2.717 7.616-3.507 3.117-.887 6.088-.637 9.253-.788.705-.033.804-.961.163-1.197" fill="#3f2d2c"/><path d="M420.608 210.49c-.788 2.537.004 5.428 1.032 7.877s2.609 4.617 4.175 6.763l2.115 2.896a44.77 44.77 0 0 0-6.421 2.705c-1.241.641-2.579 1.512-2.825 2.887" fill="#f5745d"/><path d="M404.823 236.178c1.476.505 3.067.68 4.616.488.155-.02.336-.032.44.084l.088.281c.101 1.529-.555 2.996-1.196 4.387-.431.936-.871 1.885-1.548 2.661-1.42 1.627-4.612 2.659-6.64 1.667-.911-.445-1.581-1.271-2.104-2.14-1.423-2.363-2.424-6.36-1.217-9.025.808-1.781 1.017-1.123 2.585-.403l4.427 1.795.549.205" fill="#fffcfb"/><path d="M378.235 345.742c-25.015 11.616-63.956 32.585-63.956 32.585l-5.592-40.367-58.849.485s17.023 93.865 30.155 102.62c0 0 15.563 11.673 40.853-5.836 16.688-11.553 55.52-41.937 74.593-58.544l-17.204-30.944" fill="#f7d6cc"/><g fill="#e5bfba"><path d="M267.674 413.778c-.38-6.452-3.439-13.451-5.08-19.687l-6.849-26.607c-3.937-16.072-7.295-32.24-10.807-48.404-.103-.471-.891-.376-.851.115 1.307 16.113 5.565 32.24 9.443 47.884l6.752 25.8c1.865 6.605 3.187 15.159 6.755 21.072.168.277.659.177.637-.173m126.344-39.213c-12.219 8.06-23.104 18.629-33.12 29.231-.876.928.521 2.331 1.403 1.401 10.188-10.739 21.443-19.815 32.753-29.289.741-.621-.228-1.876-1.036-1.343"/><path d="M353.183 358.711c4.035-.608 8.088-2.677 11.732-4.465 3.176-1.56 7.359-3.04 9.452-5.985.375-.525-.243-1.047-.747-.971-3.455.521-6.795 3.331-9.913 4.889-3.619 1.809-7.632 3.14-11.043 5.301-.68.432-.212 1.34.519 1.231"/></g><path d="M319.693 251.4c-4.52-4.647-8.949 3.632-10.305 7.405-3.633 10.099-1.464 22.131 1.476 32.097 3.577 12.132 9.561 23.236 12.757 35.525 3.639 13.995 6.321 28.019 5.773 42.537-.033.896 1.327.884 1.384 0 1.247-18.929-3.311-40.099-10.372-57.609-3.567-8.845-7.567-17.348-9.676-26.709-1.185-5.261-1.936-10.759-1.689-16.163.096-2.116 3.723-22.275 9.709-16.141.6.616 1.541-.327.943-.943m45.042 17.431l3.424 5.709.683 3.819c.117 1.396.057 2.825-.036 4.22-.252 3.803-1.192 7.536-1.808 11.288l-3.345 21.755c-2.38 13.951-5.568 27.723-10.075 41.147-.248.741.909 1.049 1.165.32 6.293-17.948 9.723-36.591 12.529-55.357 1.3-8.689 8.712-29.423-2.995-33.933-.472-.183-.92.356-.796.796l.111.392c.183.641 1.113.495 1.143-.155" fill="#a07e7b"/><path d="M348.504 440.519c.009-1.187-1.067-2.392-2.309-2.309l-25.228 1.692c-1.273.085-2.272.989-2.309 2.309-.365 12.951.324 26.049-.364 38.98-.064 1.179 1.111 2.399 2.308 2.308l24.865-1.895.189-.035c.943.059 1.843-.428 2.037-1.66 1.996-12.717.713-26.533.811-39.391" fill="#ddcedb"/><path d="M350.102 213.798c-3.777.512-6.649 1.416-9.399-2.049-1.101-1.388-1.988-2.844-3.703-3.489-.22-.083-.393.24-.227.391 2.135 1.949 3.669 5.297 6.479 6.371 2.224.849 4.976.237 7.035-.785.265-.132.06-.471-.185-.437" fill="#574242"/><g fill="#fbfcfc"><path d="M413.616 215.278h-.729c0 3.024-1.224 5.755-3.205 7.737s-4.713 3.205-7.737 3.205a10.9 10.9 0 0 1-7.737-3.205c-1.983-1.983-3.205-4.713-3.205-7.737s1.223-5.755 3.205-7.737a10.9 10.9 0 0 1 7.737-3.205c3.024 0 5.755 1.224 7.737 3.205s3.205 4.713 3.205 7.737h.729.729c0-6.849-5.552-12.401-12.401-12.403s-12.401 5.553-12.403 12.403 5.553 12.401 12.403 12.403 12.401-5.553 12.401-12.403h-.729"/><path d="M413.972 212.214c.431-.251.615-.652.995-.973.556-.472 1.288-.737 1.999-.867.659-.121 1.356-.124 1.985.123.589.231.728.781 1.264 1.017a.29.29 0 0 0 .383-.1l.127-.176c.115-.156.076-.367 0-.525-.684-1.465-2.633-1.593-4.024-1.299-1.184.251-3.315 1.157-3.096 2.649.024.164.243.224.368.151"/></g><g fill="#3f2d2c"><path d="M349.94 194.363c5.96 4.293 43.231-.972 55.26-6.487 24.455-11.208 26.851-30.96 21.136-34.669-.689-.448-1.455-.805-2.271-.904-1.917-.232-3.685.959-5.247 2.092.615-2.233 2.836-11.965-3.099-15.825-7.969-5.181-18.003 3.581-19.636 4.673-11.371 7.609-17.513 8.909-17.513 8.909s2.004-19.187-13.711-4.447c-4.948 4.643-14.135 8.972-19.064 13.635-5.171 4.887-8.116 12.88-5.132 19.707"/><path d="M367.411 182.736c3.407 2.775 4.935 7.219 5.919 11.501 1.48 6.448 2.073 13.313.019 19.601-.584 1.789.143 10.048-1.259 9.819-.443-.072-1.424-6.403-3.1-9.627-2.595-4.996-10.847-5.685-13.852-1.764-3.724 4.856-1.331 8.276.324 13.119 1.228 3.596.016 8.119-4.385 9.365-4.1 1.161-2.923-1.944-4.556-4.856-3.516-6.26-7.201-11.739-9.564-18.715-3.724-10.999-6.791-27.689 4.72-35.311 2.879-1.907 12.371-4.229 15.573-2.94"/></g><path d="M404.451 216.98c0 .756-.469 1.368-1.048 1.368s-1.047-.612-1.047-1.368.468-1.368 1.047-1.368 1.048.613 1.048 1.368" fill="#fff"/><path d="M364.607 207.277c1.716 3.383 5.708 4.052 9.093 4.9 4.884 1.224 10.103 2.191 15.155 2.173.883-.004.827-1.231 0-1.335-4.332-.544-8.633-.924-12.912-1.855-3.515-.764-8.301-1.439-10.692-4.383-.308-.377-.844.104-.644.499" fill="#fbfcfc"/><path d="M370.018 246.152c1.813 3.471 4.665 6.887 8.211 8.676.163.083.335-.12.199-.257-2.8-2.84-5.58-5.449-7.964-8.68-.193-.263-.603-.04-.445.261" fill="#e94b37"/><path d="M439.926 204.997c1.668-1.089 3.457-2.115 4.781-3.627.096-.108.007-.329-.155-.267-1.863.721-3.433 2.029-5.023 3.215-.395.295-.036.961.396.679m2.419 4.639c1.247-.268 2.832-.559 3.892-1.296.28-.195.177-.617-.172-.637-1.293-.073-2.793.507-3.996.932-.628.223-.381 1.141.276 1.001m.454 5.718c.777-.209 1.552-.389 2.352-.479.655-.073 1.324-.068 1.965-.215.188-.044.237-.34.055-.428-1.384-.669-3.253-.343-4.625.209-.549.221-.351 1.075.253.912" fill="#3f2d2c"/><g fill="#100f0d"><path d="M196.15 386.047c-3.397-.108-3.26 5.196-3.572 7.468-.424 3.077-1.288 7.052 1.359 9.38.457.401 1.071.104 1.132-.471l.047-.431c.035-.329-.351-.441-.588-.339l-.456.199.907.236c-1.556-2.368-1.385-4.671-1.048-7.347.34-2.696.147-6.273 2.459-8.117.245-.196.028-.571-.239-.579m3.876 2.593c-2.117 3.499-2.627 9.983-.901 13.705.205.441.843.188.86-.232.092-2.244-.453-4.441-.319-6.707.132-2.239.785-4.377.981-6.599.029-.343-.46-.433-.621-.168m65.662 28.212l-1.492 4.116c-.563 1.216-1.416 2.28-1.948 3.5-.251.572.385 1.137.889.685 2.076-1.861 3.221-5.48 3.421-8.184.039-.519-.724-.575-.871-.117m2.963 4.753c-.423 1.531-1.123 2.801-1.827 4.204-.3.597.525 1.363.991.764 1.06-1.364 1.553-3.153 1.673-4.855.035-.487-.712-.568-.837-.113"/><path d="M167.666 385.859c4.208 2.533 8.616 4.672 12.803 7.305 3.655 2.3 7.492 4.455 11.835 5.032.639.085.776-.988.152-1.124-5.044-1.1-9.169-3.527-13.472-6.283-3.304-2.116-7.169-5.02-11.216-5.301-.204-.015-.261.273-.101.371m31.858 13.191c10.641 5.516 20.685 12.34 31.587 17.319 4.993 2.28 10.232 3.871 15.607 4.968 5.092 1.039 11.12 2.456 16.3 1.899.528-.056.724-.837.133-.985-5.549-1.399-11.567-1.276-17.212-2.507-5.668-1.236-11.095-3.071-16.307-5.623-10.077-4.932-19.245-11.891-29.744-15.933-.5-.193-.836.619-.364.863m48.241 75.827c1.691-1.955 3.42-3.893 5.376-5.587 1.107-.96 6.767-5.989 8.501-4.307.165.16.476.001.4-.233-.867-2.671-4.655.088-5.916.92-3.516 2.316-6.607 5.263-8.773 8.889-.151.249.213.548.412.317m-12.673-1.555c-5.195-5.141-12.117-8.729-19.508-9.031-.208-.009-.255.319-.049.365 7.145 1.631 13.463 4.313 18.98 9.244.389.349.955-.205.577-.579m12.156 4.962c6.359 2.243 11.349 6.205 12.808 13.095l.957-.736c-1.647-1.056-3.063-2.36-4.269-3.896-.857-1.093-1.471-2.553-2.468-3.521-1.088-1.056-2.812-1.411-4.107-.572l.064.151c2.884-1.068 4.524 3.4 5.879 5.072 1.233 1.521 2.68 2.732 4.244 3.892.499.371 1.057-.239.957-.736-1.316-6.547-6.964-13.059-13.968-13.471-.435-.027-.469.591-.097.723m-80.345-49.105c6.509-4.025 12.448-8.968 16.012-15.867.44-.853-.849-1.611-1.291-.755-3.453 6.685-9.171 11.432-15.476 15.329-.816.505-.067 1.799.755 1.292m77.809-7.569c.449 6.731 1.445 13.308 1.305 20.087-.147 7.107-1.049 14.167-2.601 21.1-.147.659.865.94 1.015.279 1.537-6.828 2.463-13.748 2.64-20.749.172-6.819.043-14.177-1.797-20.793-.084-.301-.584-.253-.561.077m-1.223 44.105c-.633 1.068-.747 2.463-.979 3.671-.205 1.068-.625 2.287-.279 3.345.067.204.32.228.437.057.655-.945.624-2.292.828-3.407.209-1.143.647-2.349.557-3.513-.021-.289-.403-.425-.565-.153"/><path d="M254.19 422.338c-.183 5.317.023 10.665.073 15.987.048 4.969.512 10.124.012 15.073-.825 8.155-8.765 12.303-11.735 19.467-.199.48.628.832.844.356 3.123-6.904 10.788-10.773 12.029-18.647.763-4.836.165-10.04.084-14.917-.096-5.763-.024-11.565-.375-17.319-.036-.597-.913-.605-.933 0"/></g><path d="M314.545 268.829c-.112 9.947 10.364 16.223 19.313 17.1.712.071.745-.955.159-1.172-4.199-1.549-8.459-2.343-12.169-5.043-3.551-2.581-6.168-6.461-6.664-10.885-.045-.399-.633-.421-.639 0m24.906 17.035c1.405.311 2.821.291 4.252.312 1.455.023 2.84.076 4.227-.409.325-.115.325-.549 0-.664-1.387-.485-2.772-.432-4.227-.409-1.431.021-2.847.001-4.252.312-.424.093-.424.765 0 .859m-95.36 36.04c-.247-2.479-1.007-4.616-2.668-6.504-1.275-1.449-3.943-3.603-6.004-3.076-.359.092-.531.613-.229.871.703.599 1.529.704 2.36 1.097 1.008.477 1.92 1.132 2.733 1.892 1.631 1.523 2.888 3.589 3.263 5.793.052.305.576.239.545-.073" fill="#c8a89e"/><g fill="#e94b37"><path d="M366.634 223.07c1.087-3.572-2.544-10.785-6.919-9.259-1.283.447-.463 1.071.539.797 1.067-.292 3.133 3.257 3.455 3.869.815 1.551.952 3.315 1.729 4.847.161.317 1.107.037 1.196-.255"/><path d="M364.043 217.909c-.035-1.189-1.107-1.805-2.213-1.687-.587.061-1.228.259-1.7.624-.283.217-.669.695-.364 1.009.167.173.625-.02.777-.125.435-.303.667-.809 1.172-.591.476.205.816.651.969 1.135.121.383 1.371.028 1.359-.365m35.189.028c.189 1.341 1.111 2.217 2.492 2.172l.337-.208c-.34-.299-.76-.483-1.105-.788-.407-.361-.836-.857-1.044-1.359-.077-.183-.708-.015-.68.183"/></g><path d="M306.075 308.542c.491 14.044 2.208 28.023 4.007 41.951.923 7.145 1.313 15.333 3.295 22.053.211.716 1.18.397 1.085-.299l-.004-.028c-.099-.713-1.183-.411-1.085.3l.004.027 1.085-.299c.096.327.025-1.181-.004-1.532-.121-1.432-.4-2.864-.604-4.289l-2.224-16.36c-1.784-13.811-3.371-27.659-4.664-41.524-.052-.561-.911-.581-.891 0m24.163 61.307c-5.487 1.199-10.567 3.699-15.651 6.091-5.251 2.472-10.677 4.808-15.465 8.119-.343.237-.145.84.297.705 10.855-3.268 20.747-9.773 31.084-14.285.373-.163.096-.709-.265-.629m94.398 58.959c-1.455 5.205-1.779 10.312-3.952 15.381-2.296 5.349-5.683 9.499-9.268 14.005-.437.549.221 1.223.772.773 4.385-3.605 7.625-9.06 9.839-14.213 2.013-4.685 4.077-10.777 3.257-15.947-.055-.341-.564-.296-.648 0m-232.575-47.401c-1.233-4.207-2.208-8.575-2.292-12.971-.088-4.52 1.084-8.653 1.772-13.056.085-.548-.663-.981-.968-.408-4.136 7.773-3.028 19.109.659 26.783.225.467.972.139.829-.348m11.962 5.81l-2.941-8.061c-.285-1.035-1.491-4.329-.865-5.112 2.451-1.135 3.783-.588 3.996 1.641a14.4 14.4 0 0 1 .196 2.872c.001.445.689.56.791.107.543-2.392-1.561-10.417-5.329-7.447-1.64 1.293-.789 4.544-.436 6.201.755 3.524 2.436 6.819 3.853 10.111.179.415.901.115.736-.312m25.458 15.79c-2.841-4.58-4.119-9.173-5.572-14.28-.087-.305-.531-.237-.544.075-.219 5.253 2.348 10.625 5.589 14.613.241.296.725-.088.527-.408m22.797 8.891c3.969-.359 9.236-3.321 9.883-7.683.056-.373-.404-.779-.716-.416-1.239 1.437-2.108 3.076-3.588 4.327-1.62 1.369-3.656 2.352-5.695 2.913-.459.127-.388.904.116.859m.1-4.448c2.588-.887 5.783-3.187 6.245-6.1.056-.352-.385-.736-.675-.393-.867 1.031-1.489 2.208-2.46 3.165-1.011.993-2.233 1.769-3.524 2.347-.553.247-.161 1.179.413.981" fill="#c8a89e"/><path d="M398.35 251.777c1.196-.497 2.029.295 3.139.601.119.032.449-.007.489-.159.239-.896-.979-1.203-1.667-1.269-.869-.083-1.819.084-2.516.636-.392.311.403.252.555.191" fill="#e94b37"/><path d="M784.489 192.001h-142c-12.069 0-22.379 8.704-24.401 20.603l-12.265 72.15c-2.569 15.111 9.075 28.9 24.401 28.9h.719l-5.529 29.577 27.312-29.577h119.498c12.069 0 22.377-8.705 24.4-20.603L808.89 220.9c2.568-15.111-9.075-28.899-24.401-28.899" fill="#f7d6cc"/><path d="M787.173 221.596c-5.443 0-10.961-.437-16.32-.556l-22.396-.495-45.451-1.343c-.883-.048-.893-1.372 0-1.381l5.357-.023c13.583 0 27.176.425 40.752.735l23.055.525c7.241.164 14.761-.231 21.94.757.917.127.577 1.427-.201 1.499-2.221.205-4.472.281-6.736.281m-46.927 17.222c-13.785 0-27.569-.415-41.332-1.209-1.348-.077-1.377-2.145-.075-2.145a.98.98 0 0 1 .075.003 717.25 717.25 0 0 0 41.615 1.227l2.109-.003a708.88 708.88 0 0 0 21.888-.408c6.539-.224 13.159-.933 19.712-.933l2.181.028c.947.025 1.232 1.557.232 1.712-7.032 1.096-14.355 1.033-21.463 1.285a708.83 708.83 0 0 1-21.887.437l-3.056.007m8.105 16.68a236.67 236.67 0 0 1-9.129-.165c-13.411-.512-26.845-1.832-40.201-3.041-1.095-.099-1.143-1.756-.041-1.756h.041c13.419.489 26.784 1.925 40.201 2.371a211.6 211.6 0 0 0 6.992.111c11.087 0 22.195-.76 33.256-1.188.023-.001.044-.001.065-.001 1.708 0 1.68 2.692-.065 2.752-10.337.357-20.743.919-31.119.919m11.725 14.229c-4.811 0-9.623-.071-14.417-.113-38.188-.331-76.604-.532-114.682-3.695-.797-.067-.827-1.283-.045-1.283a.66.66 0 0 1 .045.001c9.091.535 18.189.763 27.289 1.065l61.78 1.241 11.456.049 10.261-.019 10.24-.02 20.988.203c1.503.035 1.491 2.26 0 2.325-4.295.187-8.604.244-12.915.244m-2.018 13.483c-5.116 0-10.237-.097-15.336-.161-37.764-.479-75.712-1.035-113.364-4.169-.799-.067-.828-1.283-.047-1.283.016 0 .031 0 .047.001 8.989.529 17.988.792 26.987 1.128l60.48 1.531 52.927.401c1.503.036 1.492 2.259 0 2.325-3.888.169-7.788.227-11.693.227M633.79 253.546c-.632 0-1.26-.435-1.221-1.189.179-3.5 1.449-6.911 1.713-10.461.252-3.383.248-6.779.263-10.168.027-6.679.176-13.371 1.955-19.849a1.26 1.26 0 0 1 1.267-.971c.237 0 .475.055.688.157-.512.561-.305 1.652.645 1.724-2.007 6.98-1.837 14.144-1.851 21.341-.005 3.576-.061 7.16-.484 10.715-.263 2.215-.437 4.657-1.264 6.768l-.401.056c-.931.131-1.264 1.048-1.109 1.863a1.44 1.44 0 0 1-.2.015m54.079 1.27c-.503 0-1.005-.161-1.385-.483-.009-.332-.147-.661-.457-.936l-.147-.125a2.27 2.27 0 0 1-.035-.401c-.027-12.589 1.032-25.027 2.716-37.485-16.433-1.745-32.872-2.271-49.389-2.595-.025 0-.049-.001-.073-.003l.052-.18c.216-.733-.161-1.288-.697-1.544.165-.181.405-.307.719-.325a246.2 246.2 0 0 1 14.788-.431c12.163 0 24.353.815 36.419 2.035.777.079 1.741.692 1.621 1.621-1.664 12.879-2.215 25.925-2.127 38.907.009 1.297-.996 1.945-2.004 1.945" fill="#ceb2a8"/><path d="M639.1 212.789c-.951-.072-1.157-1.163-.645-1.724.536.256.913.811.697 1.544l-.052.18" fill="#ab948b"/><path d="M683.336 256.298c-1.069 0-2.116-.267-3.355-.452l-6.989-.977a159.44 159.44 0 0 0-12.064-.979l-6.675-.144c-6.256 0-12.505.373-18.725 1.08a1.45 1.45 0 0 1-.168.009c-.761 0-1.24-.615-1.369-1.304.337-.051.656-.231.852-.559a9.2 9.2 0 0 0 .659-1.36c7.675-1.061 15.393-1.644 23.137-1.644l2.927.028a158.94 158.94 0 0 1 13.325.812c3.452.357 8.235.18 10.991 2.464a1.79 1.79 0 0 0 .604 1.061c.02.664-.472 1.336-1.123 1.588-.717.277-1.376.376-2.027.376" fill="#ceb2a8"/><path d="M633.99 253.532c-.155-.815.179-1.732 1.109-1.863l.401-.056a9.2 9.2 0 0 1-.659 1.36c-.196.328-.515.508-.852.559m52.496.802a1.79 1.79 0 0 1-.604-1.061l.147.125c.311.275.448.604.457.936" fill="#ab948b"/><path d="M643.306 241.954c-.672 0-1.34-.425-1.305-1.272.285-6.905.791-13.811 1.437-20.691.052-.555.512-.836.948-.836s.836.276.795.836c-.505 6.681-.667 13.34-.557 20.036l-1.015.003c-1.179.003-1.256 1.605-.277 1.924h-.025m40.947 1.626c-13.517-.023-27.16-.725-40.645-1.575a1.08 1.08 0 0 1-.277-.051c.661-.011 1.319-.433 1.304-1.272l-.012-.655 2.92-.003c12.217 0 24.532.168 36.707.883 1.705.1 1.732 2.672.004 2.672" fill="#ceb2a8"/><path d="M643.332 241.954c-.979-.319-.901-1.921.277-1.924l1.015-.003.012.655c.015.839-.643 1.261-1.304 1.272" fill="#ab948b"/><path d="M648.721 236.932c-.601 0-1.2-.479-.956-1.208 1.024-3.065 1.793-6.429 3.152-9.361.667-1.44 1.44-2.661 3.115-2.944a3.99 3.99 0 0 1 .668-.057c3.689 0 5.888 5.304 7.56 7.747.439.719.928 1.403 1.464 2.053 1.437-.011 2.2-.748 2.292-2.211l1.944-4.923c.424-1.129.697-2.684 1.977-3.185.284-.112.557-.161.819-.161 1.371 0 2.44 1.36 3.299 2.299.819.897 1.823 2.711 2.904 3.271.237.124.472.179.699.179 1.435 0 2.561-2.233 2.425-3.579-.149-1.472.54-2.017 1.412-2.017 1.86 0 4.547 2.487 1.676 3.789-1.931.877-1.976 3.8-4.056 4.679-.429.181-.852.265-1.264.265-.785 0-1.532-.305-2.217-.823-1.053-.793-1.816-2.033-2.621-3.053l-1.473-1.863c-1.151.235-1.763.917-1.836 2.045-1.06 2.143-1.125 4.845-2.533 6.825-.788 1.109-1.679 1.555-2.569 1.555-1.499 0-2.996-1.261-3.997-2.752-.72-1.072-3.709-7.789-6.277-7.789-.415 0-.819.175-1.199.576-.988 1.039-1.384 3.756-1.836 5.111l-1.62 4.851c-.16.476-.555.683-.949.683" fill="#ceb2a8"/><path d="M576.767 73.627h-93.533c-7.949 0-14.74 5.733-16.072 13.569l-8.08 47.525c-1.692 9.953 5.977 19.036 16.072 19.036h.475l-9.365 13.623 23.712-13.623h78.713c7.948 0 14.739-5.733 16.072-13.571l8.08-47.525c1.691-9.953-5.979-19.035-16.073-19.035" fill="#ddcedb"/><path d="M576.663 93.28c-6.513 0-13.103-.515-19.557-.689l-25.201-.683-51.068-1.673c-.759-.039-.768-1.187-.003-1.187 17.025.056 34.055.647 51.071 1.117l25.864.713c8.336.229 16.923-.099 25.203.896.828.1.86 1.257 0 1.313a96.46 96.46 0 0 1-6.308.192m-34.72 10.688a1326.36 1326.36 0 0 1-16.287-.099c-16.384-.197-32.764-.701-49.129-1.488-1.167-.056-1.187-1.845-.055-1.845.019 0 .036.001.055.003 16.365.791 32.745 1.3 49.129 1.504l16.671.103 7.908-.023 18.493-.325a148.3 148.3 0 0 1 6.081.115c.979.039.951 1.416 0 1.5-5.363.472-10.796.539-16.216.539-1.071 0-2.14-.003-3.208-.005l-3.181-.005-10.261.028m-7.439 11.603c-20.219 0-40.452-.673-60.576-2.233-.723-.056-.748-1.157-.033-1.157a.28.28 0 0 1 .033.001c20.324.967 40.619 1.559 60.932 1.559 11.573 0 23.157-.192 34.747-.619h.04c1.129 0 1.111 1.772-.04 1.812-11.684.411-23.389.637-35.103.637m-10.916 12.193c-17.417 0-34.94-1.085-52.208-2.604-.524-.047-.547-.845-.028-.845.009 0 .019 0 .028.001 22.031 1.184 43.997 1.312 66.043 1.676.989.016.984 1.496 0 1.531a385.95 385.95 0 0 1-13.835.241" fill="#b7aab4"/><path d="M243.931 100.223h-128.03a22.32 22.32 0 0 0-21.999 18.576l-11.059 65.053c-2.316 13.623 8.181 26.056 22 26.056h108.218l18.876 23.788.763-23.788h.172a22.32 22.32 0 0 0 22-18.576l11.06-65.052c2.316-13.624-8.181-26.057-22-26.057" fill="#ddcedb"/><path d="M247.037 126.572c-5.901 0-11.845-.377-17.715-.516l-22.441-.525-45.544-1.28c-.56-.024-.565-.875-.003-.875 15.184.057 30.369.509 45.547.872l23.101.549c7.445.177 15.027-.031 22.441.684.612.059.629.936 0 .968a110.91 110.91 0 0 1-5.387.123m-34.33 15.421c-3.881 0-7.752-.02-11.593-.021-14.613-.005-29.223-.432-43.813-1.241-.856-.047-.873-1.359-.045-1.359a.53.53 0 0 1 .045.001c14.589.813 29.2 1.243 43.813 1.252h.161c7.159 0 14.319-.272 21.475-.543l21.455-.543h.772c.728.003.688 1.028 0 1.105-10.615 1.188-21.487 1.348-32.269 1.348m-26.579 15.245c-27.685 0-55.381-.915-82.961-2.919-.66-.048-.681-1.056-.034-1.056h.034c27.736 1.463 55.453 2.284 83.19 2.284 15.917 0 31.844-.271 47.776-.847h.036c1.029 0 1.012 1.616-.036 1.655a1330.03 1330.03 0 0 1-48.005.883m-14.544 16.707c-23.985 0-48.093-1.407-71.904-3.372-.479-.039-.497-.771-.028-.771.009 0 .019.001.028.001 30.151 1.8 60.214 2.06 90.4 2.451.901.011.896 1.368 0 1.397a561.92 561.92 0 0 1-18.496.293m-34.364-28.491c-2.733 0-5.598-.515-7.601-.693-6.406-.575-13.015-.796-19.36-1.869-3.675-.623-5.479-2.443-5.225-6.232.424-6.32 1.756-12.775 2.663-19.047.052-.361.301-.517.574-.517.413 0 .88.356.802.896l-2.122 14.041c-.186 1.351-.713 3.321-.637 4.627.078 1.329 1.101 3.677 2.333 4.388 1.06.611 2.883.671 4.555.671l.613-.001.591-.001c.513 0 .983.007 1.379.037l13.835 1.104c2.256.188 4.519.473 6.783.536l.68.011c2.843 0 5.397-.596 5.856-3.976.277-2.052-.396-4.564-.573-6.629-.169-1.987-.315-3.989-.225-5.984.084-1.871.333-3.729.864-5.527.22-.748.805-1.701.815-2.489.043-3.42-2.024-3.292-4.043-3.388a124.68 124.68 0 0 0-5.873-.136c-7.276 0-14.613.592-21.786 1.429a1.76 1.76 0 0 1-.202.012c-1.892 0-1.913-3.309.202-3.349l21.069-.347c1.466-.004 3.435-.216 5.411-.216 2.688 0 5.385.391 6.831 2.221 1.039 1.315.965 2.847.604 4.384-.788 3.353-1.819 6.251-1.813 9.785.004 2.816.323 5.621.473 8.432.105 1.975.5 4.343-1.053 5.884-1.521 1.513-3.915 1.944-6.417 1.944m-15.307-11.274c-1.042 0-1.352-1.772-.183-2.261l5.548-2.247-5.186-5.503-1.091 8.308c-.071.387-.382.56-.705.56-.413 0-.847-.283-.832-.768.075-2.403.359-4.792.593-7.185.115-1.177-.089-2.787 1.385-3.105a1.65 1.65 0 0 1 .358-.039c1.374 0 2.615 1.641 3.443 2.461l4.639 4.937c.595.668.291 1.521-.486 1.841l-7.068 2.913c-.149.06-.288.087-.417.087" fill="#978e98"/><g fill="#281f3b"><use xlink:href="#B"/><use xlink:href="#B" x="9.834"/><use xlink:href="#B" x="19.667"/><use xlink:href="#C"/><use xlink:href="#C" x="9.834"/><use xlink:href="#C" x="19.667"/><path d="M128.388 267.112a3.11 3.11 0 1 1-6.222 0 3.11 3.11 0 1 1 6.222 0"/><use xlink:href="#D"/><use xlink:href="#D" x="9.834"/></g><defs ><path id="B" d="M674.554 381.778c0 1.719-1.393 3.112-3.112 3.112s-3.111-1.393-3.111-3.112a3.11 3.11 0 0 1 3.111-3.111c1.719 0 3.112 1.393 3.112 3.111"/><path id="C" d="M686.554 148.001a3.11 3.11 0 1 1-6.223 0 3.11 3.11 0 1 1 6.223 0"/><path id="D" d="M138.222 267.112c0 1.719-1.393 3.112-3.112 3.112a3.11 3.11 0 1 1 0-6.223 3.11 3.11 0 0 1 3.112 3.111"/></defs></svg>